<svg width="135" height="120" viewBox="0 0 135 120" fill="none" xmlns="http://www.w3.org/2000/svg">
<path opacity="0.5" d="M87.9893 72.9297V107.88L56.8893 117.47L55.7793 120H91.5693L122.569 106.9L134.569 86.6597L87.9893 72.9297Z" fill="#A1ABAF"/>
<path d="M2.48001 57.8615L4.02 58.2715L4.06001 58.2615L4.51001 58.3815L2.3 59.1215L0 58.5115L2.22 57.7715L2.48001 57.8415V57.8615Z" fill="#EFF1F5"/>
<path d="M4.02046 58.2711L2.48047 57.8612V57.8412V57.7012L4.02046 58.1112V58.2711Z" fill="#C7CED9"/>
<path d="M4.05954 58.2608L4.01953 58.2708V58.1108L33.2495 48.3008V48.4308V51.2608L33.0695 51.3208L31.1795 51.9608L30.1695 52.3008L29.6795 52.4608L27.7895 53.1008L26.7795 53.4408L26.2795 53.6008L24.3995 54.2308L23.3795 54.5808L22.8895 54.7408L20.9995 55.3708L19.9895 55.7108L19.4995 55.8808L17.6095 56.5108L16.5995 56.8508L16.0995 57.0208L14.2195 57.6508L13.1995 57.9908L12.7095 58.1608L10.8195 58.7908L9.80954 59.1308L9.31953 59.3008L7.42953 59.9308L6.41954 60.2708L5.91954 60.4408L4.50954 60.9108V58.3808L4.05954 58.2608Z" fill="#A7AEBC"/>
<path d="M2.3 105.852L0 105.242V58.5117L2.3 59.1217V105.852Z" fill="#C7CED9"/>
<path d="M2.30078 105.851V59.1208L4.51079 58.3809V60.9109V101.711V101.821V104.781V105.111L2.30078 105.851Z" fill="#A7AEBC"/>
<path d="M4.02046 58.1106L2.48047 57.7006L31.4605 47.9806L31.4905 47.9606L31.7105 47.8906L33.2505 48.3006L4.02046 58.1106Z" fill="#EFF1F5"/>
<path d="M33.2509 48.301L31.7109 47.891L31.4909 47.9609L31.4609 47.951L33.6709 47.2109L35.9609 47.821L33.7509 48.5609L33.2509 48.4309V48.301Z" fill="#EFF1F5"/>
<path d="M33.7503 95.2917L33.2103 95.1516L33.2503 95.1417V92.1717L33.0703 92.1216V51.3217L33.2503 51.2617V48.4316L33.7503 48.5616V95.2917Z" fill="#C7CED9"/>
<path d="M33.2498 92.1719V95.1419L33.2098 95.1519L4.50977 104.782V101.822L33.2498 92.1719Z" fill="#A7AEBC"/>
<path d="M33.0698 92.1211L33.2498 92.1711L4.50977 101.821V101.711L5.91977 101.231V100.421L6.41977 100.251V100.461L7.42976 100.731L9.31976 100.101V99.2811L9.80977 99.1111V99.3211L10.8198 99.5911L12.7098 98.9611V98.1411L13.1998 97.9811V98.1811L14.2198 98.4511L16.0998 97.8211V97.0011L16.5998 96.8411V97.0411L17.6098 97.3111L19.4998 96.6811V95.8611L19.9898 95.7011V95.9011L20.9998 96.1711L22.8898 95.5411V94.7211L23.3798 94.5611V94.7611L24.3998 95.0311L26.2798 94.4011V93.5911L26.7798 93.4211V93.6211L27.7898 93.8911L29.6798 93.2611V92.4511L30.1698 92.2811V92.4911L31.1798 92.7511L33.0698 92.1211Z" fill="#EFF1F5"/>
<path d="M5.91977 101.231L4.50977 101.711V60.9114L5.91977 60.4414V100.421V101.231Z" fill="#A7AEBC"/>
<path d="M7.42992 100.732L6.41992 100.462V100.252V60.2716L7.42992 59.9316V100.732Z" fill="#C7CED9"/>
<path d="M9.31969 100.101L7.42969 100.731V59.9308L9.31969 59.3008V99.2808V100.101Z" fill="#A7AEBC"/>
<path d="M10.8205 99.591L9.81055 99.321V99.111V59.131L10.8205 58.791V99.591Z" fill="#C7CED9"/>
<path d="M12.7103 98.9601L10.8203 99.5901V58.7902L12.7103 58.1602V98.1402V98.9601Z" fill="#A7AEBC"/>
<path d="M14.2192 98.4504L13.1992 98.1804V97.9804V57.9904L14.2192 57.6504V98.4504Z" fill="#C7CED9"/>
<path d="M16.1007 97.8215L14.2207 98.4515V57.6515L16.1007 57.0215V97.0015V97.8215Z" fill="#A7AEBC"/>
<path d="M17.6096 97.3117L16.5996 97.0417V96.8417V56.8517L17.6096 56.5117V97.3117Z" fill="#C7CED9"/>
<path d="M19.4994 96.6808L17.6094 97.3109V56.5109L19.4994 55.8809V95.8609V96.6808Z" fill="#A7AEBC"/>
<path d="M21.0002 96.171L19.9902 95.901V95.701V55.711L21.0002 55.371V96.171Z" fill="#C7CED9"/>
<path d="M22.89 95.5403L21 96.1703V55.3702L22.89 54.7402V94.7202V95.5403Z" fill="#A7AEBC"/>
<path d="M26.2804 94.4016L24.4004 95.0316V54.2316L26.2804 53.6016V93.5916V94.4016Z" fill="#A7AEBC"/>
<path d="M24.3989 95.0305L23.3789 94.7605V94.5605V54.5805L24.3989 54.2305V95.0305Z" fill="#C7CED9"/>
<path d="M27.7893 93.8916L26.7793 93.6216V93.4216V53.4416L27.7893 53.1016V93.8916Z" fill="#C7CED9"/>
<path d="M29.6791 93.261L27.7891 93.891V53.101L29.6791 52.4609V92.451V93.261Z" fill="#A7AEBC"/>
<path d="M33.0697 92.1203L31.1797 92.7503V51.9603L33.0697 51.3203V92.1203Z" fill="#A7AEBC"/>
<path d="M31.1799 92.7509L30.1699 92.4909V92.2809V52.301L31.1799 51.9609V92.7509Z" fill="#C7CED9"/>
<path d="M33.75 95.2903V48.5603L35.96 47.8203V94.5503L33.75 95.2903Z" fill="#A7AEBC"/>
<path d="M31.4609 47.9812V47.9512L31.4909 47.9612L31.4609 47.9812Z" fill="#C7CED9"/>
<path d="M34.2188 48.4102V48.5702V51.3802L34.5188 51.4601L36.5488 52.0002L37.4488 52.2401L38.2388 52.4502L40.3587 53.0102L41.2588 53.2502L42.0588 53.4601L44.1688 54.0201L45.0788 54.2602L45.8688 54.4702L47.9888 55.0402L48.8888 55.2802L49.6888 55.4901L51.7988 56.0502L52.7088 56.2902L53.4987 56.5002L55.6188 57.0602L56.5188 57.3002L57.3188 57.5102L59.4288 58.0802L60.3388 58.3202L61.1288 58.5302L63.2487 59.0901L64.1488 59.3302L64.9488 59.5402L67.0588 60.1002L67.9688 60.3401L68.7588 60.5502L70.8788 61.1102L71.7788 61.3502L72.5688 61.5702L74.6888 62.1302L75.5988 62.3701L76.3888 62.5802L78.5088 63.1402L79.4088 63.3802L80.1988 63.5901L82.3188 64.1501L83.2288 64.3902L84.0188 64.6002L85.1688 64.9102V62.2902L85.4288 62.2002V62.0102L34.2188 48.4102Z" fill="#C7CED9"/>
<path d="M34.2188 92.4496L34.5188 92.3496L36.5488 92.8796L37.4488 92.5796V92.4796L38.2388 92.6896V93.3296L40.3587 93.8996L41.2588 93.5896V93.4996L42.0588 93.7096V94.3496L44.1688 94.9096L45.0788 94.6096V94.5096L45.8688 94.7196V95.3596L47.9888 95.9196L48.8888 95.6196V95.5196L49.6888 95.7296V96.3696L51.7988 96.9396L52.7088 96.6296V96.5396L53.4987 96.7496V97.3896L55.6188 97.9496L56.5188 97.6496V97.5496L57.3188 97.7596V98.3996L59.4288 98.9596L60.3388 98.6596V98.5596L61.1288 98.7696V99.4096L63.2487 99.9796L64.1488 99.6696V99.5696L64.9488 99.7896V100.43L67.0588 100.99L67.9688 100.69V100.59L68.7588 100.8V101.44L70.8788 102L71.7788 101.7V101.6L72.5688 101.81V102.45L74.6888 103.02L75.5988 102.71V102.61L76.3888 102.82V103.47L78.5088 104.03L79.4088 103.73V103.63L80.1988 103.84V104.48L82.3188 105.04L83.2288 104.74V104.64L84.0188 104.85V105.49L85.1688 105.8V105.98L34.2188 92.4496Z" fill="#EFF1F5"/>
<path d="M34.2194 95.2992V92.4492L85.1694 105.979V108.939L34.1094 95.3792V95.3392L34.2194 95.2992Z" fill="#C7CED9"/>
<path d="M34.5195 92.3492V51.4592L36.5495 51.9992V92.8792L34.5195 92.3492Z" fill="#C7CED9"/>
<path d="M85.1695 105.8L84.0195 105.49V104.85V64.5996L85.1695 64.9096V105.8Z" fill="#C7CED9"/>
<path d="M83.2303 104.738L82.3203 105.038V64.1484L83.2303 64.3885V104.638V104.738Z" fill="#A7AEBC"/>
<path d="M82.3192 105.04L80.1992 104.48V103.84V63.5898L82.3192 64.1498V105.04Z" fill="#C7CED9"/>
<path d="M78.5087 104.03L76.3887 103.47V102.82V62.5801L78.5087 63.1401V104.03Z" fill="#C7CED9"/>
<path d="M79.4098 103.729L78.5098 104.029V63.1387L79.4098 63.3787V103.629V103.729Z" fill="#A7AEBC"/>
<path d="M74.6903 103.018L72.5703 102.448V101.808V61.5684L74.6903 62.1284V103.018Z" fill="#C7CED9"/>
<path d="M75.5995 102.709L74.6895 103.019V62.1289L75.5995 62.3689V102.609V102.709Z" fill="#A7AEBC"/>
<path d="M70.8798 101.999L68.7598 101.439V100.799V60.5488L70.8798 61.1088V101.999Z" fill="#C7CED9"/>
<path d="M71.7789 101.699L70.8789 101.999V61.1094L71.7789 61.3494V101.599V101.699Z" fill="#A7AEBC"/>
<path d="M67.9686 100.69L67.0586 100.99V60.0996L67.9686 60.3396V100.59V100.69Z" fill="#A7AEBC"/>
<path d="M67.0592 100.989L64.9492 100.429V99.7892V59.5392L67.0592 60.0992V100.989Z" fill="#C7CED9"/>
<path d="M64.15 99.6699L63.25 99.9799V59.0898L64.15 59.3299V99.5699V99.6699Z" fill="#A7AEBC"/>
<path d="M63.2489 99.9793L61.1289 99.4093V98.7693V58.5293L63.2489 59.0893V99.9793Z" fill="#C7CED9"/>
<path d="M59.4303 98.9597L57.3203 98.3997V97.7598V57.5098L59.4303 58.0798V98.9597Z" fill="#C7CED9"/>
<path d="M60.3397 98.6601L59.4297 98.9601V58.0801L60.3397 58.3201V98.5601V98.6601Z" fill="#A7AEBC"/>
<path d="M56.5191 97.6486L55.6191 97.9486V57.0586L56.5191 57.2986V97.5486V97.6486Z" fill="#A7AEBC"/>
<path d="M55.62 97.95L53.5 97.39V96.75V56.5L55.62 57.06V97.95Z" fill="#C7CED9"/>
<path d="M52.7088 96.6288L51.7988 96.9388V56.0488L52.7088 56.2888V96.5388V96.6288Z" fill="#A7AEBC"/>
<path d="M51.7995 96.9383L49.6895 96.3683V95.7283V55.4883L51.7995 56.0483V96.9383Z" fill="#C7CED9"/>
<path d="M48.8902 95.619L47.9902 95.9191V55.0391L48.8902 55.2791V95.519V95.619Z" fill="#A7AEBC"/>
<path d="M47.9891 95.9188L45.8691 95.3588V94.7188V54.4688L47.9891 55.0388V95.9188Z" fill="#C7CED9"/>
<path d="M45.0799 94.6096L44.1699 94.9095V54.0195L45.0799 54.2596V94.5096V94.6096Z" fill="#A7AEBC"/>
<path d="M44.1686 94.909L42.0586 94.349V93.709V53.459L44.1686 54.019V94.909Z" fill="#C7CED9"/>
<path d="M40.3602 93.8992L38.2402 93.3292V92.6892V52.4492L40.3602 53.0092V93.8992Z" fill="#C7CED9"/>
<path d="M41.2594 93.5898L40.3594 93.8997V53.0098L41.2594 53.2498V93.4998V93.5898Z" fill="#A7AEBC"/>
<path d="M37.4488 92.58L36.5488 92.88V52L37.4488 52.24V92.48V92.58Z" fill="#A7AEBC"/>
<path d="M86.7897 61.5488V61.7388L85.4297 62.1988V62.0088L86.7897 61.5488Z" fill="#A7AEBC"/>
<path d="M86.7888 61.5492L85.4288 62.0092L34.2188 48.4092L35.5888 47.9492L35.8488 48.0192L36.1188 48.0992L86.7888 61.5492Z" fill="#EFF1F5"/>
<path d="M35.4681 44.8596L35.5781 44.8896L35.6781 44.8496L37.7081 45.3896L38.6081 45.0896V45.0196L39.4081 45.2296V45.8396L41.5181 46.3996L42.4281 46.0996V46.0396L43.2181 46.2496V46.8496L45.3381 47.4196L46.2381 47.1096V47.0496L47.0381 47.2596V47.8696L49.1481 48.4296L50.0581 48.1296V48.0596L50.8481 48.2696V48.8796L52.9681 49.4396L53.8681 49.1396V49.0796L54.6681 49.2896V49.8896L56.7781 50.4596L57.6881 50.1496V50.0896L58.4781 50.2996V50.9096L60.5981 51.4696L61.4981 51.1696V51.0996L62.2981 51.3096V51.9196L64.4081 52.4796L65.3181 52.1796V52.1096L66.1081 52.3196V52.9296L68.2281 53.4996L69.1281 53.1896V53.1296L69.9181 53.3396V53.9496L72.0381 54.5096L72.9481 54.2096V54.1396L73.7381 54.3496V54.9596L75.8581 55.5196L76.7581 55.2196V55.1496L77.5481 55.3596V55.9696L79.6681 56.5396L80.5781 56.2296V56.1696L81.3681 56.3796V56.9896L83.4881 57.5496L84.3881 57.2496V57.1796L85.1781 57.3896V57.9996L86.8381 58.4396V58.4696L86.6481 58.5396L35.3281 44.9096L35.4681 44.8596Z" fill="#EFF1F5"/>
<path d="M35.5791 44.8904L35.4691 44.8604L35.3291 44.9104V47.6704L33.2891 47.1304V0.400391L35.3291 0.940384V3.84038L35.5791 3.91039V44.8904Z" fill="#C7CED9"/>
<path d="M35.6781 44.8502L35.5781 44.8902V3.91016L35.6781 3.93016V44.8502Z" fill="#A7AEBC"/>
<path d="M35.6797 44.8497V3.92969L37.7097 4.46968V45.3897L35.6797 44.8497Z" fill="#C7CED9"/>
<path d="M38.609 45.0907L37.709 45.3907V4.4707L38.609 4.71071V45.0207V45.0907Z" fill="#A7AEBC"/>
<path d="M41.5182 46.3999L39.4082 45.8399V45.2299V4.91992L41.5182 5.47993V46.3999Z" fill="#C7CED9"/>
<path d="M42.4295 46.1005L41.5195 46.4005V5.48047L42.4295 5.72046V46.0405V46.1005Z" fill="#A7AEBC"/>
<path d="M45.3388 47.4197L43.2188 46.8497V46.2497V5.92969L45.3388 6.49969V47.4197Z" fill="#C7CED9"/>
<path d="M46.2398 47.11L45.3398 47.42V6.5L46.2398 6.73999V47.05V47.11Z" fill="#A7AEBC"/>
<path d="M49.1491 48.4292L47.0391 47.8692V47.2592V6.94922L49.1491 7.50922V48.4292Z" fill="#C7CED9"/>
<path d="M50.0584 48.1298L49.1484 48.4297V7.50977L50.0584 7.74976V48.0598V48.1298Z" fill="#A7AEBC"/>
<path d="M52.9696 49.4409L50.8496 48.881V48.2709V7.96094L52.9696 8.52094V49.4409Z" fill="#C7CED9"/>
<path d="M53.8688 49.1396L52.9688 49.4395V8.51953L53.8688 8.75955V49.0796V49.1396Z" fill="#A7AEBC"/>
<path d="M56.778 50.4607L54.668 49.8907V49.2907V8.9707L56.778 9.54071V50.4607Z" fill="#C7CED9"/>
<path d="M57.6893 50.149L56.7793 50.459V9.53906L57.6893 9.77905V50.0891V50.149Z" fill="#A7AEBC"/>
<path d="M60.5985 51.4702L58.4785 50.9102V50.3003V9.99023L60.5985 10.5503V51.4702Z" fill="#C7CED9"/>
<path d="M61.4996 51.1708L60.5996 51.4708V10.5508L61.4996 10.7908V51.1008V51.1708Z" fill="#A7AEBC"/>
<path d="M64.4088 52.48L62.2988 51.92V51.31V11L64.4088 11.56V52.48Z" fill="#C7CED9"/>
<path d="M65.3202 52.1805L64.4102 52.4806V11.5605L65.3202 11.8006V52.1106V52.1805Z" fill="#A7AEBC"/>
<path d="M68.2294 53.4998L66.1094 52.9297V52.3198V12.0098L68.2294 12.5798V53.4998Z" fill="#C7CED9"/>
<path d="M69.1285 53.1901L68.2285 53.5001V12.5801L69.1285 12.8201V53.1301V53.1901Z" fill="#A7AEBC"/>
<path d="M72.038 54.5093L69.918 53.9493V53.3393V13.0293L72.038 13.5893V54.5093Z" fill="#C7CED9"/>
<path d="M72.9491 54.21L72.0391 54.51V13.59L72.9491 13.83V54.14V54.21Z" fill="#A7AEBC"/>
<path d="M75.8583 55.519L73.7383 54.959V54.3491V14.0391L75.8583 14.5991V55.519Z" fill="#C7CED9"/>
<path d="M76.7594 55.2196L75.8594 55.5196V14.5996L76.7594 14.8396V55.1496V55.2196Z" fill="#A7AEBC"/>
<path d="M79.6688 56.5408L77.5488 55.9708V55.3608V15.0508L79.6688 15.6208V56.5408Z" fill="#C7CED9"/>
<path d="M80.578 56.2292L79.668 56.5392V15.6191L80.578 15.8592V56.1692V56.2292Z" fill="#A7AEBC"/>
<path d="M83.4891 57.5503L81.3691 56.9903V56.3803V16.0703L83.4891 16.6303V57.5503Z" fill="#C7CED9"/>
<path d="M84.3883 57.2509L83.4883 57.5509V16.6309L84.3883 16.8708V57.1808V57.2509Z" fill="#A7AEBC"/>
<path d="M86.8397 58.4401L85.1797 58.0001V57.3901V17.0801L86.6497 17.4701L86.8397 17.4001V58.4401Z" fill="#C7CED9"/>
<path d="M86.9784 61.3907L86.6484 61.5007V58.5407L86.8384 58.4707V61.3507L86.9784 61.3907Z" fill="#A7AEBC"/>
<path d="M86.6481 61.5002L35.3281 47.8701V47.6702V44.9102L86.6481 58.5402V61.5002Z" fill="#C7CED9"/>
<path d="M90.3289 61.56L89.1289 61.96V15.23L90.3289 14.83V61.56Z" fill="#A7AEBC"/>
<path d="M89.1298 15.2292V61.9591L86.9798 61.3892L86.8398 61.3492V58.4691V58.4391V17.3991V14.6191L89.1298 15.2292Z" fill="#C7CED9"/>
<path d="M88.0398 14.2207L90.3298 14.8307L89.1298 15.2307L86.8398 14.6207L87.9098 14.2607L88.0398 14.2207Z" fill="#EFF1F5"/>
<path d="M86.8384 17.4001L86.6484 17.4701V14.5001L87.9084 14.0801V14.2601L86.8384 14.6201V17.4001Z" fill="#A7AEBC"/>
<path d="M86.6481 14.4991V17.4691L85.1781 17.0791L84.3881 16.8691L83.4881 16.6291L81.3681 16.0691L80.5781 15.8591L79.6681 15.6191L77.5481 15.0491L76.7581 14.8391L75.8581 14.5991L73.7381 14.0391L72.9481 13.8291L72.0381 13.5891L69.9181 13.0291L69.1281 12.8191L68.2281 12.5791L66.1081 12.0091L65.3181 11.7991L64.4081 11.5591L62.2981 10.9991L61.4981 10.7891L60.5981 10.5491L58.4781 9.98912L57.6881 9.77913L56.7781 9.53914L54.6681 8.96913L53.8681 8.75914L52.9681 8.51912L50.8481 7.95912L50.0581 7.74913L49.1481 7.50914L47.0381 6.94914L46.2381 6.73912L45.3381 6.49913L43.2181 5.92912L42.4281 5.71913L41.5181 5.47914L39.4081 4.91913L38.6081 4.70914L37.7081 4.46913L35.6781 3.92914L35.5781 3.90913L35.3281 3.83913V0.939133V0.869141L86.6481 14.4991Z" fill="#C7CED9"/>
<path d="M87.9081 14.0792L86.6481 14.4992L35.3281 0.869232L36.4081 0.509232L36.5881 0.449219L87.9081 14.0792Z" fill="#EFF1F5"/>
<path d="M34.4891 0L36.4091 0.51001L35.3291 0.87001V0.940002L33.2891 0.400009L34.4891 0Z" fill="#EFF1F5"/>
<path d="M4.50977 104.78L33.2098 95.1504L85.1698 108.94L53.4898 118.49L4.50977 104.78Z" fill="#747E8C"/>
<path d="M2.73828 58.8613V59.0213V61.8213L3.03828 61.9013L5.06828 62.4413L5.96828 62.6813L6.75829 62.8913L8.87828 63.4613L9.78828 63.7013L10.5783 63.9113L12.6983 64.4713L13.5983 64.7113L14.3883 64.9213L16.5083 65.4813L17.4183 65.7213L18.2083 65.9313L20.3283 66.5013L21.2283 66.7313L22.0183 66.9513L24.1383 67.5113L25.0483 67.7513L25.8383 67.9613L27.9583 68.5213L28.8583 68.7613L29.6483 68.9713L31.7683 69.5313L32.6783 69.7713L33.4683 69.9813L35.5883 70.5513L36.4883 70.7913L37.2783 71.0013L39.3983 71.5613L40.3083 71.8013L41.0983 72.0113L43.2183 72.5713L44.1183 72.8113L44.9083 73.0213L47.0283 73.5913L47.9383 73.8313L48.7283 74.0413L50.8483 74.6013L51.7483 74.8413L52.5383 75.0513L53.6883 75.3513V72.7313L53.9483 72.6413V72.4613L2.73828 58.8613Z" fill="#C7CED9"/>
<path d="M2.73828 102.891L3.03828 102.791L5.06828 103.331L5.96828 103.031V102.931L6.75829 103.141V103.781L8.87828 104.341L9.78828 104.041V103.941L10.5783 104.151V104.791L12.6983 105.361L13.5983 105.051V104.951L14.3883 105.171V105.811L16.5083 106.371L17.4183 106.071V105.971L18.2083 106.181V106.821L20.3283 107.381L21.2283 107.081V106.981L22.0183 107.191V107.831L24.1383 108.401L25.0483 108.091V107.991L25.8383 108.201V108.851L27.9583 109.411L28.8583 109.111V109.011L29.6483 109.221V109.861L31.7683 110.421L32.6783 110.121V110.021L33.4683 110.231V110.871L35.5883 111.441L36.4883 111.131V111.031L37.2783 111.241V111.891L39.3983 112.451L40.3083 112.141V112.051L41.0983 112.261V112.901L43.2183 113.461L44.1183 113.161V113.061L44.9083 113.271V113.911L47.0283 114.471L47.9383 114.171V114.071L48.7283 114.281V114.921L50.8483 115.491L51.7483 115.181V115.091L52.5383 115.301V115.941L53.6883 116.241V116.421L2.73828 102.891Z" fill="#EFF1F5"/>
<path d="M2.73891 105.75V102.89L53.6889 116.42V119.39L2.62891 105.83V105.79L2.73891 105.75Z" fill="#C7CED9"/>
<path d="M3.03906 102.79V61.9004L5.06906 62.4404V103.33L3.03906 102.79Z" fill="#C7CED9"/>
<path d="M53.6891 116.241L52.5391 115.941V115.301V75.0508L53.6891 75.3508V116.241Z" fill="#C7CED9"/>
<path d="M51.7496 115.18L50.8496 115.49V74.5996L51.7496 74.8396V115.09V115.18Z" fill="#A7AEBC"/>
<path d="M50.8485 115.491L48.7285 114.921V114.281V74.041L50.8485 74.601V115.491Z" fill="#C7CED9"/>
<path d="M47.0282 114.47L44.9082 113.91V113.27V73.0195L47.0282 73.5895V114.47Z" fill="#C7CED9"/>
<path d="M47.9393 114.17L47.0293 114.47V73.5898L47.9393 73.8299V114.07V114.17Z" fill="#A7AEBC"/>
<path d="M43.2196 113.46L41.0996 112.9V112.26V72.0098L43.2196 72.5698V113.46Z" fill="#C7CED9"/>
<path d="M44.1188 113.16L43.2188 113.46V72.5704L44.1188 72.8104V113.06V113.16Z" fill="#A7AEBC"/>
<path d="M39.3993 112.45L37.2793 111.89V111.24V71L39.3993 71.56V112.45Z" fill="#C7CED9"/>
<path d="M40.3084 112.141L39.3984 112.451V71.5605L40.3084 71.8006V112.051V112.141Z" fill="#A7AEBC"/>
<path d="M36.4898 111.131L35.5898 111.441V70.5508L36.4898 70.7908V111.031V111.131Z" fill="#A7AEBC"/>
<path d="M35.5888 111.44L33.4688 110.87V110.23V69.9804L35.5888 70.5504V111.44Z" fill="#C7CED9"/>
<path d="M32.6795 110.121L31.7695 110.421V69.5312L32.6795 69.7712V110.021V110.121Z" fill="#A7AEBC"/>
<path d="M31.7684 110.421L29.6484 109.861V109.221V68.9707L31.7684 69.5307V110.421Z" fill="#C7CED9"/>
<path d="M27.9598 109.411L25.8398 108.851V108.201V67.9609L27.9598 68.5209V109.411Z" fill="#C7CED9"/>
<path d="M28.859 109.11L27.959 109.41V68.5195L28.859 68.7596V109.01V109.11Z" fill="#A7AEBC"/>
<path d="M25.0487 108.09L24.1387 108.4V67.5098L25.0487 67.7498V107.99V108.09Z" fill="#A7AEBC"/>
<path d="M24.1395 108.401L22.0195 107.831V107.191V66.9512L24.1395 67.5112V108.401Z" fill="#C7CED9"/>
<path d="M21.2281 107.08L20.3281 107.38V66.5L21.2281 66.73V106.98V107.08Z" fill="#A7AEBC"/>
<path d="M20.329 107.38L18.209 106.82V106.18V65.9297L20.329 66.4997V107.38Z" fill="#C7CED9"/>
<path d="M17.4198 106.07L16.5098 106.37V65.4805L17.4198 65.7205V105.97V106.07Z" fill="#A7AEBC"/>
<path d="M16.5087 106.37L14.3887 105.81V105.17V64.9199L16.5087 65.4799V106.37Z" fill="#C7CED9"/>
<path d="M13.5992 105.051L12.6992 105.361V64.4707L13.5992 64.7107V104.951V105.051Z" fill="#A7AEBC"/>
<path d="M12.6981 105.36L10.5781 104.79V104.15V63.9102L12.6981 64.4702V105.36Z" fill="#C7CED9"/>
<path d="M8.87976 104.341L6.75977 103.781V103.141V62.8906L8.87976 63.4606V104.341Z" fill="#C7CED9"/>
<path d="M9.78891 104.041L8.87891 104.341V63.4609L9.78891 63.701V103.941V104.041Z" fill="#A7AEBC"/>
<path d="M5.96835 103.029L5.06836 103.329V62.4395L5.96835 62.6794V102.929V103.029Z" fill="#A7AEBC"/>
<path d="M55.3192 72V72.19L53.9492 72.64V72.46L55.3192 72Z" fill="#A7AEBC"/>
<path d="M55.3183 72.0004L53.9483 72.4604L2.73828 58.8604L4.10828 58.4004L4.36829 58.4704L4.64828 58.5404L55.3183 72.0004Z" fill="#EFF1F5"/>
<path d="M55.9702 72.0002L57.5102 72.4102L57.5402 72.4001L58.0002 72.5201L55.7802 73.2602L53.4902 72.6501L55.7102 71.9102L55.9702 71.9802V72.0002Z" fill="#EFF1F5"/>
<path d="M57.5107 72.4099L55.9707 71.9998V71.9799V71.8398L57.5107 72.2498V72.4099Z" fill="#C7CED9"/>
<path d="M57.5398 72.3994L57.5098 72.4095V72.2495L86.7398 62.4395V62.5695V65.4095L86.5598 65.4695L84.6698 66.0995L83.6598 66.4395L83.1598 66.6095L81.2798 67.2394L80.2598 67.5795L79.7698 67.7495L77.8798 68.3795L76.8698 68.7195L76.3798 68.8795L74.4898 69.5194L73.4798 69.8595L72.9798 70.0194L71.0998 70.6595L70.0798 70.9995L69.5898 71.1595L67.7098 71.7995L66.6898 72.1395L66.1998 72.2995L64.3098 72.9294L63.2998 73.2794L62.7998 73.4395L60.9198 74.0695L59.8998 74.4095L59.4098 74.5795L57.9998 75.0495V72.5194L57.5398 72.3994Z" fill="#A7AEBC"/>
<path d="M55.7802 120L53.4902 119.39V72.6504L55.7802 73.2604V120Z" fill="#C7CED9"/>
<path d="M55.7793 120V73.2596L57.9993 72.5195V75.0496V115.85V115.96V118.93V119.25L55.7793 120Z" fill="#A7AEBC"/>
<path d="M57.5107 72.2493L55.9707 71.8393L84.9407 62.1193L84.9807 62.1093L85.2007 62.0293L86.7407 62.4393L57.5107 72.2493Z" fill="#EFF1F5"/>
<path d="M86.7395 62.4396L85.1995 62.0296L84.9795 62.1096L84.9395 62.0996L87.1595 61.3496L89.4495 61.9596L87.2395 62.7096L86.7395 62.5696V62.4396Z" fill="#EFF1F5"/>
<path d="M87.2405 109.44L86.7005 109.29L86.7405 109.28V106.31L86.5605 106.27V65.4703L86.7405 65.4103V62.5703L87.2405 62.7103V109.44Z" fill="#C7CED9"/>
<path d="M86.74 106.311V109.281L86.7 109.291L58 118.931V115.961L86.74 106.311Z" fill="#A7AEBC"/>
<path d="M86.56 106.27L86.74 106.31L58 115.96V115.85L59.41 115.38V114.56L59.9 114.4V114.6L60.92 114.87L62.8 114.24V113.42L63.3 113.26V113.46L64.31 113.73L66.2 113.1V112.28L66.69 112.12V112.32L67.71 112.59L69.59 111.96V111.15L70.08 110.98V111.19L71.1 111.45L72.98 110.82V110.01L73.48 109.84V110.05L74.49 110.32L76.38 109.68V108.87L76.87 108.7V108.91L77.88 109.18L79.77 108.54V107.73L80.26 107.56V107.77L81.28 108.04L83.16 107.4V106.59L83.66 106.42V106.63L84.67 106.9L86.56 106.27Z" fill="#EFF1F5"/>
<path d="M59.41 115.38L58 115.85V75.0501L59.41 74.5801V114.56V115.38Z" fill="#A7AEBC"/>
<path d="M60.9204 114.87L59.9004 114.6V114.4V74.4103L60.9204 74.0703V114.87Z" fill="#C7CED9"/>
<path d="M62.7999 114.239L60.9199 114.869V74.0695L62.7999 73.4395V113.419V114.239Z" fill="#A7AEBC"/>
<path d="M64.3108 113.73L63.3008 113.46V113.26V73.2797L64.3108 72.9297V113.73Z" fill="#C7CED9"/>
<path d="M66.2005 113.099L64.3105 113.729V72.9288L66.2005 72.2988V112.279V113.099Z" fill="#A7AEBC"/>
<path d="M67.7114 112.589L66.6914 112.319V112.119V72.1388L67.7114 71.7988V112.589Z" fill="#C7CED9"/>
<path d="M69.5909 111.96L67.7109 112.59V71.8002L69.5909 71.1602V111.15V111.96Z" fill="#A7AEBC"/>
<path d="M71.1001 111.45L70.0801 111.19V110.98V71.0002L71.1001 70.6602V111.45Z" fill="#C7CED9"/>
<path d="M72.9796 110.82L71.0996 111.45V70.6595L72.9796 70.0195V110.01V110.82Z" fill="#A7AEBC"/>
<path d="M74.4905 110.32L73.4805 110.05V109.84V69.8596L74.4905 69.5196V110.32Z" fill="#C7CED9"/>
<path d="M76.3802 109.679L74.4902 110.319V69.5189L76.3802 68.8789V108.869V109.679Z" fill="#A7AEBC"/>
<path d="M79.7709 108.54L77.8809 109.18V68.38L79.7709 67.75V107.73V108.54Z" fill="#A7AEBC"/>
<path d="M77.8811 109.179L76.8711 108.909V108.699V68.7189L77.8811 68.3789V109.179Z" fill="#C7CED9"/>
<path d="M81.2798 108.04L80.2598 107.77V107.56V67.5803L81.2798 67.2402V108.04Z" fill="#C7CED9"/>
<path d="M83.1612 107.399L81.2812 108.039V67.2393L83.1612 66.6094V106.589V107.399Z" fill="#A7AEBC"/>
<path d="M86.5599 106.269L84.6699 106.899V66.0988L86.5599 65.4688V106.269Z" fill="#A7AEBC"/>
<path d="M84.6702 106.9L83.6602 106.63V106.42V66.4396L84.6702 66.0996V106.9Z" fill="#C7CED9"/>
<path d="M87.2402 109.439V62.709L89.4502 61.959V108.689L87.2402 109.439Z" fill="#A7AEBC"/>
<path d="M84.9395 62.1196V62.0996L84.9795 62.1096L84.9395 62.1196Z" fill="#C7CED9"/>
</svg>
