<svg width="154" height="120" viewBox="0 0 154 120" fill="none" xmlns="http://www.w3.org/2000/svg">
<path opacity="0.5" d="M63.5 119.999H100.848L153.096 90.2725L125.286 56.4688H89.2491L63.5 119.999Z" fill="#A1ABAF"/>
<path d="M63.5 60.5477L114.984 90.2737V30.8217L63.5 1.0957V60.5477Z" fill="#C0C7D0"/>
<path d="M63.5013 60.5477L12.0176 90.2737V30.8217L63.5013 1.0957V60.5477Z" fill="#A7AEBC"/>
<path d="M114.984 90.2743L63.5 120V60.5483L114.984 30.8223V90.2743Z" fill="#A7AEBC"/>
<path d="M12.0176 90.2743L63.5013 120V60.5483L12.0176 30.8223V90.2743Z" fill="#C7CED9"/>
<path d="M12.0172 31.2387L0 30.0716V29.6682L12.0172 30.8209V31.2387Z" fill="#F2F4F5"/>
<path d="M12.0172 30.8211L0 29.6684L51.455 0L63.501 1.09509L12.0172 30.8211Z" fill="#E7E9ED"/>
<path d="M12.0176 30.8223L1.78711 42.3207L53.4005 72.0323L63.5013 60.5483L12.0176 30.8223Z" fill="#E7E9ED"/>
<path d="M53.4004 72.0329V72.4508L63.5012 60.9523V60.5488L53.4004 72.0329Z" fill="#B4BAC4"/>
<path d="M1.78711 42.3203V42.7382L53.4005 72.4498V72.0319L1.78711 42.3203Z" fill="#F2F4F5"/>
<path d="M114.984 30.8223L123.486 31.2113V31.6148L114.984 31.2401V30.8223Z" fill="#B4BAC4"/>
<path d="M63.5 1.0957L72.4913 1.65766L123.485 31.2108L114.984 30.8217L63.5 1.0957Z" fill="#E7E9ED"/>
<path d="M63.5 60.5483L72.1599 71.0813L123.961 41.4994L114.984 30.8223L63.5 60.5483Z" fill="#E7E9ED"/>
<path d="M72.1602 71.0819V71.4998L123.961 41.9035V41.5L72.1602 71.0819Z" fill="#B4BAC4"/>
<path d="M63.5 60.5488V60.9523L72.1599 71.4998V71.0819L63.5 60.5488Z" fill="#F2F4F5"/>
<path d="M63.5013 1.54238L114.207 30.8217L63.5013 60.101L12.7956 30.8217L63.5013 1.54238ZM63.5013 1.0957L12.0176 30.8217L63.5013 60.5477L114.985 30.8217L63.5013 1.0957Z" fill="#F2F4F5"/>
</svg>
