<svg width="14" height="17" viewBox="0 0 14 17" fill="none" xmlns="http://www.w3.org/2000/svg">
<path d="M5.75488 3.823V4.61499H5.61914V11.9968H6.21387V12.7888H4.82422V3.823H5.75488Z" fill="#0E1B3D" stroke="#0E1B3D" stroke-width="0.25"/>
<path d="M7.78906 11.9971V12.7891H5.96484V11.9971H7.78906Z" fill="#0E1B3D" stroke="#0E1B3D" stroke-width="0.25"/>
<path d="M13.1572 11.9971V12.7891H12.2656V11.9971H13.1572Z" fill="#0E1B3D" stroke="#0E1B3D" stroke-width="0.25"/>
<path d="M13.8496 3.823V12.7888H12.9053V11.9968H13.0537V4.61499H12.8516V3.823H13.8496Z" fill="#0E1B3D" stroke="#0E1B3D" stroke-width="0.25"/>
<path d="M13.1016 3.823V4.61499H11.1172V3.823H13.1016Z" fill="#0E1B3D" stroke="#0E1B3D" stroke-width="0.25"/>
<path d="M7.28418 3.823V4.61499H5.50781V3.823H7.28418Z" fill="#0E1B3D" stroke="#0E1B3D" stroke-width="0.25"/>
<path d="M11.2764 3.8261V8.82219L11.0791 8.68352L9.19434 7.35344L7.31055 8.68352L7.11328 8.82219V3.8261H11.2764ZM7.9082 7.28899L9.12305 6.43254L9.19434 6.38176L9.2666 6.43254L10.4805 7.28801V4.61711L7.9082 4.61516V7.28899Z" fill="#EA2428" stroke="#EA2428" stroke-width="0.25"/>
<path d="M1.26855 0.147202V0.939194H0.919922V13.8982H3.33496V14.6902H0.125V0.147202H1.26855Z" fill="#0E1B3D" stroke="#0E1B3D" stroke-width="0.25"/>
<path d="M7.55762 13.8988V14.6908H3.08594V13.8988H7.55762Z" fill="#0E1B3D" stroke="#0E1B3D" stroke-width="0.25"/>
<path d="M12.4355 1.66672V3.95676H11.6406V1.66672H12.4355Z" fill="#0E1B3D" stroke="#0E1B3D" stroke-width="0.25"/>
<path d="M12.4375 0.147202V2.01537H11.6416V0.939194H11.2852V0.147202H12.4375Z" fill="#0E1B3D" stroke="#0E1B3D" stroke-width="0.25"/>
<path d="M11.5322 0.147202V0.939194H10.1758V0.147202H11.5322Z" fill="#0E1B3D" stroke="#0E1B3D" stroke-width="0.25"/>
<path d="M11.1484 0.125V0.947266H0.523438V0.125H11.1484Z" fill="#0E1B3D" stroke="#0E1B3D" stroke-width="0.25"/>
<path d="M9.50781 11.3424C10.0091 11.2438 10.5289 11.2952 11.001 11.4899C11.4731 11.6846 11.8765 12.0145 12.1602 12.4372C12.4438 12.8598 12.5954 13.3568 12.5947 13.8649C12.5938 14.5455 12.3205 15.1977 11.8359 15.6784C11.3513 16.1591 10.6943 16.4294 10.0098 16.4294C9.49885 16.4293 8.99914 16.2788 8.57422 15.9967C8.14917 15.7145 7.81768 15.3129 7.62207 14.8434C7.42651 14.374 7.37555 13.8573 7.47559 13.359C7.57563 12.8607 7.82276 12.4035 8.18457 12.0446C8.54631 11.6858 9.00656 11.4411 9.50781 11.3424ZM10.0098 12.0934C9.65632 12.0934 9.3104 12.1974 9.0166 12.3922C8.72291 12.5871 8.49452 12.8643 8.35938 13.1881C8.22418 13.5121 8.18803 13.8686 8.25684 14.2126C8.32566 14.5564 8.49636 14.8726 8.74609 15.1208C8.99571 15.3686 9.31376 15.5375 9.66016 15.6061C10.0069 15.6747 10.3668 15.6398 10.6934 15.5055C11.0199 15.3712 11.2989 15.1438 11.4951 14.8522C11.6913 14.5605 11.7959 14.2175 11.7959 13.8669C11.7959 13.3966 11.6082 12.945 11.2734 12.612C10.9524 12.2927 10.5213 12.1088 10.0684 12.0934H10.0098Z" fill="#0E1B3D" stroke="#0E1B3D" stroke-width="0.25"/>
<rect y="-0.176176" width="1.3971" height="0.774687" transform="matrix(0.7095 0.704706 -0.7095 0.704706 8.77344 13.5567)" fill="#0E1B3D" stroke="#0E1B3D" stroke-width="0.25"/>
<path d="M9.64258 14.1259L9.65137 14.1172L9.73926 14.205L10.125 14.5879L10.2148 14.6767L10.125 14.7656L9.73145 15.1562L9.64355 15.2431L9.55566 15.1562L9.1582 14.7617L9.06836 14.6728L9.1582 14.584L9.54395 14.2011L9.63184 14.1142L9.64258 14.1259Z" fill="#0E1B3D" stroke="#0E1B3D" stroke-width="0.25"/>
<path d="M11.1051 12.6739L11.6684 13.2334L10.0305 14.8602L9.46716 14.3007L11.1051 12.6739Z" fill="#0E1B3D" stroke="#0E1B3D" stroke-width="0.25"/>
</svg>
