<svg width="20" height="20" viewBox="0 0 20 20" fill="none" xmlns="http://www.w3.org/2000/svg">
<g clip-path="url(#clip0_71_120481)">
<g filter="url(#filter0_d_71_120481)">
<path d="M18.4822 8.50757C18.4821 8.50132 18.4815 8.49507 18.4812 8.48882C18.4806 8.47229 18.4795 8.45587 18.4776 8.4397C18.4767 8.43269 18.4755 8.42571 18.4744 8.4187C18.4718 8.40261 18.4687 8.38677 18.4649 8.37111C18.4634 8.36483 18.4618 8.35858 18.4601 8.35229C18.4551 8.33438 18.4493 8.31682 18.4427 8.29961C18.4416 8.29674 18.4409 8.29376 18.4398 8.29089L18.4361 8.2817L18.4353 8.27967L17.399 5.68883C17.3113 5.46748 17.1589 5.27768 16.9617 5.14419C16.7646 5.01071 16.5318 4.93972 16.2937 4.94049H13.7204V4.34525C13.7204 4.18738 13.6577 4.03598 13.5461 3.92435C13.4344 3.81272 13.283 3.75001 13.1252 3.75H1.81549C1.49986 3.75036 1.19727 3.8759 0.974086 4.09909C0.750903 4.32227 0.625361 4.62486 0.625 4.94049V13.2739C0.625361 13.5896 0.750903 13.8922 0.974086 14.1153C1.19727 14.3385 1.49986 14.4641 1.81549 14.4644H2.78371C2.91574 14.9755 3.21385 15.4283 3.6312 15.7515C4.04854 16.0748 4.56146 16.2502 5.08935 16.2502C5.61723 16.2502 6.13015 16.0748 6.5475 15.7515C6.96484 15.4283 7.26295 14.9755 7.39498 14.4644H11.7124C11.8444 14.9755 12.1425 15.4283 12.5599 15.7515C12.9772 16.0748 13.4902 16.2502 14.018 16.2502C14.5459 16.2502 15.0588 16.0748 15.4762 15.7515C15.8935 15.4283 16.1916 14.9755 16.3237 14.4644H17.2919C17.6075 14.4641 17.9101 14.3385 18.1333 14.1153C18.3565 13.8922 18.482 13.5896 18.4824 13.2739V8.51197C18.4824 8.51048 18.4822 8.50906 18.4822 8.50757ZM16.2937 6.13098L17.0079 7.91672H13.7204V6.13098H16.2937ZM12.5299 4.94049V9.70246H1.81549V4.94049H12.5299ZM1.81549 10.893H12.5299V12.0125C12.1286 12.3339 11.8419 12.7764 11.7124 13.2739H7.39498C7.26295 12.7628 6.96484 12.3101 6.5475 11.9868C6.13015 11.6636 5.61723 11.4882 5.08935 11.4882C4.56146 11.4882 4.04854 11.6636 3.6312 11.9868C3.21385 12.3101 2.91574 12.7628 2.78371 13.2739H1.81549L1.81549 10.893ZM5.08935 15.0597C4.85389 15.0597 4.62372 14.9899 4.42794 14.859C4.23217 14.7282 4.07958 14.5423 3.98947 14.3248C3.89937 14.1072 3.87579 13.8679 3.92173 13.6369C3.96766 13.406 4.08105 13.1939 4.24754 13.0274C4.41403 12.8609 4.62616 12.7475 4.85709 12.7016C5.08803 12.6556 5.32739 12.6792 5.54493 12.7693C5.76246 12.8594 5.94839 13.012 6.0792 13.2078C6.21002 13.4036 6.27984 13.6337 6.27984 13.8692C6.27948 14.1848 6.15393 14.4874 5.93075 14.7106C5.70757 14.9338 5.40497 15.0593 5.08935 15.0597ZM14.018 15.0597C13.7826 15.0597 13.5524 14.9899 13.3566 14.859C13.1609 14.7282 13.0083 14.5423 12.9182 14.3248C12.8281 14.1072 12.8045 13.8679 12.8504 13.6369C12.8964 13.406 13.0097 13.1939 13.1762 13.0274C13.3427 12.8609 13.5549 12.7475 13.7858 12.7016C14.0167 12.6556 14.2561 12.6792 14.4736 12.7693C14.6912 12.8594 14.8771 13.012 15.0079 13.2078C15.1387 13.4036 15.2085 13.6337 15.2085 13.8692C15.2082 14.1848 15.0826 14.4874 14.8594 14.7106C14.6363 14.9338 14.3337 15.0593 14.018 15.0597ZM17.2919 13.2739H16.3237C16.1798 12.7127 15.8357 12.2234 15.3563 11.8981C14.8769 11.5727 14.2951 11.4338 13.7204 11.5075V9.10721H17.2919V13.2739Z" fill="#060C28"/>
</g>
<path d="M9.75 7H5.25C4.65326 7 4.08097 7.05268 3.65901 7.14645C3.23705 7.24021 3 7.36739 3 7.5C3 7.63261 3.23705 7.75979 3.65901 7.85355C4.08097 7.94732 4.65326 8 5.25 8H9.75C10.3467 8 10.919 7.94732 11.341 7.85355C11.7629 7.75979 12 7.63261 12 7.5C12 7.36739 11.7629 7.24021 11.341 7.14645C10.919 7.05268 10.3467 7 9.75 7Z" fill="#111838"/>
</g>
<defs>
<filter id="filter0_d_71_120481" x="-40.0893" y="-32.8929" width="99.284" height="93.9287" filterUnits="userSpaceOnUse" color-interpolation-filters="sRGB">
<feFlood flood-opacity="0" result="BackgroundImageFix"/>
<feColorMatrix in="SourceAlpha" type="matrix" values="0 0 0 0 0 0 0 0 0 0 0 0 0 0 0 0 0 0 127 0" result="hardAlpha"/>
<feOffset dy="4.07143"/>
<feGaussianBlur stdDeviation="20.3571"/>
<feComposite in2="hardAlpha" operator="out"/>
<feColorMatrix type="matrix" values="0 0 0 0 0.0745098 0 0 0 0 0.376471 0 0 0 0 0.823529 0 0 0 0.16 0"/>
<feBlend mode="normal" in2="BackgroundImageFix" result="effect1_dropShadow_71_120481"/>
<feBlend mode="normal" in="SourceGraphic" in2="effect1_dropShadow_71_120481" result="shape"/>
</filter>
<clipPath id="clip0_71_120481">
<rect width="20" height="20" fill="white"/>
</clipPath>
</defs>
</svg>
