<svg width="181" height="46" viewBox="0 0 181 46" fill="none" xmlns="http://www.w3.org/2000/svg">
<g clip-path="url(#clip0_1572_31256)">
<g clip-path="url(#clip1_1572_31256)">
<path d="M22.0958 17.7056H27.7605L25.5658 23.1924H19.9307C19.9307 23.1924 14.7109 36.598 13.7618 38.763C12.7831 40.9281 15.0964 42.2924 16.9352 42.411C26.1293 43.4194 34.8785 36.4793 36.4504 26.8997C37.8443 18.4174 33.2176 10.7359 25.8031 8.36328L22.0958 17.7056Z" fill="white"/>
<path d="M22.0958 17.7056H27.7605L25.5658 23.1924H19.9307C19.9307 23.1924 14.7109 36.598 13.7618 38.763C12.7831 40.9281 15.0964 42.2924 16.9352 42.411C26.1293 43.4194 34.8785 36.4793 36.4504 26.8997C37.8443 18.4174 33.2176 10.7359 25.8031 8.36328L22.0958 17.7056Z" fill="white"/>
<path d="M0 23.0148C0 23.3411 0 23.6673 0.0296583 23.9639C0.533849 12.7531 9.75758 3.82592 21.087 3.82592C32.7427 3.82592 42.1741 13.2573 42.1741 24.913C42.1741 36.2424 33.2469 45.4662 22.0361 45.9703C22.3623 45.9703 22.6886 46 22.9852 46C35.6789 46 46 35.7086 46 22.9852C46 10.2914 35.7086 0 23.0148 0C10.2914 0 0 10.2914 0 23.0148Z" fill="white"/>
<path d="M0 23.0148C0 23.3411 0 23.6673 0.0296583 23.9639C0.533849 12.7531 9.75758 3.82592 21.087 3.82592C32.7427 3.82592 42.1741 13.2573 42.1741 24.913C42.1741 36.2424 33.2469 45.4662 22.0361 45.9703C22.3623 45.9703 22.6886 46 22.9852 46C35.6789 46 46 35.7086 46 22.9852C46 10.2914 35.7086 0 23.0148 0C10.2914 0 0 10.2914 0 23.0148Z" fill="white"/>
</g>
<g clip-path="url(#clip2_1572_31256)">
<path d="M64.8721 25.7602H68.5665C70.4599 25.7602 71.8915 26.2792 72.8613 27.2699C73.8311 28.2607 74.3391 29.5817 74.3391 31.1858C74.3391 32.7428 73.8311 34.0638 72.8613 35.0546C71.8915 36.0925 70.5061 36.5643 68.7051 36.5643H64.8721V25.7602ZM65.7033 26.4679V35.9038H68.7051C70.0905 35.9038 71.1988 35.4792 72.1224 34.6299C73.046 33.7807 73.5078 32.6484 73.5078 31.1858C73.5078 29.8176 73.046 28.6853 72.1686 27.7889C71.2912 26.8925 70.0905 26.4679 68.6589 26.4679H65.7033Z" fill="white"/>
<path d="M86.4379 25.7602H87.2229V31.6105C87.2229 33.2146 86.8073 34.4412 86.0223 35.2904C85.191 36.1397 84.175 36.6115 82.882 36.6115C81.5889 36.6115 80.5268 36.1869 79.7417 35.3376C78.9105 34.4884 78.541 33.3089 78.541 31.7992V25.7602H79.3723V31.752C79.3723 33.0258 79.6955 34.0166 80.3421 34.7243C80.9886 35.432 81.866 35.8094 82.9282 35.8094C83.9903 35.8094 84.8677 35.432 85.5143 34.7243C86.1608 34.0166 86.5302 32.9787 86.5302 31.6105V25.7602H86.4379Z" fill="white"/>
<path d="M91.9336 25.7602H94.1503C95.3048 25.7602 96.1822 25.9961 96.7825 26.5151C97.3829 27.034 97.66 27.6946 97.66 28.591C97.66 29.6289 97.152 30.431 96.136 30.9971C97.7523 31.3746 98.5836 32.271 98.5836 33.7335C98.5836 34.6299 98.2603 35.2905 97.6138 35.8094C96.9673 36.3284 96.0898 36.6115 95.0277 36.6115H91.9336V25.7602V25.7602ZM92.7187 26.4207V30.714H93.8732C95.8128 30.714 96.7825 30.0063 96.7825 28.5438C96.7825 27.0812 95.8128 26.3735 93.8732 26.3735H92.7187V26.4207ZM92.7187 31.4689V35.8566H94.9353C95.8589 35.8566 96.5055 35.6679 97.0134 35.2433C97.4753 34.8658 97.7062 34.2997 97.7062 33.6392C97.7062 32.1766 96.644 31.4217 94.5659 31.4217H92.7187V31.4689Z" fill="white"/>
<path d="M106.988 25.7602L111.837 36.5643H111.006L109.344 32.8371H104.218L102.555 36.5643H101.678L106.527 25.7602H106.988ZM109.067 32.1766L106.804 27.1284L104.541 32.1766H109.067Z" fill="white"/>
<path d="M116.318 25.7602H115.486V36.6115H116.318V25.7602Z" fill="white"/>
<path d="M133.127 25.7602V26.4207H129.155V36.5643H128.324V26.4207H124.353V25.7602H133.127Z" fill="white"/>
<path d="M136.775 25.7602H139.5C140.655 25.7602 141.532 25.9961 142.132 26.5151C142.733 27.034 143.056 27.6946 143.056 28.5438C143.056 29.8176 142.363 30.6669 141.024 31.1858C141.393 31.3746 141.855 31.8935 142.456 32.8371L144.857 36.5643H143.887L142.04 33.592C141.44 32.6012 140.932 31.9879 140.608 31.752C140.285 31.5161 139.777 31.3746 139.084 31.3746H137.653V36.5643H136.822V25.7602H136.775ZM137.56 26.4679V30.714H139.315C140.193 30.714 140.885 30.5253 141.347 30.1479C141.809 29.7705 142.04 29.2515 142.04 28.591C142.04 27.9304 141.809 27.4115 141.301 27.034C140.839 26.6566 140.147 26.4679 139.223 26.4679H137.56Z" fill="white"/>
<path d="M152.199 25.7602L157.048 36.5643H156.217L154.554 32.8371H149.428L147.766 36.5643H146.935L151.784 25.7602H152.199ZM154.231 32.1294L151.922 27.034L149.659 32.1294H154.231V32.1294Z" fill="white"/>
<path d="M160.696 25.7602H164.391C166.284 25.7602 167.716 26.2792 168.686 27.2699C169.655 28.2607 170.163 29.5817 170.163 31.1858C170.163 32.7428 169.655 34.0638 168.686 35.0546C167.716 36.0925 166.33 36.5643 164.529 36.5643H160.696V25.7602ZM161.528 26.4679V35.9038H164.529C165.915 35.9038 167.023 35.4792 167.947 34.6299C168.87 33.7807 169.332 32.6484 169.332 31.1858C169.332 29.8176 168.87 28.6853 167.993 27.7889C167.115 26.8925 165.915 26.4679 164.483 26.4679H161.528Z" fill="white"/>
<path d="M180.323 25.7602V26.4207H175.382V30.7612H180.185V31.4689H175.382V35.8566H180.462V36.5643H174.551V25.7602H180.323Z" fill="white"/>
<path d="M67.3196 18.2585C66.0728 18.2585 64.8721 17.079 64.8721 15.4277C64.9183 12.9744 66.8117 12.078 69.5825 12.2667V11.559L70.4137 11.3231V16.3241C70.4599 17.5508 71.1526 18.2585 72.3071 18.2585H73.1846V19.1077H72.0762C70.2752 19.1077 69.7672 17.8339 69.6287 16.8903C69.6287 16.8431 69.0283 18.2585 67.3196 18.2585ZM67.4582 17.4564C69.7672 17.4564 69.5825 14.8616 69.5825 13.0687C68.5203 13.1159 65.888 12.7385 65.7495 15.4277C65.7495 15.9939 66.0728 17.4564 67.4582 17.4564ZM67.5967 9.43591H66.5807V10.521H67.5967V9.43591ZM69.721 9.43591H68.7512V10.521H69.7672V9.43591H69.721Z" fill="white"/>
<path d="M73.0918 19.0602V18.211H81.589C82.7435 18.211 83.4824 17.5033 83.4824 16.2294V13.1156H84.3137V16.1351C84.3137 16.9843 84.1289 19.1074 81.8199 19.1074H73.0918V19.0602ZM80.9425 21.2777H79.9265V20.1925H80.9425V21.2777ZM82.7897 21.2777H81.7737V20.1925H82.7897V21.2777Z" fill="white"/>
<path d="M89.0238 13.1156H89.8551V18.4941C89.8551 20.0038 88.6082 21.2777 86.9457 21.2777C86.2992 21.2777 85.5603 20.9474 85.3756 20.853C85.3756 20.853 85.3294 20.4284 85.2832 20.051C85.9297 20.4284 86.6224 20.4756 86.8533 20.4756C87.9617 20.4756 88.8391 19.7679 88.9776 18.5412V13.1156H89.0238Z" fill="white"/>
<path d="M94.7047 19.0605C92.3957 19.0605 92.2109 16.9375 92.2109 16.0882V9.43591H93.0422V16.2298C93.0422 17.5036 93.7349 18.2113 94.8894 18.2113H95.6283V19.0605H94.7047V19.0605Z" fill="white"/>
<path d="M95.5361 19.0609V18.2116H109.667V17.268C109.714 15.0978 108.744 12.5973 106.111 12.5973C104.772 12.5973 103.756 13.2106 103.572 14.5316H102.786C102.925 12.6445 104.449 11.7952 106.111 11.7952C109.206 11.7952 110.499 14.3901 110.499 17.268V18.2116H112.854V19.0609H95.5361ZM106.619 21.2783H105.603V20.1932H106.619V21.2783Z" fill="white"/>
<path d="M112.762 19.0601V18.2109H118.904C120.058 18.2109 120.797 17.5032 120.797 16.2294V13.1155H121.628V15.8519C121.675 17.2201 122.321 18.2581 123.799 18.2581H124.445V19.1073H123.937C122.737 19.1073 121.767 18.3052 121.444 17.5032C121.167 18.3052 120.566 19.1073 119.135 19.1073H112.762V19.0601ZM119.504 11.7945H118.488V10.7094H119.504V11.7945ZM121.675 11.7945H120.705V10.7094H121.675V11.7945Z" fill="white"/>
<path d="M124.353 19.0605V18.2113H129.017C130.171 18.2113 130.91 17.5036 130.91 16.2298V9.43591H131.741V16.0882C131.741 16.9375 131.557 19.0605 129.248 19.0605H124.353Z" fill="white"/>
<path d="M134.882 9.43591H134.051V19.0605H134.882V9.43591Z" fill="white"/>
<path d="M158.942 19.061C156.587 19.061 156.402 16.938 156.402 16.0887V11.3708H151.507C150.306 11.3708 149.891 12.4087 151.23 13.1636C152.754 14.1072 154.185 14.1072 154.231 15.9C154.324 18.2118 152.107 19.1082 150.491 19.1082H143.287C140.562 19.1082 139.408 17.1267 139.315 15.7113C139.269 14.9564 139.361 13.9656 139.869 13.3051C140.054 13.4939 140.331 13.7298 140.47 13.8241C140.146 14.3903 140.1 15.2395 140.146 15.7113C140.239 16.7492 141.116 18.3062 143.333 18.3062H150.352C151.738 18.3062 153.354 17.6928 153.354 15.9C153.354 14.579 152.246 14.8149 150.906 13.9656C148.505 12.4559 149.798 10.5687 151.322 10.5687H157.233V16.2303C157.233 17.5041 157.926 18.2118 159.127 18.2118H169.009V19.061H158.942V19.061ZM145.827 21.3256H144.857V20.2405H145.827V21.3256ZM147.859 21.3256H146.843V20.2405H147.859V21.3256Z" fill="white"/>
<path d="M168.963 19.0602V18.211H170.302C171.457 18.211 172.196 17.5033 172.196 16.2294V13.1156H173.073V16.1351C173.073 16.9843 172.888 19.1074 170.579 19.1074H168.963V19.0602ZM172.103 21.2777H171.087V20.1925H172.103V21.2777Z" fill="white"/>
<path d="M179.538 14.2011C179.446 13.0217 178.892 12.6442 177.876 12.6442C176.952 12.6442 176.213 12.9273 176.121 13.9181H175.197C175.428 12.4083 176.49 11.8422 177.876 11.8422C179.446 11.8422 180.416 12.597 180.416 14.2483V19.0606H175.013V18.2114H179.538V14.2011V14.2011Z" fill="white"/>
</g>
</g>
<defs>
<clipPath id="clip0_1572_31256">
<rect width="180.462" height="46" fill="white"/>
</clipPath>
<clipPath id="clip1_1572_31256">
<rect width="46" height="46" fill="white"/>
</clipPath>
<clipPath id="clip2_1572_31256">
<rect width="115.59" height="27.1282" fill="white" transform="translate(64.8721 9.43591)"/>
</clipPath>
</defs>
</svg>
