<svg width="115" height="80" viewBox="0 0 115 80" fill="none" xmlns="http://www.w3.org/2000/svg">
<mask id="mask0_681_13246" style="mask-type:luminance" maskUnits="userSpaceOnUse" x="34" y="0" width="47" height="46">
<path d="M80.1204 0H34.5045V45.6159H80.1204V0Z" fill="white"/>
</mask>
<g mask="url(#mask0_681_13246)">
<path d="M56.4153 17.5578H62.0327L59.8563 22.9988H54.2682C54.2682 22.9988 49.092 36.2925 48.1509 38.4394C47.1803 40.5864 49.4743 41.9393 51.2979 42.0569C60.4151 43.0569 69.0912 36.1748 70.65 26.6752C72.0324 18.2637 67.4443 10.6463 60.0916 8.29352L56.4153 17.5578Z" fill="#0E1B3D"/>
<path d="M34.5045 22.8226C34.5045 23.1462 34.5045 23.4697 34.5339 23.7638C35.0339 12.6466 44.1806 3.79397 55.4154 3.79397C66.9738 3.79397 76.3264 13.1466 76.3264 24.705C76.3264 35.9398 67.4738 45.0865 56.3566 45.5864C56.6801 45.5864 57.0036 45.6159 57.2978 45.6159C69.8855 45.6159 80.1204 35.4104 80.1204 22.7933C80.1204 10.2055 69.9149 0 57.3271 0C44.7099 0 34.5045 10.2055 34.5045 22.8226Z" fill="#0E1B3D"/>
</g>
<mask id="mask1_681_13246" style="mask-type:luminance" maskUnits="userSpaceOnUse" x="0" y="53" width="115" height="27">
<path d="M114.625 53.0983H0V80H114.625V53.0983Z" fill="white"/>
</mask>
<g mask="url(#mask1_681_13246)">
<path d="M0.000152588 69.2863H3.6638C5.54139 69.2863 6.96104 69.8008 7.92264 70.7833C8.88434 71.7659 9.3881 73.0758 9.3881 74.6666C9.3881 76.2104 8.88434 77.5205 7.92264 78.5029C6.96104 79.5323 5.58711 80.0001 3.80115 80.0001H0.000152588V69.2863ZM0.82451 69.988V79.3452H3.80115C5.17498 79.3452 6.27412 78.924 7.19001 78.0819C8.1059 77.2398 8.56384 76.1169 8.56384 74.6666C8.56384 73.3098 8.10589 72.1869 7.23572 71.298C6.36565 70.4091 5.17497 69.988 3.75533 69.988H0.82451Z" fill="#0E1B3D"/>
<path d="M21.3861 69.2863H22.1646V75.0876C22.1646 76.6783 21.7525 77.8948 20.974 78.7369C20.1496 79.579 19.1422 80.0468 17.8599 80.0468C16.5777 80.0468 15.5244 79.6258 14.7459 78.7837C13.9216 77.9416 13.5552 76.7719 13.5552 75.2747V69.2863H14.3795V75.228C14.3795 76.4912 14.7001 77.4737 15.3412 78.1755C15.9823 78.8773 16.8525 79.2515 17.9057 79.2515C18.959 79.2515 19.8291 78.8773 20.4702 78.1755C21.1113 77.4737 21.4777 76.4444 21.4777 75.0876V69.2863H21.3861Z" fill="#0E1B3D"/>
<path d="M26.8361 69.2863H29.0342C30.1791 69.2863 31.0492 69.5202 31.6445 70.0348C32.2399 70.5494 32.5146 71.2044 32.5146 72.0933C32.5146 73.1227 32.0109 73.918 31.0034 74.4794C32.6062 74.8537 33.4305 75.7426 33.4305 77.193C33.4305 78.0819 33.1099 78.7369 32.4688 79.2515C31.8277 79.7662 30.9576 80.0468 29.9043 80.0468H26.8361V69.2863ZM27.6146 69.9412V74.1987H28.7595C30.6829 74.1987 31.6445 73.4969 31.6445 72.0466C31.6445 70.5962 30.6829 69.8944 28.7595 69.8944H27.6146V69.9412ZM27.6146 74.9473V79.2983H29.8127C30.7286 79.2983 31.3698 79.1112 31.8734 78.6901C32.3315 78.3158 32.5605 77.7543 32.5605 77.0994C32.5605 75.6491 31.5071 74.9005 29.4464 74.9005H27.6146V74.9473Z" fill="#0E1B3D"/>
<path d="M41.7646 69.2863L46.5731 80.0001H45.749L44.1009 76.3041H39.0177L37.3686 80.0001H36.4989L41.3074 69.2863H41.7646ZM43.8252 75.6491L41.5821 70.643L39.338 75.6491H43.8252Z" fill="#0E1B3D"/>
<path d="M51.0157 69.2863H50.1916V80.0468H51.0157V69.2863Z" fill="#0E1B3D"/>
<path d="M67.685 69.2863V69.9412H63.7461V80.0001H62.9221V69.9412H58.9832V69.2863H67.685Z" fill="#0E1B3D"/>
<path d="M71.3029 69.2863H74.0052C75.1496 69.2863 76.0192 69.5202 76.6152 70.0348C77.2102 70.5494 77.5305 71.2044 77.5305 72.0466C77.5305 73.3098 76.8443 74.1519 75.5165 74.6666C75.8824 74.8537 76.3405 75.3683 76.9355 76.3041L79.3165 80.0001H78.3556L76.523 77.0527C75.928 76.0701 75.4243 75.462 75.104 75.228C74.7836 74.9941 74.2799 74.8537 73.5927 74.8537H72.1726V80.0001H71.3486V69.2863H71.3029ZM72.0814 69.988V74.1987H73.8217C74.6914 74.1987 75.3786 74.0116 75.8368 73.6373C76.2949 73.263 76.523 72.7483 76.523 72.0933C76.523 71.4383 76.2949 70.9237 75.7912 70.5494C75.333 70.1752 74.6458 69.988 73.7295 69.988H72.0814Z" fill="#0E1B3D"/>
<path d="M86.598 69.2863L91.4065 80.0001H90.5824L88.9333 76.3041H83.8501L82.202 80.0001H81.3779L86.1864 69.2863H86.598ZM88.613 75.6023L86.3233 70.5494L84.0792 75.6023H88.613Z" fill="#0E1B3D"/>
<path d="M95.0241 69.2863H98.6883C100.565 69.2863 101.985 69.8008 102.947 70.7833C103.908 71.7659 104.412 73.0758 104.412 74.6666C104.412 76.2104 103.908 77.5205 102.947 78.5029C101.985 79.5323 100.611 80.0001 98.8251 80.0001H95.0241V69.2863ZM95.8492 69.988V79.3452H98.8251C100.2 79.3452 101.298 78.924 102.215 78.0819C103.13 77.2398 103.588 76.1169 103.588 74.6666C103.588 73.3098 103.13 72.1869 102.26 71.298C101.39 70.4091 100.2 69.988 98.7795 69.988H95.8492Z" fill="#0E1B3D"/>
<path d="M114.487 69.2863V69.9412H109.587V74.2455H114.349V74.9473H109.587V79.2983H114.625V80.0001H108.762V69.2863H114.487Z" fill="#0E1B3D"/>
<path d="M2.42716 61.8472C1.19067 61.8472 0 60.6776 0 59.0401C0.0458142 56.6073 1.9234 55.7183 4.67106 55.9055V55.2037L5.49542 54.9698V59.929C5.54123 61.1455 6.22815 61.8472 7.37301 61.8472H8.24309V62.6894H7.14404C5.35798 62.6894 4.85432 61.4261 4.71688 60.4905C4.71688 60.4437 4.12159 61.8472 2.42716 61.8472ZM2.5645 61.0518C4.85432 61.0518 4.67106 58.4786 4.67106 56.7008C3.61783 56.7476 1.00751 56.3733 0.870167 59.0401C0.870167 59.6015 1.19067 61.0518 2.5645 61.0518ZM2.70194 53.0983H1.69443V54.1744H2.70194V53.0983ZM4.80851 53.0983H3.8468V54.1744H4.85432V53.0983H4.80851Z" fill="#0E1B3D"/>
<path d="M8.15167 62.6418V61.7997H16.5779C17.7229 61.7997 18.4555 61.0979 18.4555 59.8346V56.7468H19.2799V59.7411C19.2799 60.5832 19.0967 62.6886 16.807 62.6886H8.15167V62.6418ZM15.9368 64.8407H14.9294V63.7647H15.9368V64.8407ZM17.7686 64.8407H16.7612V63.7647H17.7686V64.8407Z" fill="#0E1B3D"/>
<path d="M23.9507 56.7468H24.7749V62.0803C24.7749 63.5775 23.5384 64.8407 21.8898 64.8407C21.2487 64.8407 20.516 64.5133 20.3328 64.4196C20.3328 64.4196 20.287 63.9986 20.2412 63.6243C20.8824 63.9986 21.5693 64.0454 21.7983 64.0454C22.8973 64.0454 23.7674 63.3436 23.9049 62.1271V56.7468H23.9507Z" fill="#0E1B3D"/>
<path d="M29.5834 62.6424C27.2937 62.6424 27.1106 60.5371 27.1106 59.6949V53.0982H27.9348V59.8353C27.9348 61.0985 28.6218 61.8003 29.7667 61.8003H30.4994V62.6424H29.5834Z" fill="#0E1B3D"/>
<path d="M30.4075 62.6425V61.8002H44.4209V60.8645C44.4665 58.7124 43.5046 56.2328 40.8946 56.2328C39.5668 56.2328 38.5593 56.841 38.3758 58.151H37.5974C37.7352 56.2796 39.2455 55.4374 40.8946 55.4374C43.9628 55.4374 45.245 58.0107 45.245 60.8645V61.8002H47.5803V62.6425H30.4075ZM41.3984 64.8413H40.3908V63.7653H41.3984V64.8413Z" fill="#0E1B3D"/>
<path d="M47.4892 62.6419V61.7998H53.5799C54.7243 61.7998 55.4571 61.098 55.4571 59.8348V56.747H56.2822V59.4605C56.3278 60.8173 56.9684 61.8466 58.4341 61.8466H59.0757V62.6887H58.5719C57.3809 62.6887 56.419 61.8933 56.0987 61.098C55.824 61.8933 55.2281 62.6887 53.809 62.6887H47.4892V62.6419ZM54.1749 55.437H53.1674V54.3608H54.1749V55.437ZM56.3278 55.437H55.3659V54.3608H56.3278V55.437Z" fill="#0E1B3D"/>
<path d="M58.9832 62.6424V61.8003H63.6093C64.7537 61.8003 65.4865 61.0985 65.4865 59.8353V53.0982H66.3105V59.6949C66.3105 60.5371 66.1271 62.6424 63.8374 62.6424H58.9832Z" fill="#0E1B3D"/>
<path d="M69.4246 53.0982H68.6006V62.6424H69.4246V53.0982Z" fill="#0E1B3D"/>
<path d="M93.2837 62.6429C90.9484 62.6429 90.7649 60.5375 90.7649 59.6954V55.0169H85.9108C84.7208 55.0169 84.3083 56.0462 85.6361 56.7948C87.1474 57.7305 88.5674 57.7305 88.613 59.5083C88.7043 61.8008 86.5068 62.6897 84.9033 62.6897H77.7594C75.0582 62.6897 73.9128 60.7248 73.8216 59.3212C73.776 58.5726 73.8672 57.5901 74.371 56.9351C74.5544 57.1222 74.8291 57.3561 74.9659 57.4497C74.6456 58.0111 74.6 58.8533 74.6456 59.3212C74.7369 60.3504 75.6075 61.8943 77.805 61.8943H84.7664C86.1399 61.8943 87.7434 61.2861 87.7434 59.5083C87.7434 58.1983 86.6436 58.4323 85.3158 57.5901C82.9349 56.093 84.2171 54.2215 85.7283 54.2215H91.59V59.8358C91.59 61.099 92.2762 61.8008 93.4672 61.8008H103.268V62.6429H93.2837ZM80.2782 64.8886H79.3163V63.8126H80.2782V64.8886ZM82.2933 64.8886H81.2857V63.8126H82.2933V64.8886Z" fill="#0E1B3D"/>
<path d="M103.222 62.6418V61.7997H104.55C105.694 61.7997 106.427 61.0979 106.427 59.8346V56.7468H107.298V59.7411C107.298 60.5832 107.114 62.6886 104.825 62.6886H103.222V62.6418ZM106.336 64.8407H105.328V63.7647H106.336V64.8407Z" fill="#0E1B3D"/>
<path d="M113.709 57.8235C113.617 56.6538 113.067 56.2796 112.06 56.2796C111.144 56.2796 110.412 56.5603 110.32 57.5428H109.404C109.633 56.0457 110.686 55.4842 112.06 55.4842C113.618 55.4842 114.578 56.2328 114.578 57.8703V62.6424H109.221V61.8003H113.709V57.8235Z" fill="#0E1B3D"/>
</g>
</svg>
