<svg width="150" height="104" viewBox="0 0 150 104" fill="none" xmlns="http://www.w3.org/2000/svg">
<mask id="mask0_1542_59977" style="mask-type:luminance" maskUnits="userSpaceOnUse" x="45" y="0" width="60" height="61">
<path d="M104.847 0.809814H45.1533V60.5036H104.847V0.809814Z" fill="white"/>
</mask>
<g mask="url(#mask0_1542_59977)">
<path d="M73.8266 23.7862H81.1777L78.3296 30.9063H71.017C71.017 30.9063 64.2433 48.3027 63.0117 51.1122C61.7416 53.9218 64.7436 55.6923 67.1299 55.8462C79.0609 57.1548 90.4146 48.1486 92.4545 35.7173C94.2634 24.7099 88.2594 14.7416 78.6376 11.6627L73.8266 23.7862Z" fill="#0E1B3D"/>
<path d="M73.8266 23.7862H81.1777L78.3296 30.9063H71.017C71.017 30.9063 64.2433 48.3027 63.0117 51.1122C61.7416 53.9218 64.7436 55.6923 67.1299 55.8462C79.0609 57.1548 90.4146 48.1486 92.4545 35.7173C94.2634 24.7099 88.2594 14.7416 78.6376 11.6627L73.8266 23.7862Z" fill="#0E1B3D"/>
<path d="M45.1533 30.6759C45.1533 31.0994 45.1533 31.5227 45.1918 31.9076C45.8461 17.3594 57.8156 5.77468 72.5177 5.77468C87.6432 5.77468 99.8822 18.0137 99.8822 33.1392C99.8822 47.8413 88.2975 59.8109 73.7494 60.4651C74.1727 60.4651 74.5961 60.5036 74.981 60.5036C91.4535 60.5036 104.847 47.1486 104.847 30.6375C104.847 14.1649 91.492 0.809814 75.0194 0.809814C58.5084 0.809814 45.1533 14.1649 45.1533 30.6759Z" fill="#0E1B3D"/>
<path d="M45.1533 30.6759C45.1533 31.0994 45.1533 31.5227 45.1918 31.9076C45.8461 17.3594 57.8156 5.77468 72.5177 5.77468C87.6432 5.77468 99.8822 18.0137 99.8822 33.1392C99.8822 47.8413 88.2975 59.8109 73.7494 60.4651C74.1727 60.4651 74.5961 60.5036 74.981 60.5036C91.4535 60.5036 104.847 47.1486 104.847 30.6375C104.847 14.1649 91.492 0.809814 75.0194 0.809814C58.5084 0.809814 45.1533 14.1649 45.1533 30.6759Z" fill="#0E1B3D"/>
</g>
<mask id="mask1_1542_59977" style="mask-type:luminance" maskUnits="userSpaceOnUse" x="0" y="67" width="150" height="37">
<path d="M150 67.9861H0V103.19H150V67.9861Z" fill="white"/>
</mask>
<g mask="url(#mask1_1542_59977)">
<path d="M0 89.17H4.79431C7.25136 89.17 9.10913 89.8434 10.3675 91.1292C11.626 92.4149 12.2852 94.1292 12.2852 96.2108C12.2852 98.2312 11.626 99.9456 10.3675 101.231C9.10913 102.578 7.31119 103.19 4.97405 103.19H0V89.17ZM1.07877 90.0884V102.333H4.97405C6.77187 102.333 8.21022 101.782 9.40877 100.68C10.6073 99.5782 11.2066 98.1088 11.2066 96.2108C11.2066 94.4353 10.6073 92.9659 9.46859 91.8027C8.32999 90.6394 6.77186 90.0884 4.91409 90.0884H1.07877Z" fill="#0E1B3D"/>
<path d="M27.9859 89.17H29.0047V96.7618C29.0047 98.8434 28.4654 100.435 27.4466 101.537C26.3678 102.639 25.0495 103.252 23.3714 103.252C21.6935 103.252 20.3151 102.701 19.2964 101.599C18.2176 100.497 17.7383 98.9659 17.7383 97.0067V89.17H18.8169V96.9456C18.8169 98.5986 19.2365 99.8843 20.0754 100.803C20.9144 101.721 22.0531 102.211 23.4314 102.211C24.8098 102.211 25.9484 101.721 26.7873 100.803C27.6263 99.8843 28.1058 98.5373 28.1058 96.7618V89.17H27.9859Z" fill="#0E1B3D"/>
<path d="M35.1177 89.17H37.9943C39.4924 89.17 40.631 89.4762 41.41 90.1495C42.1892 90.823 42.5488 91.6802 42.5488 92.8434C42.5488 94.1904 41.8895 95.2312 40.5711 95.9659C42.6685 96.4557 43.7473 97.6189 43.7473 99.5169C43.7473 100.68 43.3278 101.537 42.4888 102.211C41.6499 102.884 40.5111 103.252 39.1329 103.252H35.1177V89.17ZM36.1365 90.0272V95.5985H37.6347C40.1517 95.5985 41.41 94.6802 41.41 92.7823C41.41 90.8843 40.1517 89.9659 37.6347 89.9659H36.1365V90.0272ZM36.1365 96.5782V102.272H39.013C40.2115 102.272 41.0506 102.027 41.7097 101.476C42.3091 100.986 42.6087 100.252 42.6087 99.3944C42.6087 97.4966 41.2303 96.5169 38.5336 96.5169H36.1365V96.5782Z" fill="#0E1B3D"/>
<path d="M54.6539 89.17L60.9464 103.19H59.868L57.7113 98.3537H51.0593L48.9013 103.19H47.7632L54.0557 89.17H54.6539ZM57.3505 97.4966L54.4151 90.9455L51.4785 97.4966H57.3505Z" fill="#0E1B3D"/>
<path d="M66.7595 89.17H65.6812V103.252H66.7595V89.17Z" fill="#0E1B3D"/>
<path d="M88.5738 89.17V90.0272H83.4193V103.19H82.341V90.0272H77.1865V89.17H88.5738Z" fill="#0E1B3D"/>
<path d="M93.3076 89.17H96.8438C98.3414 89.17 99.4794 89.4762 100.259 90.1495C101.038 90.823 101.457 91.6802 101.457 92.7823C101.457 94.4353 100.559 95.5373 98.8215 96.2108C99.3004 96.4557 99.8999 97.1292 100.679 98.3537L103.794 103.19H102.537L100.139 99.3333C99.3601 98.0476 98.7008 97.2517 98.2817 96.9456C97.8625 96.6394 97.2033 96.4557 96.304 96.4557H94.4457V103.19H93.3673V89.17H93.3076ZM94.3263 90.0884V95.5985H96.6038C97.7418 95.5985 98.6411 95.3537 99.2407 94.8639C99.8402 94.374 100.139 93.7005 100.139 92.8434C100.139 91.9863 99.8402 91.3128 99.181 90.823C98.5814 90.3333 97.6821 90.0884 96.4831 90.0884H94.3263Z" fill="#0E1B3D"/>
<path d="M113.323 89.17L119.616 103.19H118.537L116.379 98.3537H109.727L107.571 103.19H106.492L112.785 89.17H113.323ZM115.96 97.4353L112.964 90.823L110.027 97.4353H115.96Z" fill="#0E1B3D"/>
<path d="M124.35 89.17H129.145C131.601 89.17 133.459 89.8434 134.718 91.1292C135.976 92.4149 136.635 94.1292 136.635 96.2108C136.635 98.2312 135.976 99.9456 134.718 101.231C133.459 102.578 131.661 103.19 129.324 103.19H124.35V89.17ZM125.429 90.0884V102.333H129.324C131.122 102.333 132.56 101.782 133.759 100.68C134.957 99.5782 135.556 98.1088 135.556 96.2108C135.556 94.4353 134.957 92.9659 133.819 91.8027C132.679 90.6394 131.122 90.0884 129.264 90.0884H125.429Z" fill="#0E1B3D"/>
<path d="M149.82 89.17V90.0272H143.408V95.6598H149.639V96.5782H143.408V102.272H150V103.19H142.328V89.17H149.82Z" fill="#0E1B3D"/>
<path d="M3.17622 79.4351C1.55813 79.4351 0 77.9045 0 75.7616C0.0599533 72.578 2.51699 71.4146 6.11263 71.6596V70.7412L7.1914 70.4351V76.9248C7.25136 78.5167 8.15027 79.4351 9.64845 79.4351H10.787V80.5371H9.34881C7.01154 80.5371 6.35245 78.884 6.17259 77.6596C6.17259 77.5983 5.39358 79.4351 3.17622 79.4351ZM3.35595 78.3942C6.35245 78.3942 6.11263 75.0268 6.11263 72.7003C4.73436 72.7616 1.31845 72.2718 1.13872 75.7616C1.13872 76.4962 1.55813 78.3942 3.35595 78.3942ZM3.53581 67.9861H2.21736V69.3942H3.53581V67.9861ZM6.2925 67.9861H5.03399V69.3942H6.35245V67.9861H6.2925Z" fill="#0E1B3D"/>
<path d="M10.6675 80.475V79.373H21.6942C23.1925 79.373 24.1513 78.4546 24.1513 76.8015V72.7607H25.23V76.6791C25.23 77.7811 24.9903 80.5363 21.994 80.5363H10.6675V80.475ZM20.8553 83.3525H19.5369V81.9444H20.8553V83.3525ZM23.2523 83.3525H21.934V81.9444H23.2523V83.3525Z" fill="#0E1B3D"/>
<path d="M31.3421 72.7607H32.4207V79.7402C32.4207 81.6995 30.8026 83.3525 28.6452 83.3525C27.8062 83.3525 26.8474 82.924 26.6077 82.8015C26.6077 82.8015 26.5477 82.2505 26.4878 81.7608C27.3269 82.2505 28.2258 82.3118 28.5254 82.3118C29.9637 82.3118 31.1022 81.3934 31.2821 79.8015V72.7607H31.3421Z" fill="#0E1B3D"/>
<path d="M38.7131 80.4757C35.7167 80.4757 35.4771 77.7206 35.4771 76.6186V67.986H36.5557V76.8022C36.5557 78.4553 37.4547 79.3737 38.9529 79.3737H39.9118V80.4757H38.7131Z" fill="#0E1B3D"/>
<path d="M39.792 80.4758V79.3736H58.1302V78.1491C58.1899 75.3329 56.9311 72.088 53.5156 72.088C51.778 72.088 50.4595 72.8839 50.2195 74.5981H49.2008C49.3811 72.1492 51.3575 71.0471 53.5156 71.0471C57.5306 71.0471 59.2086 74.4145 59.2086 78.1491V79.3736H62.2646V80.4758H39.792ZM54.1748 83.3533H52.8564V81.9451H54.1748V83.3533Z" fill="#0E1B3D"/>
<path d="M62.145 80.4751V79.3731H70.1154C71.613 79.3731 72.572 78.4547 72.572 76.8016V72.7608H73.6516V76.3118C73.7113 78.0873 74.5496 79.4343 76.4676 79.4343H77.3072V80.5363H76.648C75.0895 80.5363 73.8307 79.4954 73.4116 78.4547C73.0521 79.4954 72.2722 80.5363 70.4152 80.5363H62.145V80.4751ZM70.894 71.0466H69.5756V69.6383H70.894V71.0466ZM73.7113 71.0466H72.4526V69.6383H73.7113V71.0466Z" fill="#0E1B3D"/>
<path d="M77.1865 80.4757V79.3737H83.2402C84.7378 79.3737 85.6968 78.4553 85.6968 76.8022V67.986H86.7752V76.6186C86.7752 77.7206 86.5351 80.4757 83.5387 80.4757H77.1865Z" fill="#0E1B3D"/>
<path d="M90.8499 67.986H89.7715V80.4757H90.8499V67.986Z" fill="#0E1B3D"/>
<path d="M122.072 80.4763C119.016 80.4763 118.776 77.7212 118.776 76.6192V70.4968H112.424C110.867 70.4968 110.327 71.8437 112.065 72.8233C114.042 74.0478 115.901 74.0478 115.96 76.3743C116.08 79.3743 113.204 80.5376 111.106 80.5376H101.757C98.2221 80.5376 96.7233 77.9662 96.6039 76.1294C96.5442 75.1498 96.6636 73.8641 97.3228 73.0069C97.5629 73.2518 97.9223 73.5579 98.1014 73.6804C97.6823 74.4151 97.6226 75.5172 97.6823 76.1294C97.8017 77.4763 98.941 79.4967 101.817 79.4967H110.927C112.724 79.4967 114.822 78.7008 114.822 76.3743C114.822 74.6601 113.383 74.9662 111.645 73.8641C108.53 71.9049 110.208 69.4559 112.185 69.4559H119.856V76.8028C119.856 78.4559 120.754 79.3743 122.312 79.3743H135.138V80.4763H122.072ZM105.053 83.4151H103.794V82.0069H105.053V83.4151ZM107.69 83.4151H106.372V82.0069H107.69V83.4151Z" fill="#0E1B3D"/>
<path d="M135.078 80.475V79.373H136.816C138.313 79.373 139.272 78.4546 139.272 76.8015V72.7607H140.412V76.6791C140.412 77.7811 140.172 80.5363 137.175 80.5363H135.078V80.475ZM139.153 83.3525H137.834V81.9444H139.153V83.3525Z" fill="#0E1B3D"/>
<path d="M148.801 74.1695C148.682 72.6389 147.961 72.1492 146.643 72.1492C145.445 72.1492 144.486 72.5165 144.367 73.8022H143.168C143.468 71.843 144.846 71.1083 146.643 71.1083C148.682 71.1083 149.939 72.0879 149.939 74.2308V80.4757H142.928V79.3737H148.801V74.1695Z" fill="#0E1B3D"/>
</g>
</svg>
