<svg width="81" height="76" viewBox="0 0 81 76" fill="none" xmlns="http://www.w3.org/2000/svg">
<path d="M69.0362 50.7847H73.6533V52.1329H69.0362V50.7847Z" fill="white"/>
<path d="M71.9159 43.3687H74.481V44.7169H71.9159V43.3687Z" fill="white"/>
<path d="M71.9159 46.0635H74.481V47.4117H71.9159V46.0635Z" fill="white"/>
<path d="M73.6547 52.1297H75.7622V39.4278L66.1951 37.0943V33.2539H75.7622V32.1828C75.7623 31.1737 75.462 30.1898 74.9035 29.3689C74.345 28.548 73.5562 27.9313 72.6476 27.6052L63.9295 24.4753C63.6216 24.3647 63.293 24.333 62.9711 24.3827C62.6492 24.4324 62.3432 24.5621 62.0786 24.761C61.8139 24.9599 61.5982 25.2224 61.4494 25.5265C61.3007 25.8306 61.2231 26.1677 61.2231 26.5096H62.5057C62.5057 26.3822 62.5347 26.2565 62.5902 26.1431C62.6456 26.0297 62.7261 25.9319 62.8247 25.8578C62.9234 25.7836 63.0375 25.7352 63.1575 25.7167C63.2775 25.6982 63.4 25.71 63.5148 25.7512L72.233 28.881C72.8458 29.101 73.3839 29.5045 73.7813 30.042C74.1786 30.5794 74.4177 31.2272 74.4691 31.9057H64.9125V38.1654L74.4796 40.4989V50.7814H73.6547V52.1297Z" fill="white"/>
<path d="M61.2242 26.5215H62.5068V42.6848H61.2242V26.5215Z" fill="white"/>
<path d="M63.1251 55.5347C63.9072 55.5347 64.6718 55.291 65.3221 54.8343C65.9724 54.3776 66.4792 53.7285 66.7785 52.9691C67.0779 52.2096 67.1562 51.3739 67.0036 50.5677C66.8511 49.7614 66.4745 49.0208 65.9214 48.4396C65.3684 47.8583 64.6638 47.4624 63.8968 47.302C63.1297 47.1417 62.3346 47.224 61.612 47.5385C60.8895 47.8531 60.2719 48.3858 59.8373 49.0693C59.4028 49.7528 59.1709 50.5564 59.1709 51.3784C59.1721 52.4803 59.5891 53.5367 60.3304 54.3159C61.0717 55.0951 62.0768 55.5334 63.1251 55.5347ZM63.1251 48.5705C63.6535 48.5705 64.17 48.7351 64.6093 49.0437C65.0487 49.3522 65.3911 49.7908 65.5933 50.3039C65.7955 50.817 65.8484 51.3816 65.7453 51.9263C65.6422 52.471 65.3878 52.9713 65.0142 53.364C64.6405 53.7567 64.1645 54.0241 63.6463 54.1325C63.1281 54.2408 62.5909 54.1852 62.1027 53.9727C61.6146 53.7602 61.1973 53.4002 60.9038 52.9385C60.6102 52.4767 60.4535 51.9338 60.4535 51.3784C60.4544 50.634 60.7361 49.9203 61.2369 49.3938C61.7378 48.8674 62.4168 48.5713 63.1251 48.5705Z" fill="white"/>
<path d="M23.0979 55.5347C23.88 55.5347 24.6445 55.2909 25.2948 54.8342C25.9451 54.3775 26.4519 53.7284 26.7512 52.9689C27.0505 52.2095 27.1288 51.3738 26.9763 50.5676C26.8237 49.7613 26.4471 49.0208 25.894 48.4395C25.341 47.8582 24.6364 47.4624 23.8694 47.302C23.1023 47.1417 22.3072 47.224 21.5846 47.5386C20.8621 47.8531 20.2445 48.3858 19.81 49.0693C19.3755 49.7528 19.1436 50.5564 19.1436 51.3784C19.1447 52.4804 19.5617 53.5368 20.3031 54.316C21.0444 55.0952 22.0495 55.5335 23.0979 55.5347ZM23.0979 48.5705C23.6263 48.5705 24.1428 48.7352 24.5821 49.0438C25.0214 49.3523 25.3638 49.7909 25.566 50.304C25.7682 50.8171 25.8211 51.3817 25.718 51.9263C25.6149 52.471 25.3604 52.9714 24.9868 53.364C24.6132 53.7567 24.1371 54.0241 23.6189 54.1325C23.1007 54.2408 22.5635 54.1852 22.0754 53.9727C21.5872 53.7601 21.17 53.4002 20.8764 52.9385C20.5829 52.4767 20.4262 51.9338 20.4262 51.3784C20.427 50.6339 20.7087 49.9202 21.2096 49.3938C21.7105 48.8673 22.3896 48.5713 23.0979 48.5705Z" fill="white"/>
<path d="M15.2755 55.5347C16.0576 55.5347 16.8221 55.291 17.4725 54.8343C18.1228 54.3776 18.6296 53.7285 18.9289 52.9691C19.2282 52.2096 19.3066 51.3739 19.154 50.5677C19.0015 49.7614 18.6248 49.0208 18.0718 48.4396C17.5188 47.8583 16.8142 47.4624 16.0471 47.302C15.2801 47.1417 14.485 47.224 13.7624 47.5385C13.0398 47.8531 12.4223 48.3858 11.9877 49.0693C11.5532 49.7528 11.3213 50.5564 11.3213 51.3784C11.3225 52.4803 11.7395 53.5367 12.4808 54.3159C13.2221 55.0951 14.2271 55.5334 15.2755 55.5347ZM15.2755 48.5705C15.8039 48.5705 16.3204 48.7351 16.7597 49.0437C17.1991 49.3522 17.5415 49.7908 17.7437 50.3039C17.9459 50.817 17.9988 51.3816 17.8957 51.9263C17.7926 52.471 17.5382 52.9713 17.1646 53.364C16.7909 53.7567 16.3149 54.0241 15.7967 54.1325C15.2784 54.2408 14.7413 54.1852 14.2531 53.9727C13.765 53.7602 13.3477 53.4002 13.0542 52.9385C12.7606 52.4767 12.6039 51.9338 12.6039 51.3784C12.6047 50.634 12.8865 49.9203 13.3873 49.3938C13.8882 48.8674 14.5672 48.5713 15.2755 48.5705Z" fill="white"/>
<path d="M28.6612 50.7847H58.0103V52.1329H28.6612V50.7847Z" fill="white"/>
<path d="M11.9643 20.4541H56.1597V21.8024H11.9643V20.4541Z" fill="white"/>
<path d="M58.6759 24.4471H59.9585C59.9573 23.3885 59.5567 22.3735 58.8445 21.625C58.1323 20.8764 57.1667 20.4553 56.1594 20.4541V21.8023C56.8266 21.8031 57.4662 22.082 57.938 22.5778C58.4097 23.0737 58.6751 23.7459 58.6759 24.4471Z" fill="white"/>
<path d="M58.6759 24.4478H59.9585V40.6672H58.6759V24.4478Z" fill="white"/>
<path d="M15.0761 43.3497H57.377V42.0014H15.0761C14.4209 42.0007 13.7927 41.7267 13.3294 41.2398C12.866 40.7528 12.6054 40.0925 12.6046 39.4038V38.6367H11.322V39.4038C11.3231 40.45 11.719 41.4529 12.4228 42.1927C13.1266 42.9324 14.0808 43.3485 15.0761 43.3497Z" fill="white"/>
<path d="M49.7706 24.4668H51.0532V39.3066H49.7706V24.4668Z" fill="url(#paint0_linear_1542_55359)"/>
<path d="M42.0724 24.4668H43.355V39.3066H42.0724V24.4668Z" fill="url(#paint1_linear_1542_55359)"/>
<path d="M34.3746 24.4668H35.6572V39.3066H34.3746V24.4668Z" fill="url(#paint2_linear_1542_55359)"/>
<path d="M26.6769 24.4668H27.9595V39.3066H26.6769V24.4668Z" fill="url(#paint3_linear_1542_55359)"/>
<path d="M18.9781 24.4668H20.2607V39.3066H18.9781V24.4668Z" fill="url(#paint4_linear_1542_55359)"/>
<path d="M57.1868 51.7262L59.5912 45.9859H66.6596L69.0639 51.7262L70.2378 51.1828L67.4965 44.6377H58.7543L56.013 51.1828L57.1868 51.7262Z" fill="white"/>
<path d="M9.40852 51.7262L11.8129 45.9859H26.5736L28.9777 51.7262L30.1519 51.1828L27.4105 44.6377H10.976L8.23468 51.1828L9.40852 51.7262Z" fill="white"/>
<path d="M73.1095 33.2778H74.3921V39.6411H73.1095V33.2778Z" fill="white"/>
<defs>
<linearGradient id="paint0_linear_1542_55359" x1="50.4119" y1="39.3066" x2="50.4119" y2="24.4668" gradientUnits="userSpaceOnUse">
<stop stop-color="#120708"/>
<stop offset="0.615" stop-color="#E72327"/>
</linearGradient>
<linearGradient id="paint1_linear_1542_55359" x1="42.7137" y1="39.3066" x2="42.7137" y2="24.4668" gradientUnits="userSpaceOnUse">
<stop stop-color="#120708"/>
<stop offset="0.615" stop-color="#E72327"/>
</linearGradient>
<linearGradient id="paint2_linear_1542_55359" x1="35.0159" y1="39.3066" x2="35.0159" y2="24.4668" gradientUnits="userSpaceOnUse">
<stop stop-color="#120708"/>
<stop offset="0.615" stop-color="#E72327"/>
</linearGradient>
<linearGradient id="paint3_linear_1542_55359" x1="27.3182" y1="39.3066" x2="27.3182" y2="24.4668" gradientUnits="userSpaceOnUse">
<stop stop-color="#120708"/>
<stop offset="0.615" stop-color="#E72327"/>
</linearGradient>
<linearGradient id="paint4_linear_1542_55359" x1="19.6194" y1="39.3066" x2="19.6194" y2="24.4668" gradientUnits="userSpaceOnUse">
<stop stop-color="#120708"/>
<stop offset="0.615" stop-color="#E72327"/>
</linearGradient>
</defs>
</svg>
