<svg width="53" height="46" viewBox="0 0 53 46" fill="none" xmlns="http://www.w3.org/2000/svg">
<path d="M36.7819 21.0249H15.6992V0H36.7819V21.0249ZM17.4564 19.2745H35.0246V1.7524H17.4564V19.2745Z" fill="url(#paint0_linear_1542_55401)"/>
<path d="M27.1205 20.8408H25.3633V33.0148H27.1205V20.8408Z" fill="url(#paint1_linear_1542_55401)"/>
<path d="M12.6373 45.5348H0V32.9302H12.6373V45.5348ZM1.75722 43.7824H10.8801V34.6826H1.75722V43.7824Z" fill="url(#paint2_linear_1542_55401)"/>
<path d="M32.5612 45.5348H19.9219V32.9302H32.5612V45.5348ZM21.685 43.7824H30.798V34.6826H21.685V43.7824Z" fill="url(#paint3_linear_1542_55401)"/>
<path d="M52.481 45.5348H39.8438V32.9302H52.481V45.5348ZM41.601 43.7824H50.7139V34.6826H41.601V43.7824Z" fill="url(#paint4_linear_1542_55401)"/>
<path d="M39.865 38.4834H32.543V40.2358H39.865V38.4834Z" fill="url(#paint5_linear_1542_55401)"/>
<path d="M19.9432 38.4834H12.6211V40.2358H19.9432V38.4834Z" fill="url(#paint6_linear_1542_55401)"/>
<defs>
<linearGradient id="paint0_linear_1542_55401" x1="38.4697" y1="18.4328" x2="14.0512" y2="2.53086" gradientUnits="userSpaceOnUse">
<stop stop-color="white" stop-opacity="0"/>
<stop offset="0.37" stop-color="white" stop-opacity="0.63"/>
<stop offset="0.71" stop-color="white"/>
</linearGradient>
<linearGradient id="paint1_linear_1542_55401" x1="26.2429" y1="20.8408" x2="26.2429" y2="33.0168" gradientUnits="userSpaceOnUse">
<stop offset="0.04" stop-color="#EA2428" stop-opacity="0"/>
<stop offset="0.51" stop-color="#EA2428"/>
<stop offset="0.69" stop-color="#EA2428" stop-opacity="0.82"/>
<stop offset="0.89" stop-color="#EA2428" stop-opacity="0.3"/>
<stop offset="0.96" stop-color="#EA2428" stop-opacity="0"/>
</linearGradient>
<linearGradient id="paint2_linear_1542_55401" x1="13.6496" y1="43.98" x2="-0.988435" y2="34.4463" gradientUnits="userSpaceOnUse">
<stop stop-color="white" stop-opacity="0"/>
<stop offset="0.37" stop-color="white" stop-opacity="0.63"/>
<stop offset="0.71" stop-color="white"/>
</linearGradient>
<linearGradient id="paint3_linear_1542_55401" x1="33.5735" y1="43.98" x2="18.9334" y2="34.4463" gradientUnits="userSpaceOnUse">
<stop stop-color="white" stop-opacity="0"/>
<stop offset="0.37" stop-color="white" stop-opacity="0.63"/>
<stop offset="0.71" stop-color="white"/>
</linearGradient>
<linearGradient id="paint4_linear_1542_55401" x1="53.4934" y1="43.98" x2="38.8553" y2="34.4464" gradientUnits="userSpaceOnUse">
<stop stop-color="white" stop-opacity="0"/>
<stop offset="0.37" stop-color="white" stop-opacity="0.63"/>
<stop offset="0.71" stop-color="white"/>
</linearGradient>
<linearGradient id="paint5_linear_1542_55401" x1="39.865" y1="39.3586" x2="32.543" y2="39.3586" gradientUnits="userSpaceOnUse">
<stop stop-color="#EA2428" stop-opacity="0"/>
<stop offset="0.2" stop-color="#EA2428" stop-opacity="0.48"/>
<stop offset="0.49" stop-color="#EA2428"/>
<stop offset="0.7" stop-color="#EA2428" stop-opacity="0.74"/>
<stop offset="1" stop-color="#EA2428" stop-opacity="0"/>
</linearGradient>
<linearGradient id="paint6_linear_1542_55401" x1="19.9432" y1="39.3586" x2="12.6211" y2="39.3586" gradientUnits="userSpaceOnUse">
<stop stop-color="#EA2428" stop-opacity="0"/>
<stop offset="0.2" stop-color="#EA2428" stop-opacity="0.48"/>
<stop offset="0.49" stop-color="#EA2428"/>
<stop offset="0.7" stop-color="#EA2428" stop-opacity="0.74"/>
<stop offset="1" stop-color="#EA2428" stop-opacity="0"/>
</linearGradient>
</defs>
</svg>
