<svg width="31" height="31" viewBox="0 0 31 31" fill="none" xmlns="http://www.w3.org/2000/svg">
<path d="M27.4844 1C28.1936 1 28.7388 1.22624 29.1885 1.66992C29.6406 2.11609 29.8623 2.6425 29.8623 3.3125C29.8623 3.9825 29.6406 4.50891 29.1885 4.95508L23.9111 10.1631L23.5361 10.5332L23.6289 11.0518L26.4062 26.5332L24.2314 28.6797L19.0713 16.8096L18.4902 15.4717L17.4521 16.4971L13.1455 20.7471L12.7686 21.1182L12.8643 21.6387L13.8662 27.1182L12.1904 28.7715L8.64648 22.2715L8.50293 22.0078L8.2373 21.8672L1.67969 18.3848L3.33008 16.7793L8.95117 17.7354L9.45703 17.8223L9.82129 17.4619L14.1279 13.2119L15.1953 12.1592L13.8135 11.5781L1.79395 6.52637L3.93164 4.36621L19.6709 7.11035L20.1787 7.19824L20.5449 6.83691L25.7803 1.66992C26.2299 1.22618 26.7752 1.00003 27.4844 1Z" stroke="#0E1B3D" stroke-width="2"/>
</svg>
