<svg width="60" height="60" viewBox="0 0 60 60" fill="none" xmlns="http://www.w3.org/2000/svg">
<mask id="mask0_1542_54313" style="mask-type:luminance" maskUnits="userSpaceOnUse" x="2" y="0" width="55" height="60">
<path d="M56.2942 0H2V60H56.2942V0Z" fill="white"/>
</mask>
<g mask="url(#mask0_1542_54313)">
<path d="M13.7236 52.9102C6.50223 47.4718 2 38.9577 2 30.6219C2 23.3114 4.89747 16.4466 10.1129 11.3203L11.049 12.2564C6.05646 17.1598 3.3373 23.668 3.3373 30.6219C3.3373 38.5565 7.61664 46.6695 14.526 51.8403L13.7236 52.9102Z" fill="#0E1B3D"/>
<path d="M44.3047 53.1313L43.5469 52.0168C50.6792 47.0689 54.9585 39.0897 54.9585 30.6201C54.9585 23.7999 52.3285 17.3809 47.5142 12.5221L48.4503 11.5859C53.4875 16.6677 56.2958 23.4433 56.2958 30.6201C56.2958 39.4908 51.7936 47.9158 44.3047 53.1313Z" fill="#0E1B3D"/>
<path d="M41.1368 5.88281H17.1992V7.2201H41.1368V5.88281Z" fill="#0E1B3D"/>
<path d="M33.2046 13.1055L32.4023 12.0357L39.9803 6.55275L32.4023 1.06984L33.2046 0L42.2537 6.55275L33.2046 13.1055Z" fill="#0E1B3D"/>
<path d="M21.7936 29.0182H12.7891V19.5234H21.7936V29.0182ZM14.2601 27.5472H20.3225V20.9945H14.2601V27.5472Z" fill="#0E1B3D"/>
<path d="M33.649 29.0182H24.6445V19.5234H33.649V29.0182ZM26.1155 27.5472H32.178V20.9945H26.1155V27.5472Z" fill="#0E1B3D"/>
<path d="M45.5083 29.0182H36.5039V19.5234H45.5083V29.0182ZM37.9749 27.5472H44.0373V20.9945H37.9749V27.5472Z" fill="#0E1B3D"/>
<path d="M21.7936 41.0573H12.7891V31.5625H21.7936V41.0573ZM14.2601 39.5863H20.3225V33.0335H14.2601V39.5863Z" fill="#EA2428"/>
<path d="M45.5083 41.0573H36.5039V31.5625H45.5083V41.0573ZM37.9749 39.5863H44.0373V33.0335H37.9749V39.5863Z" fill="#EA2428"/>
<path d="M20.3194 59.9995H20.2748C19.2495 59.9995 18.4026 59.6429 17.7785 59.0188C17.1544 58.3948 16.8424 57.4587 16.887 56.4781C16.9315 55.4974 16.9315 54.4275 16.9315 53.4468V53.3577C16.9315 52.8674 16.9315 52.3769 16.9315 51.9312C16.9315 49.2566 18.5809 46.9832 21.0772 46.1362L21.835 45.8689C22.3253 45.6906 22.8156 45.5122 23.2614 45.3784C23.306 45.2893 23.306 45.2001 23.3506 45.1555C23.7072 44.264 24.1975 43.7291 24.8662 43.5062C25.5348 43.2833 26.248 43.3726 27.0058 43.8629L27.3625 44.0858C27.8528 44.3533 28.3877 44.6653 28.8781 45.0219C28.9672 45.0219 29.2347 45.0219 29.3238 45.0219C29.3238 45.0219 29.2792 45.0218 29.1901 45.0664L29.9033 46.1808C29.5467 46.4037 28.6106 46.4037 28.254 46.1808C27.7191 45.8688 27.1842 45.5122 26.6938 45.2447L26.3372 45.0219C25.936 44.799 25.5794 44.7099 25.2674 44.799C25.1782 44.8436 24.8216 44.9327 24.5541 45.6905C24.5096 45.7796 24.5096 45.8242 24.5096 45.8242C24.4204 46.2254 24.1975 46.4483 23.7518 46.6266C23.2614 46.7603 22.7711 46.9386 22.2807 47.1169L21.4784 47.3844C19.517 48.053 18.2243 49.8361 18.2243 51.9312C18.2243 52.4215 18.2243 52.8674 18.2243 53.3577V53.4468C18.2243 54.472 18.2243 55.4973 18.1797 56.5226C18.1351 57.1466 18.358 57.6816 18.7146 58.0827C19.0712 58.4839 19.6061 58.6623 20.2748 58.6623C21.5229 58.6623 22.4145 58.6623 23.5289 58.6623H24.777C24.9999 58.6623 26.2926 58.6622 26.4709 58.6177C26.783 58.5731 26.9167 58.3948 26.9613 58.0827L27.0504 57.013C27.1396 55.9877 27.2287 54.9178 27.3625 53.848C27.407 53.3576 26.7384 52.6444 26.2035 52.0203C25.9806 51.7974 25.8023 51.5746 25.624 51.3517C25.3119 50.9951 25.3119 50.6386 25.5348 50.2374C25.9806 49.4796 29.5467 49.7024 29.5913 49.7024L29.4576 51.0396C29.1901 51.0396 27.942 51.0396 27.1396 51.0842L27.1841 51.1288C27.942 51.9758 28.8335 52.9119 28.6998 54.0263C28.566 55.0515 28.4769 56.1214 28.3877 57.1466L28.2986 58.2165C28.2094 59.1526 27.5853 59.8212 26.6938 59.955C26.4263 59.9995 24.8662 59.9995 24.8216 59.9995H23.5735C22.4145 59.9995 21.5675 59.9995 20.3194 59.9995Z" fill="#0E1B3D"/>
<path d="M38.0191 59.9977H37.9745C36.6818 59.9977 34.765 59.9977 33.3831 59.9977H32.2687C32.0904 59.9977 31.9121 59.9977 31.6892 59.9531C30.7531 59.8194 30.1736 59.1507 30.0399 58.2146L29.9507 57.1448C29.8616 56.1195 29.7724 55.0497 29.6387 54.0244C29.505 52.9546 30.3965 51.9739 31.1543 51.1269L31.1989 51.0823C30.3519 51.0378 29.1038 50.9932 28.8809 51.0378L28.7472 49.7005C28.7917 49.7005 32.3579 49.4776 32.8036 50.2354C33.0265 50.6366 33.0265 50.9932 32.7145 51.3498C32.5362 51.5727 32.3133 51.7956 32.135 52.0185C31.6001 52.598 30.9314 53.3558 30.976 53.8461C31.1097 54.9159 31.1989 55.9858 31.288 57.011L31.3772 58.0809C31.4218 58.4375 31.5555 58.5712 31.8675 58.6158C32.0013 58.6604 32.135 58.6604 32.2687 58.6604H33.3831C34.8096 58.6604 36.7264 58.6604 38.0191 58.6604C38.6877 58.6604 39.2227 58.4375 39.6238 58.0809C39.9805 57.7243 40.1588 57.1448 40.1588 56.5207C40.1142 55.4954 40.1142 54.4256 40.1142 53.4449V53.3558C40.1142 52.8654 40.1142 52.4196 40.1142 51.9293C40.1142 49.8342 38.8215 48.0511 36.8601 47.3825L36.0577 47.115C35.5674 46.9367 35.077 46.7584 34.5867 46.6247C34.1409 46.491 33.918 46.2235 33.8289 45.8669C33.8289 45.8223 33.7843 45.7777 33.7843 45.7332C33.4723 44.9308 33.1602 44.8416 33.0265 44.7971C32.7591 44.7079 32.4024 44.7971 31.9567 45.0199L31.6001 45.2428C31.1097 45.5103 30.5748 45.8223 30.0399 46.1789C29.6833 46.4018 28.7472 46.4018 28.3906 46.1789L29.1038 45.0645C29.0146 45.0199 28.9701 45.0199 28.9701 45.0199C29.0592 45.0199 29.2821 45.0199 29.4158 45.0199C29.9507 44.7079 30.4857 44.3959 30.9314 44.0838L31.288 43.8609C32.0458 43.4152 32.8036 43.2815 33.4277 43.5043C34.0964 43.7272 34.5867 44.2621 34.9879 45.1537C34.9879 45.1982 35.0325 45.2428 35.077 45.332C35.5674 45.5103 36.0131 45.644 36.5035 45.8223L37.3059 46.0898C39.8021 46.9367 41.4515 49.2101 41.4515 51.8847C41.4515 52.3751 41.4515 52.8654 41.4515 53.3112V53.4003C41.4515 54.381 41.4515 55.4063 41.4961 56.4315C41.5406 57.4122 41.2286 58.3483 40.6045 58.9724C39.8913 59.641 38.9998 59.9977 38.0191 59.9977Z" fill="#0E1B3D"/>
<path d="M29.1486 43.4603C26.0728 43.4603 23.6211 40.8303 23.6211 37.6208C23.6211 34.4113 26.1174 31.7812 29.1486 31.7812C32.1798 31.7812 34.6761 34.4113 34.6761 37.6208C34.6761 40.8303 32.1798 43.4603 29.1486 43.4603ZM29.1486 33.074C26.8306 33.074 24.9584 35.1244 24.9584 37.5761C24.9584 40.0724 26.8306 42.0784 29.1486 42.0784C31.4666 42.0784 33.3388 40.0278 33.3388 37.5761C33.3388 35.1244 31.4666 33.074 29.1486 33.074Z" fill="#0E1B3D"/>
</g>
</svg>
