<svg width="60" height="60" viewBox="0 0 60 60" fill="none" xmlns="http://www.w3.org/2000/svg">
<mask id="mask0_1542_54271" style="mask-type:luminance" maskUnits="userSpaceOnUse" x="0" y="2" width="60" height="56">
<path d="M60 2H0V57.0877H60V2Z" fill="white"/>
</mask>
<g mask="url(#mask0_1542_54271)">
<path d="M59.9995 38.0624H17.1145V36.8928H58.8299V3.16959H6.66617V31.7076H5.49658V2H59.9995V38.0624Z" fill="#0E1B3D"/>
<path d="M12.7873 8.35474H11.6177V30.8499H12.7873V8.35474Z" fill="#0E1B3D"/>
<path d="M18.7521 8.35474H17.5825V30.8499H18.7521V8.35474Z" fill="#EA2428"/>
<path d="M24.7174 8.35474H23.5479V30.8499H24.7174V8.35474Z" fill="#0E1B3D"/>
<path d="M30.6427 8.35474H29.4731V30.8499H30.6427V8.35474Z" fill="#EA2428"/>
<path d="M36.6081 8.35474H35.4385V30.8499H36.6081V8.35474Z" fill="#0E1B3D"/>
<path d="M42.5728 8.35474H41.4033V30.8499H42.5728V8.35474Z" fill="#0E1B3D"/>
<path d="M48.5378 8.35474H47.3682V30.8499H48.5378V8.35474Z" fill="#EA2428"/>
<path d="M54.5025 8.35474H53.333V30.8499H54.5025V8.35474Z" fill="#0E1B3D"/>
<path d="M3.04077 57.0876H3.00179C2.1051 57.0876 1.36436 56.7757 0.818548 56.2299C0.272739 55.6841 -0.00016553 54.8654 0.0388208 54.0077C0.0778072 53.15 0.0778072 52.2143 0.0778072 51.3566V51.2786C0.0778072 50.8498 0.0778072 50.4209 0.0778072 50.0311C0.0778072 47.6919 1.52031 45.7036 3.70354 44.9628L4.36631 44.7289C4.79516 44.573 5.18502 44.417 5.61387 44.3001C5.65286 44.2221 5.65286 44.1441 5.69185 44.1051C6.00374 43.3254 6.43259 42.8576 7.01738 42.6626C7.60218 42.4677 8.22596 42.5457 8.88873 42.9745L9.20062 43.1695C9.62947 43.4034 10.0973 43.6763 10.5262 43.9882C10.6042 43.9882 10.8381 43.9882 10.9161 43.9882C10.9161 43.9882 10.8771 43.9882 10.7991 44.0272L11.4229 45.0018C11.111 45.1968 10.2923 45.1968 9.98035 45.0018C9.51251 44.7289 9.04467 44.417 8.61582 44.1831L8.30393 43.9882C7.95305 43.7932 7.64116 43.7153 7.36826 43.7932C7.29029 43.8322 6.9784 43.9102 6.74448 44.573C6.70549 44.651 6.70549 44.6899 6.70549 44.6899C6.62752 45.0408 6.43259 45.2357 6.04272 45.3917C5.61387 45.5476 5.18502 45.6646 4.75617 45.8205L4.05442 46.0545C2.33902 46.6393 1.20842 48.1987 1.20842 50.0311C1.20842 50.4599 1.20842 50.8498 1.20842 51.2786V51.3566C1.20842 52.2533 1.20842 53.15 1.16943 54.0467C1.13044 54.5925 1.32537 55.0603 1.63727 55.4112C1.94916 55.7621 2.41699 55.918 3.00179 55.918C4.09341 55.918 4.83415 55.918 5.80881 55.918H6.93941C7.13434 55.918 8.26495 55.918 8.42089 55.879C8.6938 55.84 8.81076 55.6841 8.84974 55.4112L8.92771 54.4755C9.00569 53.5788 9.08366 52.6432 9.20062 51.7075C9.2396 51.2786 8.65481 50.6549 8.18697 50.109C7.99204 49.9141 7.8361 49.7192 7.68015 49.5242C7.40725 49.2124 7.40725 48.9005 7.60218 48.5496C7.99204 47.8868 11.111 48.0818 11.15 48.0818L11.033 49.2513C10.7991 49.2513 9.70744 49.2513 9.00569 49.2903L9.04467 49.3293C9.70744 50.0701 10.4872 50.8888 10.3702 51.8634C10.2533 52.7601 10.1753 53.6958 10.0973 54.5925L10.0194 55.5282C9.94136 56.3469 9.39555 56.9317 8.61582 57.0486C8.3819 57.0876 7.01738 57.0876 6.9784 57.0876H5.84779C4.83415 57.0876 4.09341 57.0876 3.04077 57.0876Z" fill="#0E1B3D"/>
<path d="M18.4791 57.0876H18.4401C17.3095 57.0876 15.5941 57.0876 14.3075 57.0876H13.4108C13.2549 57.0876 13.099 57.0876 12.904 57.0486C12.0853 56.9317 11.5785 56.3469 11.4615 55.5282L11.3836 54.5925C11.3056 53.6958 11.2276 52.7601 11.1106 51.8635C10.9937 50.9278 11.7734 50.0701 12.4362 49.3293L12.4752 49.2904C11.7344 49.2514 10.6428 49.2124 10.4479 49.2514L10.3309 48.0818C10.3699 48.0818 13.4888 47.8868 13.8787 48.5496C14.0736 48.9005 14.0736 49.2124 13.8007 49.5243C13.6448 49.7192 13.4498 49.9141 13.2939 50.1091C12.826 50.6159 12.2413 51.2787 12.2802 51.7075C12.3972 52.6432 12.4752 53.5789 12.5531 54.4755L12.6311 55.4112C12.6701 55.7231 12.7871 55.8401 13.06 55.8791C13.1769 55.918 13.2939 55.918 13.4108 55.918H14.3075C15.5551 55.918 17.2705 55.918 18.4401 55.918C19.0249 55.918 19.4927 55.7231 19.8436 55.4112C20.1555 55.0993 20.3114 54.5925 20.3114 54.0467C20.2724 53.15 20.2724 52.2143 20.2724 51.3566V51.2787C20.2724 50.8498 20.2724 50.4599 20.2724 50.0311C20.2724 48.1987 19.1418 46.6393 17.4264 46.0545L16.7247 45.8206C16.2568 45.6646 15.867 45.5087 15.4381 45.3917C15.0483 45.2748 14.8533 45.0408 14.7754 44.7289C14.7754 44.69 14.7364 44.651 14.7364 44.612C14.4635 43.9102 14.1906 43.8323 14.0736 43.7933C13.8397 43.7153 13.5278 43.7933 13.1379 43.9882L12.826 44.1831C12.3972 44.4171 11.9294 44.69 11.4615 45.0019C11.1496 45.1968 10.3309 45.1968 10.019 45.0019L10.6428 44.0272C10.5648 43.9882 10.5259 43.9882 10.5259 43.9882C10.6038 43.9882 10.7988 43.9882 10.9157 43.9882C11.3836 43.7153 11.8514 43.4424 12.2413 43.1695L12.5531 42.9746C13.2159 42.5847 13.8787 42.4677 14.4245 42.6627C15.0093 42.8576 15.4381 43.3254 15.789 44.1052C15.789 44.1442 15.828 44.1831 15.867 44.2611C16.2958 44.4171 16.6857 44.534 17.0756 44.69L17.7773 44.9239C19.9606 45.6646 21.403 47.6529 21.403 49.9921C21.403 50.421 21.403 50.8108 21.403 51.2397V51.3176C21.403 52.1753 21.403 53.072 21.442 53.9687C21.481 54.8264 21.2081 55.6451 20.6623 56.1909C20.1165 56.7757 19.3758 57.0876 18.4791 57.0876Z" fill="#0E1B3D"/>
<path d="M10.7211 42.6237C8.03097 42.6237 5.88672 40.3235 5.88672 37.5165C5.88672 34.7095 8.06996 32.4093 10.7211 32.4093C13.4111 32.4093 15.5944 34.6705 15.5944 37.5165C15.5944 40.3625 13.4111 42.6237 10.7211 42.6237ZM10.7211 33.5789C8.69374 33.5789 7.05631 35.3723 7.05631 37.5165C7.05631 39.6608 8.69374 41.4541 10.7211 41.4541C12.7484 41.4541 14.3858 39.6608 14.3858 37.5165C14.3858 35.3723 12.7484 33.5789 10.7211 33.5789Z" fill="#0E1B3D"/>
</g>
</svg>
