<svg width="24" height="14" viewBox="0 0 24 14" fill="none" xmlns="http://www.w3.org/2000/svg">
<path d="M20.8575 0.759434L20.8159 0.579706H17.9453V0H21.291L21.4379 0.631336L20.8575 0.759434Z" fill="#1360D2"/>
<path d="M20.8575 0.759434L20.8159 0.579706H17.9453V0H21.291L21.4379 0.631336L20.8575 0.759434Z" fill="black" fill-opacity="0.2"/>
<path d="M20.8575 0.759434L20.8159 0.579706H17.9453V0H21.291L21.4379 0.631336L20.8575 0.759434Z" fill="black" fill-opacity="0.2"/>
<path d="M20.8575 0.759434L20.8159 0.579706H17.9453V0H21.291L21.4379 0.631336L20.8575 0.759434Z" fill="black" fill-opacity="0.2"/>
<path d="M20.8575 0.759434L20.8159 0.579706H17.9453V0H21.291L21.4379 0.631336L20.8575 0.759434Z" fill="black" fill-opacity="0.2"/>
<path d="M20.8575 0.759434L20.8159 0.579706H17.9453V0H21.291L21.4379 0.631336L20.8575 0.759434Z" fill="black" fill-opacity="0.2"/>
<path d="M20.8575 0.759434L20.8159 0.579706H17.9453V0H21.291L21.4379 0.631336L20.8575 0.759434Z" fill="black" fill-opacity="0.2"/>
<path d="M18.1373 9.19971H16.8691V9.77941H18.1373V9.19971Z" fill="#EA2428"/>
<path d="M20.0338 1.90039H18.7656V2.4801H20.0338V1.90039Z" fill="#1360D2"/>
<path d="M20.0338 1.90039H18.7656V2.4801H20.0338V1.90039Z" fill="black" fill-opacity="0.2"/>
<path d="M20.0338 1.90039H18.7656V2.4801H20.0338V1.90039Z" fill="black" fill-opacity="0.2"/>
<path d="M20.0338 1.90039H18.7656V2.4801H20.0338V1.90039Z" fill="black" fill-opacity="0.2"/>
<path d="M20.0338 1.90039H18.7656V2.4801H20.0338V1.90039Z" fill="black" fill-opacity="0.2"/>
<path d="M20.0338 1.90039H18.7656V2.4801H20.0338V1.90039Z" fill="black" fill-opacity="0.2"/>
<path d="M20.0338 1.90039H18.7656V2.4801H20.0338V1.90039Z" fill="black" fill-opacity="0.2"/>
<path d="M15.6237 9.19971H14.3555V9.77941H15.6237V9.19971Z" fill="#EA2428"/>
<path d="M13.108 9.19971H11.8398V9.77941H13.108V9.19971Z" fill="#EA2428"/>
<path d="M10.5944 9.19971H9.32617V9.77941H10.5944V9.19971Z" fill="#EA2428"/>
<path d="M8.0768 9.19971H6.80859V9.77941H8.0768V9.19971Z" fill="#EA2428"/>
<path d="M5.56117 9.19971H4.29297V9.77941H5.56117V9.19971Z" fill="#EA2428"/>
<path d="M3.0475 9.19971H1.7793V9.77941H3.0475V9.19971Z" fill="#EA2428"/>
<path d="M15.5422 6.71594H0.243164V7.29565H15.5422V6.71594Z" fill="#1360D2"/>
<path d="M15.5422 6.71594H0.243164V7.29565H15.5422V6.71594Z" fill="black" fill-opacity="0.2"/>
<path d="M15.5422 6.71594H0.243164V7.29565H15.5422V6.71594Z" fill="black" fill-opacity="0.2"/>
<path d="M15.5422 6.71594H0.243164V7.29565H15.5422V6.71594Z" fill="black" fill-opacity="0.2"/>
<path d="M15.5422 6.71594H0.243164V7.29565H15.5422V6.71594Z" fill="black" fill-opacity="0.2"/>
<path d="M15.5422 6.71594H0.243164V7.29565H15.5422V6.71594Z" fill="black" fill-opacity="0.2"/>
<path d="M15.5422 6.71594H0.243164V7.29565H15.5422V6.71594Z" fill="black" fill-opacity="0.2"/>
<path d="M15.542 7.29698V6.71727C15.7275 6.71773 15.9113 6.68232 16.0827 6.6131C16.2541 6.54389 16.4097 6.44223 16.5405 6.31403L17.349 5.52649H23.6686L23.1224 6.57218L22.5916 6.31076L22.6983 6.10685H17.598L16.9639 6.72511C16.7776 6.90741 16.5559 7.05183 16.3118 7.15C16.0678 7.24817 15.8061 7.29813 15.542 7.29698Z" fill="#1360D2"/>
<path d="M15.542 7.29698V6.71727C15.7275 6.71773 15.9113 6.68232 16.0827 6.6131C16.2541 6.54389 16.4097 6.44223 16.5405 6.31403L17.349 5.52649H23.6686L23.1224 6.57218L22.5916 6.31076L22.6983 6.10685H17.598L16.9639 6.72511C16.7776 6.90741 16.5559 7.05183 16.3118 7.15C16.0678 7.24817 15.8061 7.29813 15.542 7.29698Z" fill="black" fill-opacity="0.2"/>
<path d="M15.542 7.29698V6.71727C15.7275 6.71773 15.9113 6.68232 16.0827 6.6131C16.2541 6.54389 16.4097 6.44223 16.5405 6.31403L17.349 5.52649H23.6686L23.1224 6.57218L22.5916 6.31076L22.6983 6.10685H17.598L16.9639 6.72511C16.7776 6.90741 16.5559 7.05183 16.3118 7.15C16.0678 7.24817 15.8061 7.29813 15.542 7.29698Z" fill="black" fill-opacity="0.2"/>
<path d="M15.542 7.29698V6.71727C15.7275 6.71773 15.9113 6.68232 16.0827 6.6131C16.2541 6.54389 16.4097 6.44223 16.5405 6.31403L17.349 5.52649H23.6686L23.1224 6.57218L22.5916 6.31076L22.6983 6.10685H17.598L16.9639 6.72511C16.7776 6.90741 16.5559 7.05183 16.3118 7.15C16.0678 7.24817 15.8061 7.29813 15.542 7.29698Z" fill="black" fill-opacity="0.2"/>
<path d="M15.542 7.29698V6.71727C15.7275 6.71773 15.9113 6.68232 16.0827 6.6131C16.2541 6.54389 16.4097 6.44223 16.5405 6.31403L17.349 5.52649H23.6686L23.1224 6.57218L22.5916 6.31076L22.6983 6.10685H17.598L16.9639 6.72511C16.7776 6.90741 16.5559 7.05183 16.3118 7.15C16.0678 7.24817 15.8061 7.29813 15.542 7.29698Z" fill="black" fill-opacity="0.2"/>
<path d="M15.542 7.29698V6.71727C15.7275 6.71773 15.9113 6.68232 16.0827 6.6131C16.2541 6.54389 16.4097 6.44223 16.5405 6.31403L17.349 5.52649H23.6686L23.1224 6.57218L22.5916 6.31076L22.6983 6.10685H17.598L16.9639 6.72511C16.7776 6.90741 16.5559 7.05183 16.3118 7.15C16.0678 7.24817 15.8061 7.29813 15.542 7.29698Z" fill="black" fill-opacity="0.2"/>
<path d="M15.542 7.29698V6.71727C15.7275 6.71773 15.9113 6.68232 16.0827 6.6131C16.2541 6.54389 16.4097 6.44223 16.5405 6.31403L17.349 5.52649H23.6686L23.1224 6.57218L22.5916 6.31076L22.6983 6.10685H17.598L16.9639 6.72511C16.7776 6.90741 16.5559 7.05183 16.3118 7.15C16.0678 7.24817 15.8061 7.29813 15.542 7.29698Z" fill="black" fill-opacity="0.2"/>
<path d="M22.5903 6.30712L20.2803 10.7324L20.8108 10.9952L23.1208 6.56985L22.5903 6.30712Z" fill="#1360D2"/>
<path d="M22.5903 6.30712L20.2803 10.7324L20.8108 10.9952L23.1208 6.56985L22.5903 6.30712Z" fill="black" fill-opacity="0.2"/>
<path d="M22.5903 6.30712L20.2803 10.7324L20.8108 10.9952L23.1208 6.56985L22.5903 6.30712Z" fill="black" fill-opacity="0.2"/>
<path d="M22.5903 6.30712L20.2803 10.7324L20.8108 10.9952L23.1208 6.56985L22.5903 6.30712Z" fill="black" fill-opacity="0.2"/>
<path d="M22.5903 6.30712L20.2803 10.7324L20.8108 10.9952L23.1208 6.56985L22.5903 6.30712Z" fill="black" fill-opacity="0.2"/>
<path d="M22.5903 6.30712L20.2803 10.7324L20.8108 10.9952L23.1208 6.56985L22.5903 6.30712Z" fill="black" fill-opacity="0.2"/>
<path d="M22.5903 6.30712L20.2803 10.7324L20.8108 10.9952L23.1208 6.56985L22.5903 6.30712Z" fill="black" fill-opacity="0.2"/>
<path d="M16.9721 2.31555H16.377V1.52736C16.3775 1.12244 16.5429 0.734251 16.8368 0.447927C17.1308 0.161604 17.5294 0.0005188 17.9451 0V0.579706C17.6872 0.580052 17.4399 0.680005 17.2575 0.85765C17.0751 1.0353 16.9725 1.27614 16.9721 1.52736V2.31555Z" fill="#1360D2"/>
<path d="M16.9721 2.31555H16.377V1.52736C16.3775 1.12244 16.5429 0.734251 16.8368 0.447927C17.1308 0.161604 17.5294 0.0005188 17.9451 0V0.579706C17.6872 0.580052 17.4399 0.680005 17.2575 0.85765C17.0751 1.0353 16.9725 1.27614 16.9721 1.52736V2.31555Z" fill="black" fill-opacity="0.2"/>
<path d="M16.9721 2.31555H16.377V1.52736C16.3775 1.12244 16.5429 0.734251 16.8368 0.447927C17.1308 0.161604 17.5294 0.0005188 17.9451 0V0.579706C17.6872 0.580052 17.4399 0.680005 17.2575 0.85765C17.0751 1.0353 16.9725 1.27614 16.9721 1.52736V2.31555Z" fill="black" fill-opacity="0.2"/>
<path d="M16.9721 2.31555H16.377V1.52736C16.3775 1.12244 16.5429 0.734251 16.8368 0.447927C17.1308 0.161604 17.5294 0.0005188 17.9451 0V0.579706C17.6872 0.580052 17.4399 0.680005 17.2575 0.85765C17.0751 1.0353 16.9725 1.27614 16.9721 1.52736V2.31555Z" fill="black" fill-opacity="0.2"/>
<path d="M16.9721 2.31555H16.377V1.52736C16.3775 1.12244 16.5429 0.734251 16.8368 0.447927C17.1308 0.161604 17.5294 0.0005188 17.9451 0V0.579706C17.6872 0.580052 17.4399 0.680005 17.2575 0.85765C17.0751 1.0353 16.9725 1.27614 16.9721 1.52736V2.31555Z" fill="black" fill-opacity="0.2"/>
<path d="M16.9721 2.31555H16.377V1.52736C16.3775 1.12244 16.5429 0.734251 16.8368 0.447927C17.1308 0.161604 17.5294 0.0005188 17.9451 0V0.579706C17.6872 0.580052 17.4399 0.680005 17.2575 0.85765C17.0751 1.0353 16.9725 1.27614 16.9721 1.52736V2.31555Z" fill="black" fill-opacity="0.2"/>
<path d="M16.9721 2.31555H16.377V1.52736C16.3775 1.12244 16.5429 0.734251 16.8368 0.447927C17.1308 0.161604 17.5294 0.0005188 17.9451 0V0.579706C17.6872 0.580052 17.4399 0.680005 17.2575 0.85765C17.0751 1.0353 16.9725 1.27614 16.9721 1.52736V2.31555Z" fill="black" fill-opacity="0.2"/>
<path d="M21.5804 0.717069L20.9971 0.844604L22.0898 5.58548L22.673 5.45795L21.5804 0.717069Z" fill="#1360D2"/>
<path d="M21.5804 0.717069L20.9971 0.844604L22.0898 5.58548L22.673 5.45795L21.5804 0.717069Z" fill="black" fill-opacity="0.2"/>
<path d="M21.5804 0.717069L20.9971 0.844604L22.0898 5.58548L22.673 5.45795L21.5804 0.717069Z" fill="black" fill-opacity="0.2"/>
<path d="M21.5804 0.717069L20.9971 0.844604L22.0898 5.58548L22.673 5.45795L21.5804 0.717069Z" fill="black" fill-opacity="0.2"/>
<path d="M21.5804 0.717069L20.9971 0.844604L22.0898 5.58548L22.673 5.45795L21.5804 0.717069Z" fill="black" fill-opacity="0.2"/>
<path d="M21.5804 0.717069L20.9971 0.844604L22.0898 5.58548L22.673 5.45795L21.5804 0.717069Z" fill="black" fill-opacity="0.2"/>
<path d="M21.5804 0.717069L20.9971 0.844604L22.0898 5.58548L22.673 5.45795L21.5804 0.717069Z" fill="black" fill-opacity="0.2"/>
<path d="M23.7946 14C23.1961 14 22.7358 13.67 22.0956 13.0615C21.5689 12.5596 21.2092 12.2877 20.8207 12.2877C20.4322 12.2877 20.0712 12.5596 19.5458 13.0615C18.9057 13.67 18.446 14 17.8468 14C17.2476 14 16.7853 13.67 16.1458 13.0615C15.6184 12.5596 15.2594 12.2877 14.8709 12.2877C14.4824 12.2877 14.122 12.5596 13.596 13.0615C12.9565 13.67 12.4962 14 11.897 14C11.2978 14 10.8354 13.67 10.196 13.0615C9.66856 12.5596 9.3089 12.2877 8.92106 12.2877C8.53322 12.2877 8.17221 12.5596 7.64614 13.0615C7.00734 13.6693 6.5477 13.9987 5.94715 13.9987C5.3466 13.9987 4.8883 13.672 4.24815 13.0596C3.72074 12.5576 3.36175 12.2858 2.97324 12.2858C2.58472 12.2858 2.22439 12.5576 1.69832 13.0596C1.05885 13.6687 0.59854 13.9987 0 13.9987V13.419C0.355634 13.419 0.666982 13.2308 1.2823 12.6452C1.89761 12.0596 2.38476 11.7061 2.97458 11.7061C3.5644 11.7061 4.04216 12.0505 4.66686 12.6452C5.29157 13.24 5.5942 13.419 5.94983 13.419C6.30547 13.419 6.62084 13.2315 7.2328 12.6465C7.85751 12.0518 8.3346 11.708 8.92508 11.708C9.51557 11.708 9.99199 12.0518 10.6174 12.6465C11.2427 13.2413 11.544 13.4203 11.8997 13.4203C12.2553 13.4203 12.5673 13.2328 13.1826 12.6465C13.7979 12.0603 14.2844 11.708 14.8749 11.708C15.4654 11.708 15.9425 12.0518 16.5672 12.6465C17.1919 13.2413 17.4945 13.4203 17.8502 13.4203C18.2058 13.4203 18.5178 13.2328 19.1331 12.6465C19.7485 12.0603 20.2349 11.708 20.8254 11.708C21.4159 11.708 21.8923 12.0518 22.517 12.6465C23.1417 13.2413 23.4444 13.4203 23.8 13.4203L23.7946 14Z" fill="#1360D2"/>
<path d="M23.7946 14C23.1961 14 22.7358 13.67 22.0956 13.0615C21.5689 12.5596 21.2092 12.2877 20.8207 12.2877C20.4322 12.2877 20.0712 12.5596 19.5458 13.0615C18.9057 13.67 18.446 14 17.8468 14C17.2476 14 16.7853 13.67 16.1458 13.0615C15.6184 12.5596 15.2594 12.2877 14.8709 12.2877C14.4824 12.2877 14.122 12.5596 13.596 13.0615C12.9565 13.67 12.4962 14 11.897 14C11.2978 14 10.8354 13.67 10.196 13.0615C9.66856 12.5596 9.3089 12.2877 8.92106 12.2877C8.53322 12.2877 8.17221 12.5596 7.64614 13.0615C7.00734 13.6693 6.5477 13.9987 5.94715 13.9987C5.3466 13.9987 4.8883 13.672 4.24815 13.0596C3.72074 12.5576 3.36175 12.2858 2.97324 12.2858C2.58472 12.2858 2.22439 12.5576 1.69832 13.0596C1.05885 13.6687 0.59854 13.9987 0 13.9987V13.419C0.355634 13.419 0.666982 13.2308 1.2823 12.6452C1.89761 12.0596 2.38476 11.7061 2.97458 11.7061C3.5644 11.7061 4.04216 12.0505 4.66686 12.6452C5.29157 13.24 5.5942 13.419 5.94983 13.419C6.30547 13.419 6.62084 13.2315 7.2328 12.6465C7.85751 12.0518 8.3346 11.708 8.92508 11.708C9.51557 11.708 9.99199 12.0518 10.6174 12.6465C11.2427 13.2413 11.544 13.4203 11.8997 13.4203C12.2553 13.4203 12.5673 13.2328 13.1826 12.6465C13.7979 12.0603 14.2844 11.708 14.8749 11.708C15.4654 11.708 15.9425 12.0518 16.5672 12.6465C17.1919 13.2413 17.4945 13.4203 17.8502 13.4203C18.2058 13.4203 18.5178 13.2328 19.1331 12.6465C19.7485 12.0603 20.2349 11.708 20.8254 11.708C21.4159 11.708 21.8923 12.0518 22.517 12.6465C23.1417 13.2413 23.4444 13.4203 23.8 13.4203L23.7946 14Z" fill="black" fill-opacity="0.2"/>
<path d="M23.7946 14C23.1961 14 22.7358 13.67 22.0956 13.0615C21.5689 12.5596 21.2092 12.2877 20.8207 12.2877C20.4322 12.2877 20.0712 12.5596 19.5458 13.0615C18.9057 13.67 18.446 14 17.8468 14C17.2476 14 16.7853 13.67 16.1458 13.0615C15.6184 12.5596 15.2594 12.2877 14.8709 12.2877C14.4824 12.2877 14.122 12.5596 13.596 13.0615C12.9565 13.67 12.4962 14 11.897 14C11.2978 14 10.8354 13.67 10.196 13.0615C9.66856 12.5596 9.3089 12.2877 8.92106 12.2877C8.53322 12.2877 8.17221 12.5596 7.64614 13.0615C7.00734 13.6693 6.5477 13.9987 5.94715 13.9987C5.3466 13.9987 4.8883 13.672 4.24815 13.0596C3.72074 12.5576 3.36175 12.2858 2.97324 12.2858C2.58472 12.2858 2.22439 12.5576 1.69832 13.0596C1.05885 13.6687 0.59854 13.9987 0 13.9987V13.419C0.355634 13.419 0.666982 13.2308 1.2823 12.6452C1.89761 12.0596 2.38476 11.7061 2.97458 11.7061C3.5644 11.7061 4.04216 12.0505 4.66686 12.6452C5.29157 13.24 5.5942 13.419 5.94983 13.419C6.30547 13.419 6.62084 13.2315 7.2328 12.6465C7.85751 12.0518 8.3346 11.708 8.92508 11.708C9.51557 11.708 9.99199 12.0518 10.6174 12.6465C11.2427 13.2413 11.544 13.4203 11.8997 13.4203C12.2553 13.4203 12.5673 13.2328 13.1826 12.6465C13.7979 12.0603 14.2844 11.708 14.8749 11.708C15.4654 11.708 15.9425 12.0518 16.5672 12.6465C17.1919 13.2413 17.4945 13.4203 17.8502 13.4203C18.2058 13.4203 18.5178 13.2328 19.1331 12.6465C19.7485 12.0603 20.2349 11.708 20.8254 11.708C21.4159 11.708 21.8923 12.0518 22.517 12.6465C23.1417 13.2413 23.4444 13.4203 23.8 13.4203L23.7946 14Z" fill="black" fill-opacity="0.2"/>
<path d="M23.7946 14C23.1961 14 22.7358 13.67 22.0956 13.0615C21.5689 12.5596 21.2092 12.2877 20.8207 12.2877C20.4322 12.2877 20.0712 12.5596 19.5458 13.0615C18.9057 13.67 18.446 14 17.8468 14C17.2476 14 16.7853 13.67 16.1458 13.0615C15.6184 12.5596 15.2594 12.2877 14.8709 12.2877C14.4824 12.2877 14.122 12.5596 13.596 13.0615C12.9565 13.67 12.4962 14 11.897 14C11.2978 14 10.8354 13.67 10.196 13.0615C9.66856 12.5596 9.3089 12.2877 8.92106 12.2877C8.53322 12.2877 8.17221 12.5596 7.64614 13.0615C7.00734 13.6693 6.5477 13.9987 5.94715 13.9987C5.3466 13.9987 4.8883 13.672 4.24815 13.0596C3.72074 12.5576 3.36175 12.2858 2.97324 12.2858C2.58472 12.2858 2.22439 12.5576 1.69832 13.0596C1.05885 13.6687 0.59854 13.9987 0 13.9987V13.419C0.355634 13.419 0.666982 13.2308 1.2823 12.6452C1.89761 12.0596 2.38476 11.7061 2.97458 11.7061C3.5644 11.7061 4.04216 12.0505 4.66686 12.6452C5.29157 13.24 5.5942 13.419 5.94983 13.419C6.30547 13.419 6.62084 13.2315 7.2328 12.6465C7.85751 12.0518 8.3346 11.708 8.92508 11.708C9.51557 11.708 9.99199 12.0518 10.6174 12.6465C11.2427 13.2413 11.544 13.4203 11.8997 13.4203C12.2553 13.4203 12.5673 13.2328 13.1826 12.6465C13.7979 12.0603 14.2844 11.708 14.8749 11.708C15.4654 11.708 15.9425 12.0518 16.5672 12.6465C17.1919 13.2413 17.4945 13.4203 17.8502 13.4203C18.2058 13.4203 18.5178 13.2328 19.1331 12.6465C19.7485 12.0603 20.2349 11.708 20.8254 11.708C21.4159 11.708 21.8923 12.0518 22.517 12.6465C23.1417 13.2413 23.4444 13.4203 23.8 13.4203L23.7946 14Z" fill="black" fill-opacity="0.2"/>
<path d="M23.7946 14C23.1961 14 22.7358 13.67 22.0956 13.0615C21.5689 12.5596 21.2092 12.2877 20.8207 12.2877C20.4322 12.2877 20.0712 12.5596 19.5458 13.0615C18.9057 13.67 18.446 14 17.8468 14C17.2476 14 16.7853 13.67 16.1458 13.0615C15.6184 12.5596 15.2594 12.2877 14.8709 12.2877C14.4824 12.2877 14.122 12.5596 13.596 13.0615C12.9565 13.67 12.4962 14 11.897 14C11.2978 14 10.8354 13.67 10.196 13.0615C9.66856 12.5596 9.3089 12.2877 8.92106 12.2877C8.53322 12.2877 8.17221 12.5596 7.64614 13.0615C7.00734 13.6693 6.5477 13.9987 5.94715 13.9987C5.3466 13.9987 4.8883 13.672 4.24815 13.0596C3.72074 12.5576 3.36175 12.2858 2.97324 12.2858C2.58472 12.2858 2.22439 12.5576 1.69832 13.0596C1.05885 13.6687 0.59854 13.9987 0 13.9987V13.419C0.355634 13.419 0.666982 13.2308 1.2823 12.6452C1.89761 12.0596 2.38476 11.7061 2.97458 11.7061C3.5644 11.7061 4.04216 12.0505 4.66686 12.6452C5.29157 13.24 5.5942 13.419 5.94983 13.419C6.30547 13.419 6.62084 13.2315 7.2328 12.6465C7.85751 12.0518 8.3346 11.708 8.92508 11.708C9.51557 11.708 9.99199 12.0518 10.6174 12.6465C11.2427 13.2413 11.544 13.4203 11.8997 13.4203C12.2553 13.4203 12.5673 13.2328 13.1826 12.6465C13.7979 12.0603 14.2844 11.708 14.8749 11.708C15.4654 11.708 15.9425 12.0518 16.5672 12.6465C17.1919 13.2413 17.4945 13.4203 17.8502 13.4203C18.2058 13.4203 18.5178 13.2328 19.1331 12.6465C19.7485 12.0603 20.2349 11.708 20.8254 11.708C21.4159 11.708 21.8923 12.0518 22.517 12.6465C23.1417 13.2413 23.4444 13.4203 23.8 13.4203L23.7946 14Z" fill="black" fill-opacity="0.2"/>
<path d="M23.7946 14C23.1961 14 22.7358 13.67 22.0956 13.0615C21.5689 12.5596 21.2092 12.2877 20.8207 12.2877C20.4322 12.2877 20.0712 12.5596 19.5458 13.0615C18.9057 13.67 18.446 14 17.8468 14C17.2476 14 16.7853 13.67 16.1458 13.0615C15.6184 12.5596 15.2594 12.2877 14.8709 12.2877C14.4824 12.2877 14.122 12.5596 13.596 13.0615C12.9565 13.67 12.4962 14 11.897 14C11.2978 14 10.8354 13.67 10.196 13.0615C9.66856 12.5596 9.3089 12.2877 8.92106 12.2877C8.53322 12.2877 8.17221 12.5596 7.64614 13.0615C7.00734 13.6693 6.5477 13.9987 5.94715 13.9987C5.3466 13.9987 4.8883 13.672 4.24815 13.0596C3.72074 12.5576 3.36175 12.2858 2.97324 12.2858C2.58472 12.2858 2.22439 12.5576 1.69832 13.0596C1.05885 13.6687 0.59854 13.9987 0 13.9987V13.419C0.355634 13.419 0.666982 13.2308 1.2823 12.6452C1.89761 12.0596 2.38476 11.7061 2.97458 11.7061C3.5644 11.7061 4.04216 12.0505 4.66686 12.6452C5.29157 13.24 5.5942 13.419 5.94983 13.419C6.30547 13.419 6.62084 13.2315 7.2328 12.6465C7.85751 12.0518 8.3346 11.708 8.92508 11.708C9.51557 11.708 9.99199 12.0518 10.6174 12.6465C11.2427 13.2413 11.544 13.4203 11.8997 13.4203C12.2553 13.4203 12.5673 13.2328 13.1826 12.6465C13.7979 12.0603 14.2844 11.708 14.8749 11.708C15.4654 11.708 15.9425 12.0518 16.5672 12.6465C17.1919 13.2413 17.4945 13.4203 17.8502 13.4203C18.2058 13.4203 18.5178 13.2328 19.1331 12.6465C19.7485 12.0603 20.2349 11.708 20.8254 11.708C21.4159 11.708 21.8923 12.0518 22.517 12.6465C23.1417 13.2413 23.4444 13.4203 23.8 13.4203L23.7946 14Z" fill="black" fill-opacity="0.2"/>
<path d="M23.7946 14C23.1961 14 22.7358 13.67 22.0956 13.0615C21.5689 12.5596 21.2092 12.2877 20.8207 12.2877C20.4322 12.2877 20.0712 12.5596 19.5458 13.0615C18.9057 13.67 18.446 14 17.8468 14C17.2476 14 16.7853 13.67 16.1458 13.0615C15.6184 12.5596 15.2594 12.2877 14.8709 12.2877C14.4824 12.2877 14.122 12.5596 13.596 13.0615C12.9565 13.67 12.4962 14 11.897 14C11.2978 14 10.8354 13.67 10.196 13.0615C9.66856 12.5596 9.3089 12.2877 8.92106 12.2877C8.53322 12.2877 8.17221 12.5596 7.64614 13.0615C7.00734 13.6693 6.5477 13.9987 5.94715 13.9987C5.3466 13.9987 4.8883 13.672 4.24815 13.0596C3.72074 12.5576 3.36175 12.2858 2.97324 12.2858C2.58472 12.2858 2.22439 12.5576 1.69832 13.0596C1.05885 13.6687 0.59854 13.9987 0 13.9987V13.419C0.355634 13.419 0.666982 13.2308 1.2823 12.6452C1.89761 12.0596 2.38476 11.7061 2.97458 11.7061C3.5644 11.7061 4.04216 12.0505 4.66686 12.6452C5.29157 13.24 5.5942 13.419 5.94983 13.419C6.30547 13.419 6.62084 13.2315 7.2328 12.6465C7.85751 12.0518 8.3346 11.708 8.92508 11.708C9.51557 11.708 9.99199 12.0518 10.6174 12.6465C11.2427 13.2413 11.544 13.4203 11.8997 13.4203C12.2553 13.4203 12.5673 13.2328 13.1826 12.6465C13.7979 12.0603 14.2844 11.708 14.8749 11.708C15.4654 11.708 15.9425 12.0518 16.5672 12.6465C17.1919 13.2413 17.4945 13.4203 17.8502 13.4203C18.2058 13.4203 18.5178 13.2328 19.1331 12.6465C19.7485 12.0603 20.2349 11.708 20.8254 11.708C21.4159 11.708 21.8923 12.0518 22.517 12.6465C23.1417 13.2413 23.4444 13.4203 23.8 13.4203L23.7946 14Z" fill="black" fill-opacity="0.2"/>
<path d="M14.4767 5.81332H0.601562V0.706421H14.4767V5.81332ZM1.19675 5.23361H13.8788V1.28678H1.19675V5.23361Z" fill="url(#paint0_linear_1542_51599)"/>
<defs>
<linearGradient id="paint0_linear_1542_51599" x1="7.53912" y1="0.706421" x2="7.53912" y2="5.81332" gradientUnits="userSpaceOnUse">
<stop offset="0.07" stop-color="#0E1B3D"/>
<stop offset="0.51" stop-color="#0E1B3D"/>
<stop offset="0.92" stop-color="#0E1B3D" stop-opacity="0"/>
</linearGradient>
</defs>
</svg>
