<svg width="36" height="36" viewBox="0 0 36 36" fill="none" xmlns="http://www.w3.org/2000/svg">
<path d="M15.2198 7H9.05495C8.51013 7.00063 7.98781 7.22064 7.60257 7.61174C7.21733 8.00285 7.00062 8.53313 7 9.08624V15.345C7.00062 15.8981 7.21733 16.4284 7.60257 16.8195C7.98781 17.2106 8.51013 17.4306 9.05495 17.4312H15.2198C15.7646 17.4306 16.2869 17.2106 16.6722 16.8195C17.0574 16.4284 17.2741 15.8981 17.2747 15.345V9.08624C17.2741 8.53313 17.0574 8.00285 16.6722 7.61174C16.2869 7.22064 15.7646 7.00063 15.2198 7ZM15.2198 15.345H9.05495V9.08624H15.2198L15.221 15.345H15.2198Z" fill="#060C28"/>
<path d="M15.2198 19.5239H9.05495C8.51013 19.5246 7.98781 19.7446 7.60257 20.1357C7.21733 20.5268 7.00062 21.0571 7 21.6102V27.8689C7.00062 28.422 7.21733 28.9523 7.60257 29.3434C7.98781 29.7345 8.51013 29.9545 9.05495 29.9551H15.2198C15.7646 29.9545 16.2869 29.7345 16.6722 29.3434C17.0574 28.9523 17.2741 28.422 17.2747 27.8689V21.6102C17.2741 21.0571 17.0574 20.5268 16.6722 20.1357C16.2869 19.7446 15.7646 19.5246 15.2198 19.5239ZM15.2198 27.8689H9.05495V21.6102H15.2198L15.221 27.8689H15.2198Z" fill="#060C28"/>
<path d="M27.5499 7H21.385C20.8402 7.00063 20.3179 7.22064 19.9326 7.61174C19.5474 8.00285 19.3307 8.53313 19.3301 9.08624V15.345C19.3307 15.8981 19.5474 16.4284 19.9326 16.8195C20.3179 17.2106 20.8402 17.4306 21.385 17.4312H27.5499C28.0947 17.4306 28.617 17.2106 29.0023 16.8195C29.3875 16.4284 29.6042 15.8981 29.6048 15.345V9.08624C29.6042 8.53313 29.3875 8.00285 29.0023 7.61174C28.617 7.22064 28.0947 7.00063 27.5499 7ZM27.5499 15.345H21.385V9.08624H27.5499L27.5511 15.345H27.5499Z" fill="#060C28"/>
<path d="M20.3566 25.7825C20.6291 25.7825 20.8904 25.6726 21.0831 25.477C21.2758 25.2814 21.384 25.0161 21.3841 24.7394V20.5669C21.3841 20.2903 21.2758 20.0249 21.0831 19.8293C20.8904 19.6337 20.6291 19.5238 20.3566 19.5238C20.0841 19.5238 19.8227 19.6337 19.63 19.8293C19.4374 20.0249 19.3291 20.2903 19.3291 20.5669V24.7394C19.3291 25.0161 19.4374 25.2814 19.6301 25.477C19.8227 25.6726 20.0841 25.7825 20.3566 25.7825Z" fill="#EA262A"/>
<path d="M28.5764 21.61H25.4939V20.5669C25.4939 20.2903 25.3857 20.0249 25.193 19.8293C25.0003 19.6337 24.739 19.5238 24.4665 19.5238C24.194 19.5238 23.9326 19.6337 23.7399 19.8293C23.5472 20.0249 23.439 20.2903 23.439 20.5669V27.8688H20.3566C20.0841 27.8688 19.8227 27.9787 19.63 28.1743C19.4374 28.3699 19.3291 28.6352 19.3291 28.9119C19.3291 29.1885 19.4374 29.4539 19.63 29.6495C19.8227 29.8451 20.0841 29.955 20.3566 29.955H24.4665C24.739 29.955 25.0003 29.8451 25.193 29.6495C25.3857 29.4539 25.4939 29.1885 25.4939 28.9119V23.6963H28.5764C28.8489 23.6963 29.1102 23.5864 29.3029 23.3908C29.4956 23.1951 29.6038 22.9298 29.6038 22.6532C29.6038 22.3765 29.4956 22.1112 29.3029 21.9156C29.1102 21.7199 28.8489 21.61 28.5764 21.61Z" fill="#EA262A"/>
<path d="M28.5773 25.7777C28.3048 25.7777 28.0434 25.8876 27.8508 26.0832C27.6581 26.2789 27.5498 26.5442 27.5498 26.8208V28.9071C27.5498 29.1837 27.6581 29.449 27.8507 29.6447C28.0434 29.8403 28.3048 29.9502 28.5773 29.9502C28.8498 29.9502 29.1111 29.8403 29.3038 29.6447C29.4965 29.449 29.6048 29.1837 29.6048 28.9071V26.8208C29.6047 26.5442 29.4965 26.2789 29.3038 26.0832C29.1111 25.8876 28.8498 25.7777 28.5773 25.7777Z" fill="#EA262A"/>
</svg>
