<svg width="26" height="14" viewBox="0 0 26 14" fill="none" xmlns="http://www.w3.org/2000/svg">
<path d="M24.8157 6.46019H22.7017C21.8878 6.46019 21.1469 5.70647 21.1162 4.85473L21.6447 4.83643C21.6637 5.39419 22.1732 5.92181 22.7017 5.92181H24.8157L24.8157 6.46019Z" fill="#1360D2"/>
<path d="M24.8157 6.46019H22.7017C21.8878 6.46019 21.1469 5.70647 21.1162 4.85473L21.6447 4.83643C21.6637 5.39419 22.1732 5.92181 22.7017 5.92181H24.8157L24.8157 6.46019Z" fill="black" fill-opacity="0.2"/>
<path d="M24.8157 6.46019H22.7017C21.8878 6.46019 21.1469 5.70647 21.1162 4.85473L21.6447 4.83643C21.6637 5.39419 22.1732 5.92181 22.7017 5.92181H24.8157L24.8157 6.46019Z" fill="black" fill-opacity="0.2"/>
<path d="M24.8157 6.46019H22.7017C21.8878 6.46019 21.1469 5.70647 21.1162 4.85473L21.6447 4.83643C21.6637 5.39419 22.1732 5.92181 22.7017 5.92181H24.8157L24.8157 6.46019Z" fill="black" fill-opacity="0.2"/>
<path d="M24.8157 6.46019H22.7017C21.8878 6.46019 21.1469 5.70647 21.1162 4.85473L21.6447 4.83643C21.6637 5.39419 22.1732 5.92181 22.7017 5.92181H24.8157L24.8157 6.46019Z" fill="black" fill-opacity="0.2"/>
<path d="M24.8157 6.46019H22.7017C21.8878 6.46019 21.1469 5.70647 21.1162 4.85473L21.6447 4.83643C21.6637 5.39419 22.1732 5.92181 22.7017 5.92181H24.8157L24.8157 6.46019Z" fill="black" fill-opacity="0.2"/>
<path d="M24.8157 6.46019H22.7017C21.8878 6.46019 21.1469 5.70647 21.1162 4.85473L21.6447 4.83643C21.6637 5.39419 22.1732 5.92181 22.7017 5.92181H24.8157L24.8157 6.46019Z" fill="black" fill-opacity="0.2"/>
<path d="M10.041 5.37988H11.097V5.91826H10.041V5.37988Z" fill="#1360D2"/>
<path d="M10.041 5.37988H11.097V5.91826H10.041V5.37988Z" fill="black" fill-opacity="0.2"/>
<path d="M10.041 5.37988H11.097V5.91826H10.041V5.37988Z" fill="black" fill-opacity="0.2"/>
<path d="M10.041 5.37988H11.097V5.91826H10.041V5.37988Z" fill="black" fill-opacity="0.2"/>
<path d="M10.041 5.37988H11.097V5.91826H10.041V5.37988Z" fill="black" fill-opacity="0.2"/>
<path d="M10.041 5.37988H11.097V5.91826H10.041V5.37988Z" fill="black" fill-opacity="0.2"/>
<path d="M10.041 5.37988H11.097V5.91826H10.041V5.37988Z" fill="black" fill-opacity="0.2"/>
<path d="M7.92578 5.37988H8.98172V5.91826H7.92578V5.37988Z" fill="#1360D2"/>
<path d="M7.92578 5.37988H8.98172V5.91826H7.92578V5.37988Z" fill="black" fill-opacity="0.2"/>
<path d="M7.92578 5.37988H8.98172V5.91826H7.92578V5.37988Z" fill="black" fill-opacity="0.2"/>
<path d="M7.92578 5.37988H8.98172V5.91826H7.92578V5.37988Z" fill="black" fill-opacity="0.2"/>
<path d="M7.92578 5.37988H8.98172V5.91826H7.92578V5.37988Z" fill="black" fill-opacity="0.2"/>
<path d="M7.92578 5.37988H8.98172V5.91826H7.92578V5.37988Z" fill="black" fill-opacity="0.2"/>
<path d="M7.92578 5.37988H8.98172V5.91826H7.92578V5.37988Z" fill="black" fill-opacity="0.2"/>
<path d="M5.81445 5.37988H6.87039V5.91826H5.81445V5.37988Z" fill="#1360D2"/>
<path d="M5.81445 5.37988H6.87039V5.91826H5.81445V5.37988Z" fill="black" fill-opacity="0.2"/>
<path d="M5.81445 5.37988H6.87039V5.91826H5.81445V5.37988Z" fill="black" fill-opacity="0.2"/>
<path d="M5.81445 5.37988H6.87039V5.91826H5.81445V5.37988Z" fill="black" fill-opacity="0.2"/>
<path d="M5.81445 5.37988H6.87039V5.91826H5.81445V5.37988Z" fill="black" fill-opacity="0.2"/>
<path d="M5.81445 5.37988H6.87039V5.91826H5.81445V5.37988Z" fill="black" fill-opacity="0.2"/>
<path d="M5.81445 5.37988H6.87039V5.91826H5.81445V5.37988Z" fill="black" fill-opacity="0.2"/>
<path d="M12.1533 5.37988H13.2093V5.91826H12.1533V5.37988Z" fill="#1360D2"/>
<path d="M12.1533 5.37988H13.2093V5.91826H12.1533V5.37988Z" fill="black" fill-opacity="0.2"/>
<path d="M12.1533 5.37988H13.2093V5.91826H12.1533V5.37988Z" fill="black" fill-opacity="0.2"/>
<path d="M12.1533 5.37988H13.2093V5.91826H12.1533V5.37988Z" fill="black" fill-opacity="0.2"/>
<path d="M12.1533 5.37988H13.2093V5.91826H12.1533V5.37988Z" fill="black" fill-opacity="0.2"/>
<path d="M12.1533 5.37988H13.2093V5.91826H12.1533V5.37988Z" fill="black" fill-opacity="0.2"/>
<path d="M12.1533 5.37988H13.2093V5.91826H12.1533V5.37988Z" fill="black" fill-opacity="0.2"/>
<path d="M14.2686 5.37988H15.3245V5.91826H14.2686V5.37988Z" fill="#1360D2"/>
<path d="M14.2686 5.37988H15.3245V5.91826H14.2686V5.37988Z" fill="black" fill-opacity="0.2"/>
<path d="M14.2686 5.37988H15.3245V5.91826H14.2686V5.37988Z" fill="black" fill-opacity="0.2"/>
<path d="M14.2686 5.37988H15.3245V5.91826H14.2686V5.37988Z" fill="black" fill-opacity="0.2"/>
<path d="M14.2686 5.37988H15.3245V5.91826H14.2686V5.37988Z" fill="black" fill-opacity="0.2"/>
<path d="M14.2686 5.37988H15.3245V5.91826H14.2686V5.37988Z" fill="black" fill-opacity="0.2"/>
<path d="M14.2686 5.37988H15.3245V5.91826H14.2686V5.37988Z" fill="black" fill-opacity="0.2"/>
<path d="M16.3818 5.37988H17.4378V5.91826H16.3818V5.37988Z" fill="#1360D2"/>
<path d="M16.3818 5.37988H17.4378V5.91826H16.3818V5.37988Z" fill="black" fill-opacity="0.2"/>
<path d="M16.3818 5.37988H17.4378V5.91826H16.3818V5.37988Z" fill="black" fill-opacity="0.2"/>
<path d="M16.3818 5.37988H17.4378V5.91826H16.3818V5.37988Z" fill="black" fill-opacity="0.2"/>
<path d="M16.3818 5.37988H17.4378V5.91826H16.3818V5.37988Z" fill="black" fill-opacity="0.2"/>
<path d="M16.3818 5.37988H17.4378V5.91826H16.3818V5.37988Z" fill="black" fill-opacity="0.2"/>
<path d="M16.3818 5.37988H17.4378V5.91826H16.3818V5.37988Z" fill="black" fill-opacity="0.2"/>
<path d="M18.4951 5.37988H19.5511V5.91826H18.4951V5.37988Z" fill="#1360D2"/>
<path d="M18.4951 5.37988H19.5511V5.91826H18.4951V5.37988Z" fill="black" fill-opacity="0.2"/>
<path d="M18.4951 5.37988H19.5511V5.91826H18.4951V5.37988Z" fill="black" fill-opacity="0.2"/>
<path d="M18.4951 5.37988H19.5511V5.91826H18.4951V5.37988Z" fill="black" fill-opacity="0.2"/>
<path d="M18.4951 5.37988H19.5511V5.91826H18.4951V5.37988Z" fill="black" fill-opacity="0.2"/>
<path d="M18.4951 5.37988H19.5511V5.91826H18.4951V5.37988Z" fill="black" fill-opacity="0.2"/>
<path d="M18.4951 5.37988H19.5511V5.91826H18.4951V5.37988Z" fill="black" fill-opacity="0.2"/>
<path d="M25.3641 7.44235C25.3633 7.26981 25.3195 7.10031 25.2369 6.94969C25.1543 6.79908 25.0355 6.67225 24.8917 6.58107L21.3016 4.30832H7.39746V3.77002H21.4537L25.1728 6.11921C25.3934 6.25917 25.5753 6.45414 25.7012 6.68568C25.8271 6.91722 25.893 7.17767 25.8926 7.44238L25.3641 7.44235Z" fill="#1360D2"/>
<path d="M25.3641 7.44235C25.3633 7.26981 25.3195 7.10031 25.2369 6.94969C25.1543 6.79908 25.0355 6.67225 24.8917 6.58107L21.3016 4.30832H7.39746V3.77002H21.4537L25.1728 6.11921C25.3934 6.25917 25.5753 6.45414 25.7012 6.68568C25.8271 6.91722 25.893 7.17767 25.8926 7.44238L25.3641 7.44235Z" fill="black" fill-opacity="0.2"/>
<path d="M25.3641 7.44235C25.3633 7.26981 25.3195 7.10031 25.2369 6.94969C25.1543 6.79908 25.0355 6.67225 24.8917 6.58107L21.3016 4.30832H7.39746V3.77002H21.4537L25.1728 6.11921C25.3934 6.25917 25.5753 6.45414 25.7012 6.68568C25.8271 6.91722 25.893 7.17767 25.8926 7.44238L25.3641 7.44235Z" fill="black" fill-opacity="0.2"/>
<path d="M25.3641 7.44235C25.3633 7.26981 25.3195 7.10031 25.2369 6.94969C25.1543 6.79908 25.0355 6.67225 24.8917 6.58107L21.3016 4.30832H7.39746V3.77002H21.4537L25.1728 6.11921C25.3934 6.25917 25.5753 6.45414 25.7012 6.68568C25.8271 6.91722 25.893 7.17767 25.8926 7.44238L25.3641 7.44235Z" fill="black" fill-opacity="0.2"/>
<path d="M25.3641 7.44235C25.3633 7.26981 25.3195 7.10031 25.2369 6.94969C25.1543 6.79908 25.0355 6.67225 24.8917 6.58107L21.3016 4.30832H7.39746V3.77002H21.4537L25.1728 6.11921C25.3934 6.25917 25.5753 6.45414 25.7012 6.68568C25.8271 6.91722 25.893 7.17767 25.8926 7.44238L25.3641 7.44235Z" fill="black" fill-opacity="0.2"/>
<path d="M25.3641 7.44235C25.3633 7.26981 25.3195 7.10031 25.2369 6.94969C25.1543 6.79908 25.0355 6.67225 24.8917 6.58107L21.3016 4.30832H7.39746V3.77002H21.4537L25.1728 6.11921C25.3934 6.25917 25.5753 6.45414 25.7012 6.68568C25.8271 6.91722 25.893 7.17767 25.8926 7.44238L25.3641 7.44235Z" fill="black" fill-opacity="0.2"/>
<path d="M25.3641 7.44235C25.3633 7.26981 25.3195 7.10031 25.2369 6.94969C25.1543 6.79908 25.0355 6.67225 24.8917 6.58107L21.3016 4.30832H7.39746V3.77002H21.4537L25.1728 6.11921C25.3934 6.25917 25.5753 6.45414 25.7012 6.68568C25.8271 6.91722 25.893 7.17767 25.8926 7.44238L25.3641 7.44235Z" fill="black" fill-opacity="0.2"/>
<path d="M12.4625 0.0410156H10.1836L12.527 2.90519L12.9329 2.56064L11.3125 0.579382H12.3114L12.4625 0.0410156Z" fill="#1360D2"/>
<path d="M12.4625 0.0410156H10.1836L12.527 2.90519L12.9329 2.56064L11.3125 0.579382H12.3114L12.4625 0.0410156Z" fill="black" fill-opacity="0.2"/>
<path d="M12.4625 0.0410156H10.1836L12.527 2.90519L12.9329 2.56064L11.3125 0.579382H12.3114L12.4625 0.0410156Z" fill="black" fill-opacity="0.2"/>
<path d="M12.4625 0.0410156H10.1836L12.527 2.90519L12.9329 2.56064L11.3125 0.579382H12.3114L12.4625 0.0410156Z" fill="black" fill-opacity="0.2"/>
<path d="M12.4625 0.0410156H10.1836L12.527 2.90519L12.9329 2.56064L11.3125 0.579382H12.3114L12.4625 0.0410156Z" fill="black" fill-opacity="0.2"/>
<path d="M12.4625 0.0410156H10.1836L12.527 2.90519L12.9329 2.56064L11.3125 0.579382H12.3114L12.4625 0.0410156Z" fill="black" fill-opacity="0.2"/>
<path d="M12.4625 0.0410156H10.1836L12.527 2.90519L12.9329 2.56064L11.3125 0.579382H12.3114L12.4625 0.0410156Z" fill="black" fill-opacity="0.2"/>
<path d="M11.0134 13.4564H10.0748L12.8759 10.0753L12.471 9.72754L8.9375 13.9948H11.1688L11.0134 13.4564Z" fill="#1360D2"/>
<path d="M11.0134 13.4564H10.0748L12.8759 10.0753L12.471 9.72754L8.9375 13.9948H11.1688L11.0134 13.4564Z" fill="black" fill-opacity="0.2"/>
<path d="M11.0134 13.4564H10.0748L12.8759 10.0753L12.471 9.72754L8.9375 13.9948H11.1688L11.0134 13.4564Z" fill="black" fill-opacity="0.2"/>
<path d="M11.0134 13.4564H10.0748L12.8759 10.0753L12.471 9.72754L8.9375 13.9948H11.1688L11.0134 13.4564Z" fill="black" fill-opacity="0.2"/>
<path d="M11.0134 13.4564H10.0748L12.8759 10.0753L12.471 9.72754L8.9375 13.9948H11.1688L11.0134 13.4564Z" fill="black" fill-opacity="0.2"/>
<path d="M11.0134 13.4564H10.0748L12.8759 10.0753L12.471 9.72754L8.9375 13.9948H11.1688L11.0134 13.4564Z" fill="black" fill-opacity="0.2"/>
<path d="M11.0134 13.4564H10.0748L12.8759 10.0753L12.471 9.72754L8.9375 13.9948H11.1688L11.0134 13.4564Z" fill="black" fill-opacity="0.2"/>
<path d="M11.0137 13.4626L18.3843 8.6167L19.3576 8.6178L11.169 14.0009L11.0137 13.4626Z" fill="#1360D2"/>
<path d="M11.0137 13.4626L18.3843 8.6167L19.3576 8.6178L11.169 14.0009L11.0137 13.4626Z" fill="black" fill-opacity="0.2"/>
<path d="M11.0137 13.4626L18.3843 8.6167L19.3576 8.6178L11.169 14.0009L11.0137 13.4626Z" fill="black" fill-opacity="0.2"/>
<path d="M11.0137 13.4626L18.3843 8.6167L19.3576 8.6178L11.169 14.0009L11.0137 13.4626Z" fill="black" fill-opacity="0.2"/>
<path d="M11.0137 13.4626L18.3843 8.6167L19.3576 8.6178L11.169 14.0009L11.0137 13.4626Z" fill="black" fill-opacity="0.2"/>
<path d="M11.0137 13.4626L18.3843 8.6167L19.3576 8.6178L11.169 14.0009L11.0137 13.4626Z" fill="black" fill-opacity="0.2"/>
<path d="M11.0137 13.4626L18.3843 8.6167L19.3576 8.6178L11.169 14.0009L11.0137 13.4626Z" fill="black" fill-opacity="0.2"/>
<path d="M18.3285 3.76878L12.4621 0.0410156H11.8428V0.579383H12.311L17.3296 3.76878H18.3285Z" fill="#1360D2"/>
<path d="M18.3285 3.76878L12.4621 0.0410156H11.8428V0.579383H12.311L17.3296 3.76878H18.3285Z" fill="black" fill-opacity="0.2"/>
<path d="M18.3285 3.76878L12.4621 0.0410156H11.8428V0.579383H12.311L17.3296 3.76878H18.3285Z" fill="black" fill-opacity="0.2"/>
<path d="M18.3285 3.76878L12.4621 0.0410156H11.8428V0.579383H12.311L17.3296 3.76878H18.3285Z" fill="black" fill-opacity="0.2"/>
<path d="M18.3285 3.76878L12.4621 0.0410156H11.8428V0.579383H12.311L17.3296 3.76878H18.3285Z" fill="black" fill-opacity="0.2"/>
<path d="M18.3285 3.76878L12.4621 0.0410156H11.8428V0.579383H12.311L17.3296 3.76878H18.3285Z" fill="black" fill-opacity="0.2"/>
<path d="M18.3285 3.76878L12.4621 0.0410156H11.8428V0.579383H12.311L17.3296 3.76878H18.3285Z" fill="black" fill-opacity="0.2"/>
<path d="M25.8431 7.04785H25.2861C25.3373 7.17232 25.3639 7.30586 25.3643 7.44082C25.3643 7.60899 25.2987 7.77028 25.182 7.88919C25.0652 8.0081 24.9069 8.0749 24.7418 8.0749H15.8525V8.6132H24.7429C25.0479 8.61291 25.3404 8.48926 25.556 8.26942C25.7716 8.04957 25.8927 7.75152 25.8927 7.44075C25.8926 7.30817 25.8759 7.17614 25.8431 7.04785Z" fill="#1360D2"/>
<path d="M25.8431 7.04785H25.2861C25.3373 7.17232 25.3639 7.30586 25.3643 7.44082C25.3643 7.60899 25.2987 7.77028 25.182 7.88919C25.0652 8.0081 24.9069 8.0749 24.7418 8.0749H15.8525V8.6132H24.7429C25.0479 8.61291 25.3404 8.48926 25.556 8.26942C25.7716 8.04957 25.8927 7.75152 25.8927 7.44075C25.8926 7.30817 25.8759 7.17614 25.8431 7.04785Z" fill="black" fill-opacity="0.2"/>
<path d="M25.8431 7.04785H25.2861C25.3373 7.17232 25.3639 7.30586 25.3643 7.44082C25.3643 7.60899 25.2987 7.77028 25.182 7.88919C25.0652 8.0081 24.9069 8.0749 24.7418 8.0749H15.8525V8.6132H24.7429C25.0479 8.61291 25.3404 8.48926 25.556 8.26942C25.7716 8.04957 25.8927 7.75152 25.8927 7.44075C25.8926 7.30817 25.8759 7.17614 25.8431 7.04785Z" fill="black" fill-opacity="0.2"/>
<path d="M25.8431 7.04785H25.2861C25.3373 7.17232 25.3639 7.30586 25.3643 7.44082C25.3643 7.60899 25.2987 7.77028 25.182 7.88919C25.0652 8.0081 24.9069 8.0749 24.7418 8.0749H15.8525V8.6132H24.7429C25.0479 8.61291 25.3404 8.48926 25.556 8.26942C25.7716 8.04957 25.8927 7.75152 25.8927 7.44075C25.8926 7.30817 25.8759 7.17614 25.8431 7.04785Z" fill="black" fill-opacity="0.2"/>
<path d="M25.8431 7.04785H25.2861C25.3373 7.17232 25.3639 7.30586 25.3643 7.44082C25.3643 7.60899 25.2987 7.77028 25.182 7.88919C25.0652 8.0081 24.9069 8.0749 24.7418 8.0749H15.8525V8.6132H24.7429C25.0479 8.61291 25.3404 8.48926 25.556 8.26942C25.7716 8.04957 25.8927 7.75152 25.8927 7.44075C25.8926 7.30817 25.8759 7.17614 25.8431 7.04785Z" fill="black" fill-opacity="0.2"/>
<path d="M25.8431 7.04785H25.2861C25.3373 7.17232 25.3639 7.30586 25.3643 7.44082C25.3643 7.60899 25.2987 7.77028 25.182 7.88919C25.0652 8.0081 24.9069 8.0749 24.7418 8.0749H15.8525V8.6132H24.7429C25.0479 8.61291 25.3404 8.48926 25.556 8.26942C25.7716 8.04957 25.8927 7.75152 25.8927 7.44075C25.8926 7.30817 25.8759 7.17614 25.8431 7.04785Z" fill="black" fill-opacity="0.2"/>
<path d="M25.8431 7.04785H25.2861C25.3373 7.17232 25.3639 7.30586 25.3643 7.44082C25.3643 7.60899 25.2987 7.77028 25.182 7.88919C25.0652 8.0081 24.9069 8.0749 24.7418 8.0749H15.8525V8.6132H24.7429C25.0479 8.61291 25.3404 8.48926 25.556 8.26942C25.7716 8.04957 25.8927 7.75152 25.8927 7.44075C25.8926 7.30817 25.8759 7.17614 25.8431 7.04785Z" fill="black" fill-opacity="0.2"/>
<path d="M1.58691 0H1.96214L7.44693 3.81605L7.14887 4.26075L1.79939 0.538368H1.65141L1.58691 0Z" fill="#1360D2"/>
<path d="M1.58691 0H1.96214L7.44693 3.81605L7.14887 4.26075L1.79939 0.538368H1.65141L1.58691 0Z" fill="black" fill-opacity="0.2"/>
<path d="M1.58691 0H1.96214L7.44693 3.81605L7.14887 4.26075L1.79939 0.538368H1.65141L1.58691 0Z" fill="black" fill-opacity="0.2"/>
<path d="M1.58691 0H1.96214L7.44693 3.81605L7.14887 4.26075L1.79939 0.538368H1.65141L1.58691 0Z" fill="black" fill-opacity="0.2"/>
<path d="M1.58691 0H1.96214L7.44693 3.81605L7.14887 4.26075L1.79939 0.538368H1.65141L1.58691 0Z" fill="black" fill-opacity="0.2"/>
<path d="M1.58691 0H1.96214L7.44693 3.81605L7.14887 4.26075L1.79939 0.538368H1.65141L1.58691 0Z" fill="black" fill-opacity="0.2"/>
<path d="M1.58691 0H1.96214L7.44693 3.81605L7.14887 4.26075L1.79939 0.538368H1.65141L1.58691 0Z" fill="black" fill-opacity="0.2"/>
<path d="M4.1572 4.3081L3.03886 3.76974L0 0.00110154L1.58654 0H1.96176L1.79902 0.538368H1.65104H1.11727L3.93836 4.03678L4.1572 4.3081Z" fill="#1360D2"/>
<path d="M4.1572 4.3081L3.03886 3.76974L0 0.00110154L1.58654 0H1.96176L1.79902 0.538368H1.65104H1.11727L3.93836 4.03678L4.1572 4.3081Z" fill="black" fill-opacity="0.2"/>
<path d="M4.1572 4.3081L3.03886 3.76974L0 0.00110154L1.58654 0H1.96176L1.79902 0.538368H1.65104H1.11727L3.93836 4.03678L4.1572 4.3081Z" fill="black" fill-opacity="0.2"/>
<path d="M4.1572 4.3081L3.03886 3.76974L0 0.00110154L1.58654 0H1.96176L1.79902 0.538368H1.65104H1.11727L3.93836 4.03678L4.1572 4.3081Z" fill="black" fill-opacity="0.2"/>
<path d="M4.1572 4.3081L3.03886 3.76974L0 0.00110154L1.58654 0H1.96176L1.79902 0.538368H1.65104H1.11727L3.93836 4.03678L4.1572 4.3081Z" fill="black" fill-opacity="0.2"/>
<path d="M4.1572 4.3081L3.03886 3.76974L0 0.00110154L1.58654 0H1.96176L1.79902 0.538368H1.65104H1.11727L3.93836 4.03678L4.1572 4.3081Z" fill="black" fill-opacity="0.2"/>
<path d="M4.1572 4.3081L3.03886 3.76974L0 0.00110154L1.58654 0H1.96176L1.79902 0.538368H1.65104H1.11727L3.93836 4.03678L4.1572 4.3081Z" fill="black" fill-opacity="0.2"/>
<path d="M4.15691 4.31181H0.426758V3.77344H3.03856L3.93807 4.04048L4.15691 4.31181Z" fill="#1360D2"/>
<path d="M4.15691 4.31181H0.426758V3.77344H3.03856L3.93807 4.04048L4.15691 4.31181Z" fill="black" fill-opacity="0.2"/>
<path d="M4.15691 4.31181H0.426758V3.77344H3.03856L3.93807 4.04048L4.15691 4.31181Z" fill="black" fill-opacity="0.2"/>
<path d="M4.15691 4.31181H0.426758V3.77344H3.03856L3.93807 4.04048L4.15691 4.31181Z" fill="black" fill-opacity="0.2"/>
<path d="M4.15691 4.31181H0.426758V3.77344H3.03856L3.93807 4.04048L4.15691 4.31181Z" fill="black" fill-opacity="0.2"/>
<path d="M4.15691 4.31181H0.426758V3.77344H3.03856L3.93807 4.04048L4.15691 4.31181Z" fill="black" fill-opacity="0.2"/>
<path d="M4.15691 4.31181H0.426758V3.77344H3.03856L3.93807 4.04048L4.15691 4.31181Z" fill="black" fill-opacity="0.2"/>
<path d="M13.9916 8.60605L8.94189 8.59957L8.91337 8.59314L3.10059 7.26569L3.21684 6.74023L9.00103 8.06127L13.9916 8.06775V8.60605Z" fill="#1360D2"/>
<path d="M13.9916 8.60605L8.94189 8.59957L8.91337 8.59314L3.10059 7.26569L3.21684 6.74023L9.00103 8.06127L13.9916 8.06775V8.60605Z" fill="black" fill-opacity="0.2"/>
<path d="M13.9916 8.60605L8.94189 8.59957L8.91337 8.59314L3.10059 7.26569L3.21684 6.74023L9.00103 8.06127L13.9916 8.06775V8.60605Z" fill="black" fill-opacity="0.2"/>
<path d="M13.9916 8.60605L8.94189 8.59957L8.91337 8.59314L3.10059 7.26569L3.21684 6.74023L9.00103 8.06127L13.9916 8.06775V8.60605Z" fill="black" fill-opacity="0.2"/>
<path d="M13.9916 8.60605L8.94189 8.59957L8.91337 8.59314L3.10059 7.26569L3.21684 6.74023L9.00103 8.06127L13.9916 8.06775V8.60605Z" fill="black" fill-opacity="0.2"/>
<path d="M13.9916 8.60605L8.94189 8.59957L8.91337 8.59314L3.10059 7.26569L3.21684 6.74023L9.00103 8.06127L13.9916 8.06775V8.60605Z" fill="black" fill-opacity="0.2"/>
<path d="M13.9916 8.60605L8.94189 8.59957L8.91337 8.59314L3.10059 7.26569L3.21684 6.74023L9.00103 8.06127L13.9916 8.06775V8.60605Z" fill="black" fill-opacity="0.2"/>
<path d="M24.8157 6.46019H22.7017C21.8878 6.46019 21.1469 5.70647 21.1162 4.85473L21.6447 4.83643C21.6637 5.39419 22.1732 5.92181 22.7017 5.92181H24.8157L24.8157 6.46019Z" fill="#1360D2"/>
<path d="M24.8157 6.46019H22.7017C21.8878 6.46019 21.1469 5.70647 21.1162 4.85473L21.6447 4.83643C21.6637 5.39419 22.1732 5.92181 22.7017 5.92181H24.8157L24.8157 6.46019Z" fill="black" fill-opacity="0.2"/>
<path d="M24.8157 6.46019H22.7017C21.8878 6.46019 21.1469 5.70647 21.1162 4.85473L21.6447 4.83643C21.6637 5.39419 22.1732 5.92181 22.7017 5.92181H24.8157L24.8157 6.46019Z" fill="black" fill-opacity="0.2"/>
<path d="M24.8157 6.46019H22.7017C21.8878 6.46019 21.1469 5.70647 21.1162 4.85473L21.6447 4.83643C21.6637 5.39419 22.1732 5.92181 22.7017 5.92181H24.8157L24.8157 6.46019Z" fill="black" fill-opacity="0.2"/>
<path d="M24.8157 6.46019H22.7017C21.8878 6.46019 21.1469 5.70647 21.1162 4.85473L21.6447 4.83643C21.6637 5.39419 22.1732 5.92181 22.7017 5.92181H24.8157L24.8157 6.46019Z" fill="black" fill-opacity="0.2"/>
<path d="M24.8157 6.46019H22.7017C21.8878 6.46019 21.1469 5.70647 21.1162 4.85473L21.6447 4.83643C21.6637 5.39419 22.1732 5.92181 22.7017 5.92181H24.8157L24.8157 6.46019Z" fill="black" fill-opacity="0.2"/>
<path d="M24.8157 6.46019H22.7017C21.8878 6.46019 21.1469 5.70647 21.1162 4.85473L21.6447 4.83643C21.6637 5.39419 22.1732 5.92181 22.7017 5.92181H24.8157L24.8157 6.46019Z" fill="black" fill-opacity="0.2"/>
<path d="M10.041 5.37988H11.097V5.91826H10.041V5.37988Z" fill="url(#paint0_linear_1542_52036)"/>
<path d="M7.92578 5.37988H8.98172V5.91826H7.92578V5.37988Z" fill="url(#paint1_linear_1542_52036)"/>
<path d="M5.81445 5.37988H6.87039V5.91826H5.81445V5.37988Z" fill="url(#paint2_linear_1542_52036)"/>
<path d="M12.1533 5.37988H13.2093V5.91826H12.1533V5.37988Z" fill="url(#paint3_linear_1542_52036)"/>
<path d="M14.2686 5.37988H15.3245V5.91826H14.2686V5.37988Z" fill="url(#paint4_linear_1542_52036)"/>
<path d="M16.3818 5.37988H17.4378V5.91826H16.3818V5.37988Z" fill="url(#paint5_linear_1542_52036)"/>
<path d="M18.4951 5.37988H19.5511V5.91826H18.4951V5.37988Z" fill="url(#paint6_linear_1542_52036)"/>
<path d="M25.3641 7.44235C25.3633 7.26981 25.3195 7.10031 25.2369 6.94969C25.1543 6.79908 25.0355 6.67225 24.8917 6.58107L21.3016 4.30832H7.39746V3.77002H21.4537L25.1728 6.11921C25.3934 6.25917 25.5753 6.45414 25.7012 6.68568C25.8271 6.91722 25.893 7.17767 25.8926 7.44238L25.3641 7.44235Z" fill="#1360D2"/>
<path d="M25.3641 7.44235C25.3633 7.26981 25.3195 7.10031 25.2369 6.94969C25.1543 6.79908 25.0355 6.67225 24.8917 6.58107L21.3016 4.30832H7.39746V3.77002H21.4537L25.1728 6.11921C25.3934 6.25917 25.5753 6.45414 25.7012 6.68568C25.8271 6.91722 25.893 7.17767 25.8926 7.44238L25.3641 7.44235Z" fill="black" fill-opacity="0.2"/>
<path d="M25.3641 7.44235C25.3633 7.26981 25.3195 7.10031 25.2369 6.94969C25.1543 6.79908 25.0355 6.67225 24.8917 6.58107L21.3016 4.30832H7.39746V3.77002H21.4537L25.1728 6.11921C25.3934 6.25917 25.5753 6.45414 25.7012 6.68568C25.8271 6.91722 25.893 7.17767 25.8926 7.44238L25.3641 7.44235Z" fill="black" fill-opacity="0.2"/>
<path d="M25.3641 7.44235C25.3633 7.26981 25.3195 7.10031 25.2369 6.94969C25.1543 6.79908 25.0355 6.67225 24.8917 6.58107L21.3016 4.30832H7.39746V3.77002H21.4537L25.1728 6.11921C25.3934 6.25917 25.5753 6.45414 25.7012 6.68568C25.8271 6.91722 25.893 7.17767 25.8926 7.44238L25.3641 7.44235Z" fill="black" fill-opacity="0.2"/>
<path d="M25.3641 7.44235C25.3633 7.26981 25.3195 7.10031 25.2369 6.94969C25.1543 6.79908 25.0355 6.67225 24.8917 6.58107L21.3016 4.30832H7.39746V3.77002H21.4537L25.1728 6.11921C25.3934 6.25917 25.5753 6.45414 25.7012 6.68568C25.8271 6.91722 25.893 7.17767 25.8926 7.44238L25.3641 7.44235Z" fill="black" fill-opacity="0.2"/>
<path d="M25.3641 7.44235C25.3633 7.26981 25.3195 7.10031 25.2369 6.94969C25.1543 6.79908 25.0355 6.67225 24.8917 6.58107L21.3016 4.30832H7.39746V3.77002H21.4537L25.1728 6.11921C25.3934 6.25917 25.5753 6.45414 25.7012 6.68568C25.8271 6.91722 25.893 7.17767 25.8926 7.44238L25.3641 7.44235Z" fill="black" fill-opacity="0.2"/>
<path d="M25.3641 7.44235C25.3633 7.26981 25.3195 7.10031 25.2369 6.94969C25.1543 6.79908 25.0355 6.67225 24.8917 6.58107L21.3016 4.30832H7.39746V3.77002H21.4537L25.1728 6.11921C25.3934 6.25917 25.5753 6.45414 25.7012 6.68568C25.8271 6.91722 25.893 7.17767 25.8926 7.44238L25.3641 7.44235Z" fill="black" fill-opacity="0.2"/>
<path d="M12.4625 0.0410156H10.1836L12.527 2.90519L12.9329 2.56064L11.3125 0.579382H12.3114L12.4625 0.0410156Z" fill="#1360D2"/>
<path d="M12.4625 0.0410156H10.1836L12.527 2.90519L12.9329 2.56064L11.3125 0.579382H12.3114L12.4625 0.0410156Z" fill="black" fill-opacity="0.2"/>
<path d="M12.4625 0.0410156H10.1836L12.527 2.90519L12.9329 2.56064L11.3125 0.579382H12.3114L12.4625 0.0410156Z" fill="black" fill-opacity="0.2"/>
<path d="M12.4625 0.0410156H10.1836L12.527 2.90519L12.9329 2.56064L11.3125 0.579382H12.3114L12.4625 0.0410156Z" fill="black" fill-opacity="0.2"/>
<path d="M12.4625 0.0410156H10.1836L12.527 2.90519L12.9329 2.56064L11.3125 0.579382H12.3114L12.4625 0.0410156Z" fill="black" fill-opacity="0.2"/>
<path d="M12.4625 0.0410156H10.1836L12.527 2.90519L12.9329 2.56064L11.3125 0.579382H12.3114L12.4625 0.0410156Z" fill="black" fill-opacity="0.2"/>
<path d="M12.4625 0.0410156H10.1836L12.527 2.90519L12.9329 2.56064L11.3125 0.579382H12.3114L12.4625 0.0410156Z" fill="black" fill-opacity="0.2"/>
<path d="M11.0134 13.4564H10.0748L12.8759 10.0753L12.471 9.72754L8.9375 13.9948H11.1688L11.0134 13.4564Z" fill="#1360D2"/>
<path d="M11.0134 13.4564H10.0748L12.8759 10.0753L12.471 9.72754L8.9375 13.9948H11.1688L11.0134 13.4564Z" fill="black" fill-opacity="0.2"/>
<path d="M11.0134 13.4564H10.0748L12.8759 10.0753L12.471 9.72754L8.9375 13.9948H11.1688L11.0134 13.4564Z" fill="black" fill-opacity="0.2"/>
<path d="M11.0134 13.4564H10.0748L12.8759 10.0753L12.471 9.72754L8.9375 13.9948H11.1688L11.0134 13.4564Z" fill="black" fill-opacity="0.2"/>
<path d="M11.0134 13.4564H10.0748L12.8759 10.0753L12.471 9.72754L8.9375 13.9948H11.1688L11.0134 13.4564Z" fill="black" fill-opacity="0.2"/>
<path d="M11.0134 13.4564H10.0748L12.8759 10.0753L12.471 9.72754L8.9375 13.9948H11.1688L11.0134 13.4564Z" fill="black" fill-opacity="0.2"/>
<path d="M11.0134 13.4564H10.0748L12.8759 10.0753L12.471 9.72754L8.9375 13.9948H11.1688L11.0134 13.4564Z" fill="black" fill-opacity="0.2"/>
<path d="M11.0137 13.4626L18.3843 8.6167L19.3576 8.6178L11.169 14.0009L11.0137 13.4626Z" fill="#1360D2"/>
<path d="M11.0137 13.4626L18.3843 8.6167L19.3576 8.6178L11.169 14.0009L11.0137 13.4626Z" fill="black" fill-opacity="0.2"/>
<path d="M11.0137 13.4626L18.3843 8.6167L19.3576 8.6178L11.169 14.0009L11.0137 13.4626Z" fill="black" fill-opacity="0.2"/>
<path d="M11.0137 13.4626L18.3843 8.6167L19.3576 8.6178L11.169 14.0009L11.0137 13.4626Z" fill="black" fill-opacity="0.2"/>
<path d="M11.0137 13.4626L18.3843 8.6167L19.3576 8.6178L11.169 14.0009L11.0137 13.4626Z" fill="black" fill-opacity="0.2"/>
<path d="M11.0137 13.4626L18.3843 8.6167L19.3576 8.6178L11.169 14.0009L11.0137 13.4626Z" fill="black" fill-opacity="0.2"/>
<path d="M11.0137 13.4626L18.3843 8.6167L19.3576 8.6178L11.169 14.0009L11.0137 13.4626Z" fill="black" fill-opacity="0.2"/>
<path d="M18.3285 3.76878L12.4621 0.0410156H11.8428V0.579383H12.311L17.3296 3.76878H18.3285Z" fill="#1360D2"/>
<path d="M18.3285 3.76878L12.4621 0.0410156H11.8428V0.579383H12.311L17.3296 3.76878H18.3285Z" fill="black" fill-opacity="0.2"/>
<path d="M18.3285 3.76878L12.4621 0.0410156H11.8428V0.579383H12.311L17.3296 3.76878H18.3285Z" fill="black" fill-opacity="0.2"/>
<path d="M18.3285 3.76878L12.4621 0.0410156H11.8428V0.579383H12.311L17.3296 3.76878H18.3285Z" fill="black" fill-opacity="0.2"/>
<path d="M18.3285 3.76878L12.4621 0.0410156H11.8428V0.579383H12.311L17.3296 3.76878H18.3285Z" fill="black" fill-opacity="0.2"/>
<path d="M18.3285 3.76878L12.4621 0.0410156H11.8428V0.579383H12.311L17.3296 3.76878H18.3285Z" fill="black" fill-opacity="0.2"/>
<path d="M18.3285 3.76878L12.4621 0.0410156H11.8428V0.579383H12.311L17.3296 3.76878H18.3285Z" fill="black" fill-opacity="0.2"/>
<path d="M25.8431 7.04785H25.2861C25.3373 7.17232 25.3639 7.30586 25.3643 7.44082C25.3643 7.60899 25.2987 7.77028 25.182 7.88919C25.0652 8.0081 24.9069 8.0749 24.7418 8.0749H15.8525V8.6132H24.7429C25.0479 8.61291 25.3404 8.48926 25.556 8.26942C25.7716 8.04957 25.8927 7.75152 25.8927 7.44075C25.8926 7.30817 25.8759 7.17614 25.8431 7.04785Z" fill="#1360D2"/>
<path d="M25.8431 7.04785H25.2861C25.3373 7.17232 25.3639 7.30586 25.3643 7.44082C25.3643 7.60899 25.2987 7.77028 25.182 7.88919C25.0652 8.0081 24.9069 8.0749 24.7418 8.0749H15.8525V8.6132H24.7429C25.0479 8.61291 25.3404 8.48926 25.556 8.26942C25.7716 8.04957 25.8927 7.75152 25.8927 7.44075C25.8926 7.30817 25.8759 7.17614 25.8431 7.04785Z" fill="black" fill-opacity="0.2"/>
<path d="M25.8431 7.04785H25.2861C25.3373 7.17232 25.3639 7.30586 25.3643 7.44082C25.3643 7.60899 25.2987 7.77028 25.182 7.88919C25.0652 8.0081 24.9069 8.0749 24.7418 8.0749H15.8525V8.6132H24.7429C25.0479 8.61291 25.3404 8.48926 25.556 8.26942C25.7716 8.04957 25.8927 7.75152 25.8927 7.44075C25.8926 7.30817 25.8759 7.17614 25.8431 7.04785Z" fill="black" fill-opacity="0.2"/>
<path d="M25.8431 7.04785H25.2861C25.3373 7.17232 25.3639 7.30586 25.3643 7.44082C25.3643 7.60899 25.2987 7.77028 25.182 7.88919C25.0652 8.0081 24.9069 8.0749 24.7418 8.0749H15.8525V8.6132H24.7429C25.0479 8.61291 25.3404 8.48926 25.556 8.26942C25.7716 8.04957 25.8927 7.75152 25.8927 7.44075C25.8926 7.30817 25.8759 7.17614 25.8431 7.04785Z" fill="black" fill-opacity="0.2"/>
<path d="M25.8431 7.04785H25.2861C25.3373 7.17232 25.3639 7.30586 25.3643 7.44082C25.3643 7.60899 25.2987 7.77028 25.182 7.88919C25.0652 8.0081 24.9069 8.0749 24.7418 8.0749H15.8525V8.6132H24.7429C25.0479 8.61291 25.3404 8.48926 25.556 8.26942C25.7716 8.04957 25.8927 7.75152 25.8927 7.44075C25.8926 7.30817 25.8759 7.17614 25.8431 7.04785Z" fill="black" fill-opacity="0.2"/>
<path d="M25.8431 7.04785H25.2861C25.3373 7.17232 25.3639 7.30586 25.3643 7.44082C25.3643 7.60899 25.2987 7.77028 25.182 7.88919C25.0652 8.0081 24.9069 8.0749 24.7418 8.0749H15.8525V8.6132H24.7429C25.0479 8.61291 25.3404 8.48926 25.556 8.26942C25.7716 8.04957 25.8927 7.75152 25.8927 7.44075C25.8926 7.30817 25.8759 7.17614 25.8431 7.04785Z" fill="black" fill-opacity="0.2"/>
<path d="M25.8431 7.04785H25.2861C25.3373 7.17232 25.3639 7.30586 25.3643 7.44082C25.3643 7.60899 25.2987 7.77028 25.182 7.88919C25.0652 8.0081 24.9069 8.0749 24.7418 8.0749H15.8525V8.6132H24.7429C25.0479 8.61291 25.3404 8.48926 25.556 8.26942C25.7716 8.04957 25.8927 7.75152 25.8927 7.44075C25.8926 7.30817 25.8759 7.17614 25.8431 7.04785Z" fill="black" fill-opacity="0.2"/>
<path d="M1.58691 0H1.96214L7.44693 3.81605L7.14887 4.26075L1.79939 0.538368H1.65141L1.58691 0Z" fill="#1360D2"/>
<path d="M1.58691 0H1.96214L7.44693 3.81605L7.14887 4.26075L1.79939 0.538368H1.65141L1.58691 0Z" fill="black" fill-opacity="0.2"/>
<path d="M1.58691 0H1.96214L7.44693 3.81605L7.14887 4.26075L1.79939 0.538368H1.65141L1.58691 0Z" fill="black" fill-opacity="0.2"/>
<path d="M1.58691 0H1.96214L7.44693 3.81605L7.14887 4.26075L1.79939 0.538368H1.65141L1.58691 0Z" fill="black" fill-opacity="0.2"/>
<path d="M1.58691 0H1.96214L7.44693 3.81605L7.14887 4.26075L1.79939 0.538368H1.65141L1.58691 0Z" fill="black" fill-opacity="0.2"/>
<path d="M1.58691 0H1.96214L7.44693 3.81605L7.14887 4.26075L1.79939 0.538368H1.65141L1.58691 0Z" fill="black" fill-opacity="0.2"/>
<path d="M1.58691 0H1.96214L7.44693 3.81605L7.14887 4.26075L1.79939 0.538368H1.65141L1.58691 0Z" fill="black" fill-opacity="0.2"/>
<path d="M4.1572 4.3081L3.03886 3.76974L0 0.00110154L1.58654 0H1.96176L1.79902 0.538368H1.65104H1.11727L3.93836 4.03678L4.1572 4.3081Z" fill="#1360D2"/>
<path d="M4.1572 4.3081L3.03886 3.76974L0 0.00110154L1.58654 0H1.96176L1.79902 0.538368H1.65104H1.11727L3.93836 4.03678L4.1572 4.3081Z" fill="black" fill-opacity="0.2"/>
<path d="M4.1572 4.3081L3.03886 3.76974L0 0.00110154L1.58654 0H1.96176L1.79902 0.538368H1.65104H1.11727L3.93836 4.03678L4.1572 4.3081Z" fill="black" fill-opacity="0.2"/>
<path d="M4.1572 4.3081L3.03886 3.76974L0 0.00110154L1.58654 0H1.96176L1.79902 0.538368H1.65104H1.11727L3.93836 4.03678L4.1572 4.3081Z" fill="black" fill-opacity="0.2"/>
<path d="M4.1572 4.3081L3.03886 3.76974L0 0.00110154L1.58654 0H1.96176L1.79902 0.538368H1.65104H1.11727L3.93836 4.03678L4.1572 4.3081Z" fill="black" fill-opacity="0.2"/>
<path d="M4.1572 4.3081L3.03886 3.76974L0 0.00110154L1.58654 0H1.96176L1.79902 0.538368H1.65104H1.11727L3.93836 4.03678L4.1572 4.3081Z" fill="black" fill-opacity="0.2"/>
<path d="M4.1572 4.3081L3.03886 3.76974L0 0.00110154L1.58654 0H1.96176L1.79902 0.538368H1.65104H1.11727L3.93836 4.03678L4.1572 4.3081Z" fill="black" fill-opacity="0.2"/>
<path d="M4.15691 4.31181H0.426758V3.77344H3.03856L3.93807 4.04048L4.15691 4.31181Z" fill="#1360D2"/>
<path d="M4.15691 4.31181H0.426758V3.77344H3.03856L3.93807 4.04048L4.15691 4.31181Z" fill="black" fill-opacity="0.2"/>
<path d="M4.15691 4.31181H0.426758V3.77344H3.03856L3.93807 4.04048L4.15691 4.31181Z" fill="black" fill-opacity="0.2"/>
<path d="M4.15691 4.31181H0.426758V3.77344H3.03856L3.93807 4.04048L4.15691 4.31181Z" fill="black" fill-opacity="0.2"/>
<path d="M4.15691 4.31181H0.426758V3.77344H3.03856L3.93807 4.04048L4.15691 4.31181Z" fill="black" fill-opacity="0.2"/>
<path d="M4.15691 4.31181H0.426758V3.77344H3.03856L3.93807 4.04048L4.15691 4.31181Z" fill="black" fill-opacity="0.2"/>
<path d="M4.15691 4.31181H0.426758V3.77344H3.03856L3.93807 4.04048L4.15691 4.31181Z" fill="black" fill-opacity="0.2"/>
<path d="M13.9916 8.60605L8.94189 8.59957L8.91337 8.59314L3.10059 7.26569L3.21684 6.74023L9.00103 8.06127L13.9916 8.06775V8.60605Z" fill="#1360D2"/>
<path d="M13.9916 8.60605L8.94189 8.59957L8.91337 8.59314L3.10059 7.26569L3.21684 6.74023L9.00103 8.06127L13.9916 8.06775V8.60605Z" fill="black" fill-opacity="0.2"/>
<path d="M13.9916 8.60605L8.94189 8.59957L8.91337 8.59314L3.10059 7.26569L3.21684 6.74023L9.00103 8.06127L13.9916 8.06775V8.60605Z" fill="black" fill-opacity="0.2"/>
<path d="M13.9916 8.60605L8.94189 8.59957L8.91337 8.59314L3.10059 7.26569L3.21684 6.74023L9.00103 8.06127L13.9916 8.06775V8.60605Z" fill="black" fill-opacity="0.2"/>
<path d="M13.9916 8.60605L8.94189 8.59957L8.91337 8.59314L3.10059 7.26569L3.21684 6.74023L9.00103 8.06127L13.9916 8.06775V8.60605Z" fill="black" fill-opacity="0.2"/>
<path d="M13.9916 8.60605L8.94189 8.59957L8.91337 8.59314L3.10059 7.26569L3.21684 6.74023L9.00103 8.06127L13.9916 8.06775V8.60605Z" fill="black" fill-opacity="0.2"/>
<path d="M13.9916 8.60605L8.94189 8.59957L8.91337 8.59314L3.10059 7.26569L3.21684 6.74023L9.00103 8.06127L13.9916 8.06775V8.60605Z" fill="black" fill-opacity="0.2"/>
<defs>
<linearGradient id="paint0_linear_1542_52036" x1="10.569" y1="5.91826" x2="10.569" y2="5.37988" gradientUnits="userSpaceOnUse">
<stop stop-color="#120708"/>
<stop offset="0.615" stop-color="#E72327"/>
</linearGradient>
<linearGradient id="paint1_linear_1542_52036" x1="8.45375" y1="5.91826" x2="8.45375" y2="5.37988" gradientUnits="userSpaceOnUse">
<stop stop-color="#120708"/>
<stop offset="0.615" stop-color="#E72327"/>
</linearGradient>
<linearGradient id="paint2_linear_1542_52036" x1="6.34242" y1="5.91826" x2="6.34242" y2="5.37988" gradientUnits="userSpaceOnUse">
<stop stop-color="#120708"/>
<stop offset="0.615" stop-color="#E72327"/>
</linearGradient>
<linearGradient id="paint3_linear_1542_52036" x1="12.6813" y1="5.91826" x2="12.6813" y2="5.37988" gradientUnits="userSpaceOnUse">
<stop stop-color="#120708"/>
<stop offset="0.615" stop-color="#E72327"/>
</linearGradient>
<linearGradient id="paint4_linear_1542_52036" x1="14.7965" y1="5.91826" x2="14.7965" y2="5.37988" gradientUnits="userSpaceOnUse">
<stop stop-color="#120708"/>
<stop offset="0.615" stop-color="#E72327"/>
</linearGradient>
<linearGradient id="paint5_linear_1542_52036" x1="16.9098" y1="5.91826" x2="16.9098" y2="5.37988" gradientUnits="userSpaceOnUse">
<stop stop-color="#120708"/>
<stop offset="0.615" stop-color="#E72327"/>
</linearGradient>
<linearGradient id="paint6_linear_1542_52036" x1="19.0231" y1="5.91826" x2="19.0231" y2="5.37988" gradientUnits="userSpaceOnUse">
<stop stop-color="#120708"/>
<stop offset="0.615" stop-color="#E72327"/>
</linearGradient>
</defs>
</svg>
