<svg width="36" height="36" viewBox="0 0 36 36" fill="none" xmlns="http://www.w3.org/2000/svg">
<g clip-path="url(#clip0_1560_8084)">
<g clip-path="url(#clip1_1560_8084)">
<g filter="url(#filter0_d_1560_8084)">
<path d="M31.4238 18.2616L31.3672 18.4276L29.3711 24.245L29.3311 24.3622L29.2129 24.3221L28.2842 24.0067L28.166 23.9657L28.2061 23.8475L29.7012 19.4891H15.542L17.0371 23.8475L17.0771 23.9657L16.959 24.0067L16.0303 24.3221L15.9121 24.3622L15.8711 24.245L13.876 18.4276L13.8193 18.2616H31.4238Z" fill="url(#paint0_linear_1560_8084)" stroke="black" stroke-width="0.25"/>
<path d="M29.1924 13.5919V18.6847H27.9609V14.8195H17.2822V18.6847H16.0508V13.5919H29.1924Z" fill="url(#paint1_linear_1560_8084)" stroke="black" stroke-width="0.25"/>
<path d="M34.2168 27.4646H34.0918C33.1989 27.4645 32.5309 26.9653 31.6514 26.1091C30.8573 25.3361 30.4572 25.1023 30.0801 25.1023C29.7031 25.1025 29.3034 25.3364 28.5098 26.1091C27.6302 26.9653 26.9622 27.4645 26.0693 27.4646C25.1744 27.4646 24.507 26.966 23.6289 26.1111C22.8349 25.3382 22.4348 25.1053 22.0576 25.1052C21.6804 25.1052 21.2803 25.3381 20.4863 26.1111C19.6067 26.9674 18.9389 27.4666 18.0459 27.4666C17.153 27.4665 16.4851 26.9674 15.6055 26.1111C14.8115 25.3382 14.4113 25.1052 14.0342 25.1052C13.6572 25.1054 13.2575 25.3385 12.4639 26.1111C11.5844 26.9673 10.9162 27.4664 10.0234 27.4666C9.13044 27.4666 8.46166 26.9674 7.58203 26.1111C6.78832 25.3385 6.3888 25.1053 6.01172 25.1052C5.63453 25.1052 5.23444 25.3381 4.44043 26.1111C3.56081 26.9674 2.89299 27.4666 2 27.4666H1.875V26.239H2C2.39517 26.239 2.76662 26.025 3.58008 25.2332C4.43856 24.3974 5.13019 23.8767 6.01172 23.8767C6.89315 23.8768 7.58494 24.3975 8.44336 25.2332C9.25666 26.0248 9.6283 26.239 10.0234 26.239C10.4185 26.2389 10.7902 26.0249 11.6035 25.2332C12.4619 24.3975 13.1528 23.8768 14.0342 23.8767C14.9157 23.8767 15.6073 24.3974 16.4658 25.2332C17.2792 26.025 17.6508 26.239 18.0459 26.239C18.441 26.239 18.8126 26.025 19.626 25.2332C20.4845 24.3974 21.1761 23.8767 22.0576 23.8767C22.9391 23.8768 23.6308 24.3975 24.4893 25.2332C25.2906 26.0132 25.6779 26.2371 26.0693 26.2371C26.4644 26.2369 26.8361 26.022 27.6494 25.2302C28.5076 24.3947 29.1989 23.8749 30.0801 23.8748C30.9615 23.8748 31.6533 24.3945 32.5117 25.2302C33.3251 26.0221 33.6967 26.237 34.0918 26.2371H34.2168V27.4646Z" fill="url(#paint2_linear_1560_8084)" stroke="black" stroke-width="0.25"/>
<path d="M25.2012 8.875V13.8398H23.9697V10.1025H21.2734V13.8398H20.042V8.875H25.2012Z" fill="url(#paint3_linear_1560_8084)" stroke="black" stroke-width="0.25"/>
<path d="M11.334 17.4441V18.6716H3.24316V17.4441H11.334Z" fill="url(#paint4_linear_1560_8084)" stroke="black" stroke-width="0.25"/>
<path d="M13.1768 17.4441V21.2253L13.0518 21.2263L11.209 21.2292H11.084V21.1042L11.082 20.1267V20.0017H11.207L11.9453 19.9998V18.6716H11.083V17.4441H13.1768Z" fill="url(#paint5_linear_1560_8084)" stroke="black" stroke-width="0.25"/>
<path d="M11.333 20.0017V20.1267L11.335 21.1042V21.2292H11.1963L3.36426 21.2429L3.23926 21.2439V21.1189L3.2373 20.1404V20.0154H3.3623L11.208 20.0017H11.333Z" fill="url(#paint6_linear_1560_8084)" stroke="black" stroke-width="0.25"/>
<path d="M9.76758 20.9817V24.9836H8.53613V20.9817H9.76758Z" fill="url(#paint7_linear_1560_8084)" stroke="#EA2428" stroke-width="0.25"/>
<path d="M6.77539 20.9817V23.5354H5.54395V20.9817H6.77539Z" fill="url(#paint8_linear_1560_8084)" stroke="#EA2428" stroke-width="0.25"/>
</g>
</g>
</g>
<defs>
<filter id="filter0_d_1560_8084" x="-38.9643" y="-27.8929" width="114.02" height="100.27" filterUnits="userSpaceOnUse" color-interpolation-filters="sRGB">
<feFlood flood-opacity="0" result="BackgroundImageFix"/>
<feColorMatrix in="SourceAlpha" type="matrix" values="0 0 0 0 0 0 0 0 0 0 0 0 0 0 0 0 0 0 127 0" result="hardAlpha"/>
<feOffset dy="4.07143"/>
<feGaussianBlur stdDeviation="20.3571"/>
<feComposite in2="hardAlpha" operator="out"/>
<feColorMatrix type="matrix" values="0 0 0 0 0.0745098 0 0 0 0 0.376471 0 0 0 0 0.823529 0 0 0 0.16 0"/>
<feBlend mode="normal" in2="BackgroundImageFix" result="effect1_dropShadow_1560_8084"/>
<feBlend mode="normal" in="SourceGraphic" in2="effect1_dropShadow_1560_8084" result="shape"/>
</filter>
<linearGradient id="paint0_linear_1560_8084" x1="31.2489" y1="21.2953" x2="13.9941" y2="21.2953" gradientUnits="userSpaceOnUse">
<stop stop-color="#0E1B3D"/>
<stop offset="0.034" stop-color="#0E1B3D"/>
<stop offset="0.1771" stop-color="#0E1B3D"/>
<stop offset="0.2936" stop-color="#0E1B3D"/>
<stop offset="0.7283" stop-color="#0E1B3D"/>
<stop offset="0.8383" stop-color="#0E1B3D"/>
<stop offset="0.9896" stop-color="#0E1B3D"/>
</linearGradient>
<linearGradient id="paint1_linear_1560_8084" x1="29.0677" y1="16.1381" x2="16.1758" y2="16.1381" gradientUnits="userSpaceOnUse">
<stop stop-color="#0E1B3D"/>
<stop offset="0.034" stop-color="#0E1B3D"/>
<stop offset="0.1771" stop-color="#0E1B3D"/>
<stop offset="0.2936" stop-color="#0E1B3D"/>
<stop offset="0.7283" stop-color="#0E1B3D"/>
<stop offset="0.8383" stop-color="#0E1B3D"/>
<stop offset="0.9896" stop-color="#0E1B3D"/>
</linearGradient>
<linearGradient id="paint2_linear_1560_8084" x1="34.092" y1="25.6708" x2="2" y2="25.6708" gradientUnits="userSpaceOnUse">
<stop stop-color="#0E1B3D"/>
<stop offset="0.034" stop-color="#0E1B3D"/>
<stop offset="0.1771" stop-color="#0E1B3D"/>
<stop offset="0.2936" stop-color="#0E1B3D"/>
<stop offset="0.7283" stop-color="#0E1B3D"/>
<stop offset="0.8383" stop-color="#0E1B3D"/>
<stop offset="0.9896" stop-color="#0E1B3D"/>
</linearGradient>
<linearGradient id="paint3_linear_1560_8084" x1="25.0764" y1="11.3572" x2="20.167" y2="11.3572" gradientUnits="userSpaceOnUse">
<stop stop-color="#0E1B3D"/>
<stop offset="0.034" stop-color="#0E1B3D"/>
<stop offset="0.1771" stop-color="#0E1B3D"/>
<stop offset="0.2936" stop-color="#0E1B3D"/>
<stop offset="0.7283" stop-color="#0E1B3D"/>
<stop offset="0.8383" stop-color="#0E1B3D"/>
<stop offset="0.9896" stop-color="#0E1B3D"/>
</linearGradient>
<linearGradient id="paint4_linear_1560_8084" x1="11.2093" y1="18.058" x2="3.36816" y2="18.058" gradientUnits="userSpaceOnUse">
<stop stop-color="#0E1B3D"/>
<stop offset="0.034" stop-color="#0E1B3D"/>
<stop offset="0.1771" stop-color="#0E1B3D"/>
<stop offset="0.2936" stop-color="#0E1B3D"/>
<stop offset="0.7283" stop-color="#0E1B3D"/>
<stop offset="0.8383" stop-color="#0E1B3D"/>
<stop offset="0.9896" stop-color="#0E1B3D"/>
</linearGradient>
<linearGradient id="paint5_linear_1560_8084" x1="13.0516" y1="19.3366" x2="11.207" y2="19.3366" gradientUnits="userSpaceOnUse">
<stop stop-color="#0E1B3D"/>
<stop offset="0.034" stop-color="#0E1B3D"/>
<stop offset="0.1771" stop-color="#0E1B3D"/>
<stop offset="0.2936" stop-color="#0E1B3D"/>
<stop offset="0.7283" stop-color="#0E1B3D"/>
<stop offset="0.8383" stop-color="#0E1B3D"/>
<stop offset="0.9896" stop-color="#0E1B3D"/>
</linearGradient>
<linearGradient id="paint6_linear_1560_8084" x1="11.2097" y1="20.6225" x2="3.3623" y2="20.6225" gradientUnits="userSpaceOnUse">
<stop stop-color="#0E1B3D"/>
<stop offset="0.034" stop-color="#0E1B3D"/>
<stop offset="0.1771" stop-color="#0E1B3D"/>
<stop offset="0.2936" stop-color="#0E1B3D"/>
<stop offset="0.7283" stop-color="#0E1B3D"/>
<stop offset="0.8383" stop-color="#0E1B3D"/>
<stop offset="0.9896" stop-color="#0E1B3D"/>
</linearGradient>
<linearGradient id="paint7_linear_1560_8084" x1="9.64269" y1="22.9828" x2="8.66113" y2="22.9828" gradientUnits="userSpaceOnUse">
<stop stop-color="#EA2428"/>
<stop offset="0.034" stop-color="#EA2428"/>
<stop offset="0.1771" stop-color="#EA2428"/>
<stop offset="0.2936" stop-color="#EA2428"/>
<stop offset="0.7283" stop-color="#EA2428"/>
<stop offset="0.8383" stop-color="#EA2428"/>
<stop offset="0.9896" stop-color="#EA2428"/>
</linearGradient>
<linearGradient id="paint8_linear_1560_8084" x1="6.6505" y1="22.2583" x2="5.66895" y2="22.2583" gradientUnits="userSpaceOnUse">
<stop stop-color="#EA2428"/>
<stop offset="0.034" stop-color="#EA2428"/>
<stop offset="0.1771" stop-color="#EA2428"/>
<stop offset="0.2936" stop-color="#EA2428"/>
<stop offset="0.7283" stop-color="#EA2428"/>
<stop offset="0.8383" stop-color="#EA2428"/>
<stop offset="0.9896" stop-color="#EA2428"/>
</linearGradient>
<clipPath id="clip0_1560_8084">
<rect width="36" height="36" fill="white"/>
</clipPath>
<clipPath id="clip1_1560_8084">
<rect width="36" height="36" fill="white"/>
</clipPath>
</defs>
</svg>
