<svg width="36" height="36" viewBox="0 0 36 36" fill="none" xmlns="http://www.w3.org/2000/svg">
<path d="M31.041 8H5.68866C5.12854 8.00063 4.59154 8.21946 4.19547 8.60848C3.7994 8.99751 3.57661 9.52495 3.57597 10.0751V14.3208C3.5759 14.3259 3.5752 14.3308 3.5752 14.3359C3.5752 14.341 3.5759 14.3459 3.57597 14.351V26.676C3.57661 27.2262 3.7994 27.7536 4.19547 28.1427C4.59154 28.5317 5.12854 28.7505 5.68866 28.7511H31.041C31.6011 28.7505 32.1381 28.5317 32.5341 28.1427C32.9302 27.7536 33.153 27.2262 33.1536 26.676V10.0751C33.153 9.52495 32.9302 8.99751 32.5341 8.60848C32.1381 8.21946 31.6011 8.00063 31.041 8ZM31.041 10.0751L31.0412 13.2984H5.68866V10.0751H31.041ZM31.041 26.676H5.68866V15.3735H31.0414L31.0423 26.676H31.041Z" fill="#060C28"/>
<path d="M27.8716 22.5249H23.6462C23.366 22.5249 23.0973 22.6342 22.8992 22.8288C22.7011 23.0234 22.5898 23.2873 22.5898 23.5625C22.5898 23.8376 22.7011 24.1015 22.8992 24.2961C23.0973 24.4907 23.366 24.6 23.6462 24.6H27.8716C28.1517 24.6 28.4204 24.4907 28.6185 24.2961C28.8166 24.1015 28.9279 23.8376 28.9279 23.5625C28.9279 23.2873 28.8166 23.0234 28.6185 22.8288C28.4204 22.6342 28.1517 22.5249 27.8716 22.5249Z" fill="#EA262A"/>
<path d="M19.419 22.5249H17.3063C17.0262 22.5249 16.7575 22.6342 16.5594 22.8288C16.3613 23.0234 16.25 23.2873 16.25 23.5625C16.25 23.8376 16.3613 24.1015 16.5594 24.2961C16.7575 24.4907 17.0262 24.6 17.3063 24.6H19.419C19.6992 24.6 19.9679 24.4907 20.166 24.2961C20.3641 24.1015 20.4754 23.8376 20.4754 23.5625C20.4754 23.2873 20.3641 23.0234 20.166 22.8288C19.9679 22.6342 19.6992 22.5249 19.419 22.5249Z" fill="#EA262A"/>
</svg>
