<svg width="36" height="36" viewBox="0 0 36 36" fill="none" xmlns="http://www.w3.org/2000/svg">
<path d="M15.21 9.54407V10.799H14.9609V24.7072H16.0566V25.9611H13.7061V9.54407H15.21Z" fill="#0E1B3D" stroke="#0E1B3D" stroke-width="0.25"/>
<path d="M18.958 24.7075V25.9624H15.8066V24.7075H18.958Z" fill="#0E1B3D" stroke="#0E1B3D" stroke-width="0.25"/>
<path d="M28.8457 24.7075V25.9624H27.4131V24.7075H28.8457Z" fill="#0E1B3D" stroke="#0E1B3D" stroke-width="0.25"/>
<path d="M30.125 9.54407V25.9611H28.5957V24.7072H28.8701V10.799H28.4971V9.54407H30.125Z" fill="#0E1B3D" stroke="#0E1B3D" stroke-width="0.25"/>
<path d="M28.7471 9.54407V10.799H25.3018V9.54407H28.7471Z" fill="#0E1B3D" stroke="#0E1B3D" stroke-width="0.25"/>
<path d="M18.0234 9.54407V10.799H14.9619V9.54407H18.0234Z" fill="#0E1B3D" stroke="#0E1B3D" stroke-width="0.25"/>
<path d="M25.3848 9.54407V18.5001L25.1875 18.3595L21.6553 15.8517L18.123 18.3595L17.9258 18.5001V9.54407H25.3848ZM19.1807 16.0646L21.583 14.3585L21.6553 14.3077L21.7275 14.3585L24.1299 16.0646V10.798L19.1807 10.7931V16.0646Z" fill="#EA2428" stroke="#EA2428" stroke-width="0.25"/>
<path d="M6.94336 2.71814V3.97302H6.30078V28.2269H10.75V29.4818H5.0459V2.71814H6.94336Z" fill="#0E1B3D" stroke="#0E1B3D" stroke-width="0.25"/>
<path d="M18.5283 28.235V29.4899H10.5V28.235H18.5283Z" fill="#0E1B3D" stroke="#0E1B3D" stroke-width="0.25"/>
<path d="M27.5186 5.54016V9.57336H26.2637V5.54016H27.5186Z" fill="#0E1B3D" stroke="#0E1B3D" stroke-width="0.25"/>
<path d="M27.5186 2.71814V5.97009H26.2637V3.97302H25.6064V2.71814H27.5186Z" fill="#0E1B3D" stroke="#0E1B3D" stroke-width="0.25"/>
<path d="M25.8555 2.71814V3.97302H23.5674V2.71814H25.8555Z" fill="#0E1B3D" stroke="#0E1B3D" stroke-width="0.25"/>
<path d="M25.1455 2.68152V3.99304H5.7793V2.68152H25.1455Z" fill="#0E1B3D" stroke="#0E1B3D" stroke-width="0.25"/>
<path d="M22.2471 23.4862C23.1507 23.3072 24.0878 23.4005 24.9385 23.7538C25.7889 24.1071 26.5155 24.7044 27.0264 25.4706C27.5373 26.2371 27.8097 27.1383 27.8086 28.0594C27.807 29.2933 27.3154 30.4766 26.4424 31.3485C25.5694 32.2202 24.3861 32.7098 23.1523 32.7098C22.2312 32.7098 21.3303 32.4366 20.5645 31.9247C19.7987 31.4128 19.2018 30.6849 18.8496 29.8339C18.4975 28.9829 18.4059 28.0466 18.5859 27.1434C18.7661 26.2401 19.2105 25.4096 19.8623 24.7587C20.5139 24.108 21.3438 23.6652 22.2471 23.4862ZM23.2773 24.6669H23.1523C22.4805 24.6667 21.8234 24.866 21.2646 25.2391C20.706 25.6123 20.2699 26.143 20.0127 26.7635C19.7557 27.384 19.6885 28.0668 19.8193 28.7255C19.9503 29.3845 20.274 29.9905 20.749 30.4657C21.224 30.9407 21.8294 31.2643 22.4883 31.3954C23.1472 31.5265 23.8305 31.4591 24.4512 31.202C25.0718 30.9449 25.6023 30.5096 25.9756 29.951C26.3489 29.3924 26.5479 28.7352 26.5479 28.0634C26.5477 27.1623 26.1903 26.2977 25.5537 25.66C24.9466 25.0521 24.1329 24.6978 23.2773 24.6649V24.6669Z" fill="#0E1B3D" stroke="#0E1B3D" stroke-width="0.25"/>
<rect x="21.1045" y="27.4136" width="2.37061" height="1.21998" transform="rotate(45 21.1045 27.4136)" fill="#0E1B3D" stroke="#0E1B3D" stroke-width="0.25"/>
<path d="M22.4795 28.6995L22.4941 28.6848L22.583 28.7727L23.2939 29.4836L23.3828 29.5715L23.2939 29.6604L22.5684 30.385L22.4795 30.4739L22.3916 30.385L21.6592 29.6536L21.5713 29.5647L22.458 28.678L22.4795 28.6995Z" fill="#0E1B3D" stroke="#0E1B3D" stroke-width="0.25"/>
<path d="M25.1688 26.0059L26.0562 26.8933L23.1891 29.7604L22.3017 28.873L25.1688 26.0059Z" fill="#0E1B3D" stroke="#0E1B3D" stroke-width="0.25"/>
</svg>
