<svg width="36" height="36" viewBox="0 0 36 36" fill="none" xmlns="http://www.w3.org/2000/svg">
<path d="M11.4919 15.4405H25.2498C25.5305 15.4405 25.7997 15.3301 25.9982 15.1335C26.1966 14.937 26.3081 14.6704 26.3081 14.3924C26.3081 14.1144 26.1966 13.8478 25.9982 13.6512C25.7997 13.4547 25.5305 13.3442 25.2498 13.3442H11.4919C11.2112 13.3442 10.942 13.4547 10.7436 13.6512C10.5451 13.8478 10.4336 14.1144 10.4336 14.3924C10.4336 14.6704 10.5451 14.937 10.7436 15.1335C10.942 15.3301 11.2112 15.4405 11.4919 15.4405Z" fill="#EA262A"/>
<path d="M11.4919 19.6279H25.2498C25.5305 19.6279 25.7997 19.5175 25.9982 19.3209C26.1966 19.1244 26.3081 18.8578 26.3081 18.5798C26.3081 18.3018 26.1966 18.0352 25.9982 17.8386C25.7997 17.642 25.5305 17.5316 25.2498 17.5316H11.4919C11.2112 17.5316 10.942 17.642 10.7436 17.8386C10.5451 18.0352 10.4336 18.3018 10.4336 18.5798C10.4336 18.8578 10.5451 19.1244 10.7436 19.3209C10.942 19.5175 11.2112 19.6279 11.4919 19.6279Z" fill="#EA262A"/>
<path d="M30.0125 6H6.72988C6.16872 6.00064 5.63073 6.2217 5.23393 6.6147C4.83713 7.00769 4.61392 7.54053 4.61328 8.09631V28.0112C4.61328 28.1899 4.65939 28.3656 4.74724 28.5217C4.83509 28.6777 4.96176 28.8089 5.11522 28.9029C5.26868 28.9968 5.44384 29.0503 5.62406 29.0583C5.80428 29.0664 5.98357 29.0286 6.14492 28.9487L9.90479 27.0868L13.6647 28.9487C13.8116 29.0215 13.9737 29.0593 14.138 29.0593C14.3023 29.0593 14.4644 29.0215 14.6113 28.9487L18.3712 27.0868L22.1311 28.9487C22.278 29.0215 22.4401 29.0594 22.6044 29.0594C22.7687 29.0594 22.9308 29.0215 23.0778 28.9487L26.8376 27.0868L30.5975 28.9487C30.7588 29.0286 30.9381 29.0664 31.1184 29.0583C31.2986 29.0503 31.4737 28.9968 31.6272 28.9029C31.7806 28.8089 31.9073 28.6777 31.9952 28.5217C32.083 28.3656 32.1291 28.1899 32.1291 28.0112V8.09631C32.1285 7.54053 31.9053 7.00769 31.5085 6.6147C31.1117 6.2217 30.5737 6.00064 30.0125 6ZM30.0125 26.3153L27.311 24.9774C27.164 24.9047 27.0019 24.8668 26.8376 24.8668C26.6733 24.8668 26.5112 24.9047 26.3643 24.9774L22.6044 26.8393L18.8445 24.9774C18.6976 24.9047 18.5355 24.8668 18.3712 24.8668C18.2069 24.8668 18.0448 24.9047 17.8979 24.9774L14.138 26.8393L10.3781 24.9774C10.2312 24.9047 10.0691 24.8668 9.90479 24.8668C9.74048 24.8668 9.57842 24.9047 9.43145 24.9774L6.72988 26.3153V8.09631H30.0125V26.3153Z" fill="#060C28"/>
</svg>
