<svg width="18" height="18" viewBox="0 0 18 18" fill="none" xmlns="http://www.w3.org/2000/svg">
<path d="M4.38558 6.13278H3.32124C3.1801 6.13278 3.04473 6.18785 2.94493 6.28588C2.84513 6.38391 2.78906 6.51686 2.78906 6.65549C2.78906 6.79412 2.84513 6.92708 2.94493 7.0251C3.04473 7.12313 3.1801 7.1782 3.32124 7.1782H4.38558C4.52673 7.1782 4.66209 7.12313 4.76189 7.0251C4.86169 6.92708 4.91776 6.79412 4.91776 6.65549C4.91776 6.51686 4.86169 6.38391 4.76189 6.28588C4.66209 6.18785 4.52673 6.13278 4.38558 6.13278Z" fill="#EA262A"/>
<path d="M8.69212 6.13278H6.56342C6.42228 6.13278 6.28692 6.18785 6.18712 6.28588C6.08732 6.38391 6.03125 6.51686 6.03125 6.65549C6.03125 6.79412 6.08732 6.92708 6.18712 7.0251C6.28692 7.12313 6.42228 7.1782 6.56342 7.1782H8.69212C8.83326 7.1782 8.96862 7.12313 9.06843 7.0251C9.16823 6.92708 9.2243 6.79412 9.2243 6.65549C9.2243 6.51686 9.16823 6.38391 9.06843 6.28588C8.96862 6.18785 8.83326 6.13278 8.69212 6.13278Z" fill="#EA262A"/>
<path d="M6.87363 2.25H3.40591C3.09945 2.25035 2.80564 2.37225 2.58894 2.58894C2.37225 2.80564 2.25035 3.09945 2.25 3.40591V6.87363C2.25035 7.18009 2.37225 7.4739 2.58894 7.6906C2.80564 7.9073 3.09945 8.02919 3.40591 8.02954H6.87363C7.18009 8.02919 7.4739 7.9073 7.6906 7.6906C7.9073 7.4739 8.02919 7.18009 8.02954 6.87363V3.40591C8.02919 3.09945 7.9073 2.80564 7.6906 2.58894C7.4739 2.37225 7.18009 2.25035 6.87363 2.25ZM6.87363 6.87363H3.40591V3.40591H6.87363L6.87434 6.87363H6.87363Z" fill="#060C28"/>
<path d="M6.87363 9.18945H3.40591C3.09945 9.1898 2.80564 9.3117 2.58894 9.5284C2.37225 9.7451 2.25035 10.0389 2.25 10.3454V13.8131C2.25035 14.1195 2.37225 14.4134 2.58894 14.6301C2.80564 14.8468 3.09945 14.9686 3.40591 14.969H6.87363C7.18009 14.9686 7.4739 14.8468 7.6906 14.6301C7.9073 14.4134 8.02919 14.1195 8.02954 13.8131V10.3454C8.02919 10.0389 7.9073 9.7451 7.6906 9.5284C7.4739 9.3117 7.18009 9.1898 6.87363 9.18945ZM6.87363 13.8131H3.40591V10.3454H6.87363L6.87434 13.8131H6.87363Z" fill="#060C28"/>
<path d="M13.8111 2.25H10.3434C10.037 2.25035 9.74314 2.37225 9.52644 2.58894C9.30975 2.80564 9.18785 3.09945 9.1875 3.40591V6.87363C9.18785 7.18009 9.30975 7.4739 9.52644 7.6906C9.74314 7.9073 10.037 8.02919 10.3434 8.02954H13.8111C14.1176 8.02919 14.4114 7.9073 14.6281 7.6906C14.8448 7.4739 14.9667 7.18009 14.967 6.87363V3.40591C14.9667 3.09945 14.8448 2.80564 14.6281 2.58894C14.4114 2.37225 14.1176 2.25035 13.8111 2.25ZM13.8111 6.87363H10.3434V3.40591H13.8111L13.8118 6.87363H13.8111Z" fill="#060C28"/>
<path d="M9.76545 12.6572C9.91873 12.6572 10.0657 12.5963 10.1741 12.4879C10.2825 12.3795 10.3434 12.2325 10.3434 12.0792V9.76741C10.3434 9.61412 10.2825 9.46712 10.1741 9.35873C10.0657 9.25034 9.91874 9.18945 9.76545 9.18945C9.61217 9.18945 9.46517 9.25034 9.35678 9.35873C9.24839 9.46712 9.1875 9.61412 9.1875 9.76741V12.0792C9.18751 12.2325 9.2484 12.3795 9.35679 12.4879C9.46517 12.5963 9.61217 12.6572 9.76545 12.6572Z" fill="#EA262A"/>
<path d="M14.3891 10.3454H12.6552V9.76741C12.6552 9.61412 12.5943 9.46712 12.4859 9.35873C12.3776 9.25034 12.2306 9.18945 12.0773 9.18945C11.924 9.18945 11.777 9.25034 11.6686 9.35873C11.5602 9.46712 11.4993 9.61412 11.4993 9.76741V13.8131H9.76545C9.61217 13.8131 9.46517 13.874 9.35678 13.9824C9.24839 14.0908 9.1875 14.2378 9.1875 14.391C9.1875 14.5443 9.24839 14.6913 9.35678 14.7997C9.46517 14.9081 9.61217 14.969 9.76545 14.969H12.0773C12.2306 14.969 12.3776 14.9081 12.4859 14.7997C12.5943 14.6913 12.6552 14.5443 12.6552 14.391V11.5013H14.3891C14.5424 11.5013 14.6894 11.4404 14.7978 11.332C14.9062 11.2236 14.967 11.0766 14.967 10.9233C14.967 10.77 14.9062 10.623 14.7978 10.5146C14.6894 10.4063 14.5424 10.3454 14.3891 10.3454Z" fill="#EA262A"/>
<path d="M14.3865 12.6543C14.2333 12.6543 14.0863 12.7152 13.9779 12.8236C13.8695 12.932 13.8086 13.079 13.8086 13.2323V14.3882C13.8086 14.5414 13.8695 14.6884 13.9779 14.7968C14.0863 14.9052 14.2333 14.9661 14.3865 14.9661C14.5398 14.9661 14.6868 14.9052 14.7952 14.7968C14.9036 14.6884 14.9645 14.5414 14.9645 14.3882V13.2323C14.9645 13.079 14.9036 12.932 14.7952 12.8236C14.6868 12.7152 14.5398 12.6543 14.3865 12.6543Z" fill="#EA262A"/>
</svg>
