<svg width="18" height="18" viewBox="0 0 18 18" fill="none" xmlns="http://www.w3.org/2000/svg">
<path d="M15.0288 3.36227H2.19128C1.90765 3.36259 1.63573 3.4734 1.43518 3.67039C1.23462 3.86738 1.12181 4.13446 1.12149 4.41304V6.56293C1.12145 6.5655 1.12109 6.568 1.12109 6.57056C1.12109 6.57313 1.12145 6.57563 1.12149 6.5782V12.8192C1.12181 13.0978 1.23462 13.3648 1.43518 13.5618C1.63573 13.7588 1.90765 13.8696 2.19128 13.8699H15.0288C15.3124 13.8696 15.5844 13.7588 15.7849 13.5618C15.9855 13.3648 16.0983 13.0978 16.0986 12.8192V4.41304C16.0983 4.13446 15.9855 3.86738 15.7849 3.67039C15.5844 3.4734 15.3124 3.36259 15.0288 3.36227ZM15.0288 4.41304L15.0289 6.04518H2.19128V4.41304H15.0288ZM15.0288 12.8192H2.19128V7.09595H15.029L15.0295 12.8192H15.0288Z" fill="#060C28"/>
<path d="M13.4245 10.7158H11.2849C11.143 10.7158 11.007 10.7711 10.9067 10.8697C10.8064 10.9682 10.75 11.1018 10.75 11.2412C10.75 11.3805 10.8064 11.5141 10.9067 11.6127C11.007 11.7112 11.143 11.7666 11.2849 11.7666H13.4245C13.5664 11.7666 13.7024 11.7112 13.8027 11.6127C13.903 11.5141 13.9594 11.3805 13.9594 11.2412C13.9594 11.1018 13.903 10.9682 13.8027 10.8697C13.7024 10.7711 13.5664 10.7158 13.4245 10.7158Z" fill="#EA262A"/>
<path d="M9.14375 10.7158H8.07396C7.9321 10.7158 7.79604 10.7711 7.69573 10.8697C7.59542 10.9682 7.53906 11.1018 7.53906 11.2412C7.53906 11.3805 7.59542 11.5141 7.69573 11.6127C7.79604 11.7112 7.9321 11.7666 8.07396 11.7666H9.14375C9.28562 11.7666 9.42167 11.7112 9.52198 11.6127C9.6223 11.5141 9.67865 11.3805 9.67865 11.2412C9.67865 11.1018 9.6223 10.9682 9.52198 10.8697C9.42167 10.7711 9.28562 10.7158 9.14375 10.7158Z" fill="#EA262A"/>
</svg>
