<svg width="75" height="75" viewBox="0 0 75 75" fill="none" xmlns="http://www.w3.org/2000/svg">
<path d="M68.0236 35.6613H62.5123C60.3905 35.6613 58.4589 33.6676 58.3789 31.4146L59.7567 31.3662C59.8063 32.8416 61.1345 34.2372 62.5123 34.2372H68.0236L68.0236 35.6613Z" fill="white"/>
<path d="M29.5078 32.8032H32.2607V34.2273H29.5078V32.8032Z" fill="white"/>
<path d="M23.9961 32.8037H26.749V34.2278H23.9961V32.8037Z" fill="white"/>
<path d="M18.4844 32.8037H21.2372V34.2278H18.4844V32.8037Z" fill="white"/>
<path d="M35.0195 32.8037H37.7724V34.2278H35.0195V32.8037Z" fill="white"/>
<path d="M40.5312 32.8037H43.2841V34.2278H40.5312V32.8037Z" fill="white"/>
<path d="M46.0391 32.8037H48.7919V34.2278H46.0391V32.8037Z" fill="white"/>
<path d="M51.5547 32.8037H54.3075V34.2278H51.5547V32.8037Z" fill="white"/>
<path d="M69.4589 38.2567C69.4567 37.8003 69.3425 37.3519 69.1271 36.9534C68.9117 36.5549 68.602 36.2194 68.2271 35.9782L58.8663 29.9656H22.6133V28.5415H59.2631L68.9601 34.7563C69.5352 35.1266 70.0094 35.6424 70.3378 36.2549C70.6662 36.8675 70.8379 37.5565 70.8367 38.2568L69.4589 38.2567Z" fill="white"/>
<path d="M35.8199 18.6758H29.8789L35.9881 26.252L37.0463 25.3406L32.8219 20.0999H35.426L35.8199 18.6758Z" fill="white"/>
<path d="M32.0448 54.1731H29.5979L36.9002 45.2296L35.8448 44.3096L26.6328 55.5972H32.4498L32.0448 54.1731Z" fill="white"/>
<path d="M32.043 54.1744L51.2608 41.3545L53.7987 41.3574L32.448 55.5985L32.043 54.1744Z" fill="white"/>
<path d="M51.1155 28.5364L35.8217 18.6758H34.207V20.0999H35.4278L48.5113 28.5364H51.1155Z" fill="white"/>
<path d="M70.7091 37.2192H69.2569C69.3904 37.5485 69.4597 37.9018 69.4608 38.2588C69.4608 38.7038 69.2897 39.1304 68.9854 39.445C68.681 39.7596 68.2682 39.9363 67.8377 39.9363H44.6602V41.3604H67.8405C68.6359 41.3596 69.3985 41.0325 69.9606 40.4509C70.5228 39.8693 70.8386 39.0808 70.8386 38.2587C70.8383 37.9079 70.7948 37.5586 70.7091 37.2192Z" fill="white"/>
<path d="M7.46094 18.5723H8.43916L22.7381 28.6664L21.9611 29.8427L8.01487 19.9963H7.62909L7.46094 18.5723Z" fill="white"/>
<path d="M14.1661 29.968L11.2505 28.5439L3.32812 18.5752L7.46427 18.5723H8.4425L8.01821 19.9963H7.63243H6.24087L13.5955 29.2503L14.1661 29.968Z" fill="white"/>
<path d="M14.1621 29.969H4.4375V28.5449H11.2465L13.5916 29.2513L14.1621 29.969Z" fill="white"/>
<path d="M39.8069 41.3291L26.6405 41.312L26.5662 41.295L11.4102 37.7832L11.7133 36.3931L26.7948 39.8879L39.8069 39.905V41.3291Z" fill="white"/>
<path d="M68.0236 35.6613H62.5123C60.3905 35.6613 58.4589 33.6676 58.3789 31.4146L59.7567 31.3662C59.8063 32.8416 61.1345 34.2372 62.5123 34.2372H68.0236L68.0236 35.6613Z" fill="white"/>
<path d="M29.5078 32.8032H32.2607V34.2273H29.5078V32.8032Z" fill="url(#paint0_linear_1542_55416)"/>
<path d="M23.9961 32.8037H26.749V34.2278H23.9961V32.8037Z" fill="url(#paint1_linear_1542_55416)"/>
<path d="M18.4844 32.8037H21.2372V34.2278H18.4844V32.8037Z" fill="url(#paint2_linear_1542_55416)"/>
<path d="M35.0195 32.8037H37.7724V34.2278H35.0195V32.8037Z" fill="url(#paint3_linear_1542_55416)"/>
<path d="M40.5312 32.8037H43.2841V34.2278H40.5312V32.8037Z" fill="url(#paint4_linear_1542_55416)"/>
<path d="M46.0391 32.8037H48.7919V34.2278H46.0391V32.8037Z" fill="url(#paint5_linear_1542_55416)"/>
<path d="M51.5547 32.8037H54.3075V34.2278H51.5547V32.8037Z" fill="url(#paint6_linear_1542_55416)"/>
<path d="M69.4589 38.2567C69.4567 37.8003 69.3425 37.3519 69.1271 36.9534C68.9117 36.5549 68.602 36.2194 68.2271 35.9782L58.8663 29.9656H22.6133V28.5415H59.2631L68.9601 34.7563C69.5352 35.1266 70.0094 35.6424 70.3378 36.2549C70.6662 36.8675 70.8379 37.5565 70.8367 38.2568L69.4589 38.2567Z" fill="white"/>
<path d="M35.8199 18.6758H29.8789L35.9881 26.252L37.0463 25.3406L32.8219 20.0999H35.426L35.8199 18.6758Z" fill="white"/>
<path d="M32.0448 54.1731H29.5979L36.9002 45.2296L35.8448 44.3096L26.6328 55.5972H32.4498L32.0448 54.1731Z" fill="white"/>
<path d="M32.043 54.1744L51.2608 41.3545L53.7987 41.3574L32.448 55.5985L32.043 54.1744Z" fill="white"/>
<path d="M51.1155 28.5364L35.8217 18.6758H34.207V20.0999H35.4278L48.5113 28.5364H51.1155Z" fill="white"/>
<path d="M70.7091 37.2192H69.2569C69.3904 37.5485 69.4597 37.9018 69.4608 38.2588C69.4608 38.7038 69.2897 39.1304 68.9854 39.445C68.681 39.7596 68.2682 39.9363 67.8377 39.9363H44.6602V41.3604H67.8405C68.6359 41.3596 69.3985 41.0325 69.9606 40.4509C70.5228 39.8693 70.8386 39.0808 70.8386 38.2587C70.8383 37.9079 70.7948 37.5586 70.7091 37.2192Z" fill="white"/>
<path d="M7.46094 18.5723H8.43916L22.7381 28.6664L21.9611 29.8427L8.01487 19.9963H7.62909L7.46094 18.5723Z" fill="white"/>
<path d="M14.1661 29.968L11.2505 28.5439L3.32812 18.5752L7.46427 18.5723H8.4425L8.01821 19.9963H7.63243H6.24087L13.5955 29.2503L14.1661 29.968Z" fill="white"/>
<path d="M14.1621 29.969H4.4375V28.5449H11.2465L13.5916 29.2513L14.1621 29.969Z" fill="white"/>
<path d="M39.8069 41.3291L26.6405 41.312L26.5662 41.295L11.4102 37.7832L11.7133 36.3931L26.7948 39.8879L39.8069 39.905V41.3291Z" fill="white"/>
<defs>
<linearGradient id="paint0_linear_1542_55416" x1="30.8842" y1="34.2273" x2="30.8842" y2="32.8032" gradientUnits="userSpaceOnUse">
<stop stop-color="#120708"/>
<stop offset="0.615" stop-color="#E72327"/>
</linearGradient>
<linearGradient id="paint1_linear_1542_55416" x1="25.3725" y1="34.2278" x2="25.3725" y2="32.8037" gradientUnits="userSpaceOnUse">
<stop stop-color="#120708"/>
<stop offset="0.615" stop-color="#E72327"/>
</linearGradient>
<linearGradient id="paint2_linear_1542_55416" x1="19.8608" y1="34.2278" x2="19.8608" y2="32.8037" gradientUnits="userSpaceOnUse">
<stop stop-color="#120708"/>
<stop offset="0.615" stop-color="#E72327"/>
</linearGradient>
<linearGradient id="paint3_linear_1542_55416" x1="36.396" y1="34.2278" x2="36.396" y2="32.8037" gradientUnits="userSpaceOnUse">
<stop stop-color="#120708"/>
<stop offset="0.615" stop-color="#E72327"/>
</linearGradient>
<linearGradient id="paint4_linear_1542_55416" x1="41.9077" y1="34.2278" x2="41.9077" y2="32.8037" gradientUnits="userSpaceOnUse">
<stop stop-color="#120708"/>
<stop offset="0.615" stop-color="#E72327"/>
</linearGradient>
<linearGradient id="paint5_linear_1542_55416" x1="47.4155" y1="34.2278" x2="47.4155" y2="32.8037" gradientUnits="userSpaceOnUse">
<stop stop-color="#120708"/>
<stop offset="0.615" stop-color="#E72327"/>
</linearGradient>
<linearGradient id="paint6_linear_1542_55416" x1="52.9311" y1="34.2278" x2="52.9311" y2="32.8037" gradientUnits="userSpaceOnUse">
<stop stop-color="#120708"/>
<stop offset="0.615" stop-color="#E72327"/>
</linearGradient>
</defs>
</svg>
