<svg width="22" height="22" viewBox="0 0 22 22" fill="none" xmlns="http://www.w3.org/2000/svg">
<g clip-path="url(#clip0_71_120472)">
<path d="M11.5742 10.0432C10.2922 9.6038 9.67281 9.32823 9.67281 8.62812C9.67281 7.86844 10.4723 7.59286 10.9764 7.59286C11.9199 7.59286 12.2657 8.33021 12.3449 8.59089L13.4829 8.09187C13.3748 7.75672 12.8923 6.66187 11.6535 6.42354V5.5H10.213V6.43844C8.42679 6.85552 8.41959 8.56854 8.41959 8.64302C8.41959 10.3337 10.0401 10.8104 10.8324 11.1083C11.9704 11.5254 12.4745 11.9052 12.4745 12.6202C12.4745 13.4618 11.7183 13.8193 11.0485 13.8193C9.73763 13.8193 9.3631 12.4266 9.31989 12.2627L8.12429 12.7617C8.57804 14.3928 9.76644 14.8322 10.213 14.9663V15.9271H11.6535V15.0035C11.9416 14.9365 13.7421 14.5641 13.7421 12.6053C13.7421 11.5701 13.3028 10.6614 11.5742 10.0432Z" fill="#111838"/>
<path d="M4.94596 17.2066L7.18714 21.5326L9.53125 15.5595L4.94596 17.2066Z" fill="#0E1B3D"/>
<path d="M5.92511 18.6295C7.99227 19.8925 10.5517 20.3409 13.0763 19.6645C17.9663 18.3542 20.8687 13.3282 19.5586 8.43823C18.2483 3.54812 13.2215 0.645886 8.33138 1.95619C5.82221 2.62857 3.83844 4.28042 2.67666 6.38914L4.3631 7.1252C5.30256 5.50867 6.85715 4.24893 8.80579 3.72674C12.7179 2.6785 16.7398 5.00056 17.7881 8.91265C18.8361 12.8246 16.5139 16.8458 12.6019 17.894C10.5607 18.4408 8.49079 18.0689 6.82804 17.0338L5.92511 18.6295Z" fill="#0E1B3D"/>
</g>
<defs>
<clipPath id="clip0_71_120472">
<rect width="22" height="22" fill="white"/>
</clipPath>
</defs>
</svg>
