<svg width="73" height="59" viewBox="0 0 73 59" fill="none" xmlns="http://www.w3.org/2000/svg">
<path d="M60.186 12.138L60.0786 11.658H52.668V10.1099H61.3051L61.6845 11.7959L60.186 12.138Z" fill="white"/>
<path d="M53.1646 34.6792H49.8906V36.2273H53.1646V34.6792Z" fill="url(#paint0_linear_1542_55327)"/>
<path d="M58.0592 15.1826H54.7852V16.7308H58.0592V15.1826Z" fill="url(#paint1_linear_1542_55327)"/>
<path d="M46.6724 34.6792H43.3984V36.2273H46.6724V34.6792Z" fill="url(#paint2_linear_1542_55327)"/>
<path d="M40.1802 34.6792H36.9062V36.2273H40.1802V34.6792Z" fill="url(#paint3_linear_1542_55327)"/>
<path d="M33.6881 34.6792H30.4141V36.2273H33.6881V34.6792Z" fill="url(#paint4_linear_1542_55327)"/>
<path d="M27.1881 34.6792H23.9141V36.2273H27.1881V34.6792Z" fill="url(#paint5_linear_1542_55327)"/>
<path d="M20.6998 34.6792H17.4258V36.2273H20.6998V34.6792Z" fill="url(#paint6_linear_1542_55327)"/>
<path d="M14.2076 34.6792H10.9336V36.2273H14.2076V34.6792Z" fill="url(#paint7_linear_1542_55327)"/>
<path d="M46.4646 28.042H6.96875V29.5901H46.4646V28.042Z" fill="url(#paint8_linear_1542_55327)"/>
<path d="M46.4609 29.5959V28.0477C46.9399 28.049 47.4144 27.9544 47.8569 27.7696C48.2993 27.5847 48.701 27.3132 49.0386 26.9708L51.126 24.8677H67.4405L66.0304 27.6603L64.6602 26.9621L64.9357 26.4176H51.7686L50.1316 28.0687C49.6507 28.5555 49.0785 28.9412 48.4484 29.2034C47.8182 29.4656 47.1427 29.599 46.4609 29.5959Z" fill="white"/>
<path d="M64.6589 26.9544L58.6953 38.7725L60.065 39.4741L66.0285 27.656L64.6589 26.9544Z" fill="url(#paint9_linear_1542_55327)"/>
<path d="M50.1576 16.2937H48.6211V14.1888C48.6225 13.1074 49.0494 12.0707 49.8083 11.3061C50.5673 10.5414 51.5962 10.1112 52.6694 10.1099V11.658C52.0035 11.6589 51.3652 11.9259 50.8943 12.4003C50.4235 12.8747 50.1585 13.5179 50.1576 14.1888V16.2937Z" fill="url(#paint10_linear_1542_55327)"/>
<path d="M62.0488 12.0251L60.543 12.3657L63.3639 25.0266L64.8697 24.686L62.0488 12.0251Z" fill="url(#paint11_linear_1542_55327)"/>
<path d="M67.768 47.4964C66.2228 47.4964 65.0345 46.615 63.3819 44.99C62.0221 43.6496 61.0936 42.9235 60.0906 42.9235C59.0876 42.9235 58.1556 43.6496 56.7993 44.99C55.1467 46.615 53.9601 47.4964 52.4132 47.4964C50.8662 47.4964 49.6727 46.615 48.0218 44.99C46.6603 43.6496 45.7335 42.9235 44.7305 42.9235C43.7275 42.9235 42.7973 43.6496 41.4392 44.99C39.7883 46.615 38.6 47.4964 37.0531 47.4964C35.5062 47.4964 34.3126 46.615 32.6618 44.99C31.3002 43.6496 30.3717 42.9235 29.3704 42.9235C28.3692 42.9235 27.4372 43.6496 26.0791 44.99C24.43 46.6132 23.2434 47.4929 21.693 47.4929C20.1426 47.4929 18.9595 46.6202 17.3069 44.9848C15.9453 43.6443 15.0185 42.9183 14.0156 42.9183C13.0126 42.9183 12.0823 43.6443 10.7242 44.9848C9.07337 46.6115 7.88503 47.4929 6.33984 47.4929V45.9447C7.25795 45.9447 8.06172 45.4421 9.65022 43.8782C11.2387 42.3144 12.4963 41.3701 14.019 41.3701C15.5417 41.3701 16.7751 42.2899 18.3878 43.8782C20.0006 45.4665 20.7818 45.9447 21.6999 45.9447C22.618 45.9447 23.4322 45.4438 25.012 43.8817C26.6248 42.2934 27.8564 41.3754 29.3808 41.3754C30.9052 41.3754 32.1351 42.2934 33.7496 43.8817C35.3641 45.47 36.1419 45.9482 37.06 45.9482C37.9781 45.9482 38.7836 45.4473 40.3721 43.8817C41.9606 42.3161 43.2165 41.3754 44.7409 41.3754C46.2653 41.3754 47.497 42.2934 49.1097 43.8817C50.7225 45.47 51.5037 45.9482 52.4218 45.9482C53.3399 45.9482 54.1454 45.4473 55.7339 43.8817C57.3224 42.3161 58.5783 41.3754 60.1027 41.3754C61.6271 41.3754 62.857 42.2934 64.4698 43.8817C66.0825 45.47 66.8638 45.9482 67.7819 45.9482L67.768 47.4964Z" fill="url(#paint12_linear_1542_55327)"/>
<path d="M43.7145 25.6354H7.89453V11.9971H43.7145V25.6354ZM9.43106 24.0872H42.1711V13.547H9.43106V24.0872Z" fill="url(#paint13_linear_1542_55327)"/>
<defs>
<linearGradient id="paint0_linear_1542_55327" x1="53.1646" y1="35.4541" x2="49.8906" y2="35.4541" gradientUnits="userSpaceOnUse">
<stop offset="0.15" stop-color="#EA2428"/>
<stop offset="0.225" stop-color="#EA2428"/>
<stop offset="0.8" stop-color="#EA2428"/>
<stop offset="0.99" stop-color="#EA2428"/>
</linearGradient>
<linearGradient id="paint1_linear_1542_55327" x1="58.0592" y1="15.9576" x2="54.7852" y2="15.9576" gradientUnits="userSpaceOnUse">
<stop offset="0.15" stop-color="white"/>
<stop offset="0.5" stop-color="white"/>
<stop offset="0.8" stop-color="white"/>
<stop offset="0.99" stop-color="white"/>
</linearGradient>
<linearGradient id="paint2_linear_1542_55327" x1="46.6724" y1="35.4541" x2="43.3984" y2="35.4541" gradientUnits="userSpaceOnUse">
<stop offset="0.15" stop-color="#EA2428"/>
<stop offset="0.225" stop-color="#EA2428"/>
<stop offset="0.8" stop-color="#EA2428"/>
<stop offset="0.99" stop-color="#EA2428"/>
</linearGradient>
<linearGradient id="paint3_linear_1542_55327" x1="40.182" y1="35.4541" x2="36.9062" y2="35.4541" gradientUnits="userSpaceOnUse">
<stop stop-color="#EA2428"/>
<stop offset="0.0001" stop-color="#EA2428"/>
<stop offset="0.0002" stop-color="#EA2428"/>
<stop offset="0.99" stop-color="#EA2428"/>
</linearGradient>
<linearGradient id="paint4_linear_1542_55327" x1="33.6881" y1="35.4541" x2="30.4141" y2="35.4541" gradientUnits="userSpaceOnUse">
<stop offset="0.15" stop-color="#EA2428"/>
<stop offset="0.225" stop-color="#EA2428"/>
<stop offset="0.8" stop-color="#EA2428"/>
<stop offset="0.99" stop-color="#EA2428"/>
</linearGradient>
<linearGradient id="paint5_linear_1542_55327" x1="27.1898" y1="35.4541" x2="23.9141" y2="35.4541" gradientUnits="userSpaceOnUse">
<stop stop-color="#EA2428"/>
<stop offset="0.0001" stop-color="#EA2428"/>
<stop offset="0.0002" stop-color="#EA2428"/>
<stop offset="0.99" stop-color="#EA2428"/>
</linearGradient>
<linearGradient id="paint6_linear_1542_55327" x1="20.6998" y1="35.4541" x2="17.4258" y2="35.4541" gradientUnits="userSpaceOnUse">
<stop offset="0.15" stop-color="#EA2428"/>
<stop offset="0.225" stop-color="#EA2428"/>
<stop offset="0.8" stop-color="#EA2428"/>
<stop offset="0.99" stop-color="#EA2428"/>
</linearGradient>
<linearGradient id="paint7_linear_1542_55327" x1="14.2076" y1="35.4541" x2="10.9336" y2="35.4541" gradientUnits="userSpaceOnUse">
<stop offset="0.15" stop-color="#EA2428"/>
<stop offset="0.225" stop-color="#EA2428"/>
<stop offset="0.8" stop-color="#EA2428"/>
<stop offset="0.99" stop-color="#EA2428"/>
</linearGradient>
<linearGradient id="paint8_linear_1542_55327" x1="46.4664" y1="28.8152" x2="6.96875" y2="28.8152" gradientUnits="userSpaceOnUse">
<stop offset="0.15" stop-color="white"/>
<stop offset="0.48" stop-color="white"/>
<stop offset="0.9" stop-color="white"/>
<stop offset="0.99" stop-color="white"/>
</linearGradient>
<linearGradient id="paint9_linear_1542_55327" x1="65.2485" y1="27.2531" x2="59.399" y2="39.155" gradientUnits="userSpaceOnUse">
<stop offset="0.15" stop-color="#FCFCFF"/>
<stop offset="0.9" stop-color="white"/>
<stop offset="1" stop-color="white"/>
<stop offset="1" stop-color="white"/>
</linearGradient>
<linearGradient id="paint10_linear_1542_55327" x1="50.6461" y1="10.1099" x2="50.6461" y2="16.2937" gradientUnits="userSpaceOnUse">
<stop offset="0.15" stop-color="white"/>
<stop offset="0.5" stop-color="white" stop-opacity="0.87"/>
<stop offset="0.8" stop-color="white"/>
<stop offset="0.99" stop-color="white"/>
</linearGradient>
<linearGradient id="paint11_linear_1542_55327" x1="61.2684" y1="12.2023" x2="64.1805" y2="24.8492" gradientUnits="userSpaceOnUse">
<stop offset="0.15" stop-color="white"/>
<stop offset="0.48" stop-color="white"/>
<stop offset="0.9" stop-color="white"/>
<stop offset="0.99" stop-color="white"/>
</linearGradient>
<linearGradient id="paint12_linear_1542_55327" x1="6.32599" y1="44.4332" x2="67.768" y2="44.4332" gradientUnits="userSpaceOnUse">
<stop stop-color="white"/>
<stop offset="0.03" stop-color="white"/>
<stop offset="0.18" stop-color="white"/>
<stop offset="0.29" stop-color="white"/>
<stop offset="0.73" stop-color="white"/>
<stop offset="0.84" stop-color="white"/>
<stop offset="0.99" stop-color="white"/>
</linearGradient>
<linearGradient id="paint13_linear_1542_55327" x1="25.8045" y1="11.9971" x2="25.8045" y2="25.6354" gradientUnits="userSpaceOnUse">
<stop offset="0.07" stop-color="white"/>
<stop offset="0.51" stop-color="white"/>
<stop offset="0.92" stop-color="white" stop-opacity="0"/>
</linearGradient>
</defs>
</svg>
