<svg width="18" height="18" viewBox="0 0 18 18" fill="none" xmlns="http://www.w3.org/2000/svg">
<g clip-path="url(#clip0_139_34184)">
<g clip-path="url(#clip1_139_34184)">
<g filter="url(#filter0_d_139_34184)">
<path d="M16.6339 6.65682C16.6339 6.65119 16.6333 6.64557 16.6331 6.63994C16.6325 6.62506 16.6316 6.61028 16.6298 6.59573C16.629 6.58942 16.6279 6.58314 16.6269 6.57683C16.6246 6.56235 16.6218 6.54809 16.6184 6.534C16.617 6.52834 16.6156 6.52272 16.6141 6.51706C16.6096 6.50094 16.6044 6.48514 16.5984 6.46965C16.5974 6.46707 16.5969 6.46439 16.5958 6.4618L16.5925 6.45353L16.5918 6.4517L15.6591 4.11995C15.5801 3.92073 15.443 3.74991 15.2656 3.62977C15.0881 3.50964 14.8786 3.44575 14.6643 3.44644H12.3484V2.91072C12.3484 2.76864 12.2919 2.63238 12.1915 2.53192C12.091 2.43145 11.9547 2.37501 11.8126 2.375H1.63394C1.34988 2.37532 1.07754 2.48831 0.876677 2.68918C0.675813 2.89004 0.562825 3.16238 0.5625 3.44644V10.9465C0.562825 11.2306 0.675813 11.5029 0.876677 11.7038C1.07754 11.9047 1.34988 12.0177 1.63394 12.018H2.50534C2.62416 12.478 2.89246 12.8855 3.26808 13.1764C3.64369 13.4673 4.10532 13.6252 4.58041 13.6252C5.05551 13.6252 5.51713 13.4673 5.89275 13.1764C6.26836 12.8855 6.53666 12.478 6.65548 12.018H10.5412C10.66 12.478 10.9283 12.8855 11.3039 13.1764C11.6795 13.4673 12.1411 13.6252 12.6162 13.6252C13.0913 13.6252 13.553 13.4673 13.9286 13.1764C14.3042 12.8855 14.5725 12.478 14.6913 12.018H15.5627C15.8468 12.0177 16.1191 11.9047 16.32 11.7038C16.5208 11.5029 16.6338 11.2306 16.6341 10.9465V6.66077C16.6341 6.65943 16.6339 6.65816 16.6339 6.65682ZM14.6643 4.51789L15.3071 6.12505H12.3484V4.51789H14.6643ZM11.2769 3.44644V7.73221H1.63394V3.44644H11.2769ZM1.63394 8.80366H11.2769V9.81127C10.9158 10.1005 10.6577 10.4987 10.5412 10.9465H6.65548C6.53666 10.4865 6.26836 10.0791 5.89275 9.78816C5.51713 9.49724 5.05551 9.33938 4.58041 9.33938C4.10532 9.33938 3.64369 9.49724 3.26808 9.78816C2.89247 10.0791 2.62416 10.4865 2.50534 10.9465H1.63394L1.63394 8.80366ZM4.58041 12.5537C4.3685 12.5537 4.16135 12.4909 3.98515 12.3731C3.80895 12.2554 3.67162 12.0881 3.59053 11.8923C3.50943 11.6965 3.48821 11.4811 3.52956 11.2732C3.5709 11.0654 3.67294 10.8745 3.82279 10.7246C3.97263 10.5748 4.16354 10.4728 4.37138 10.4314C4.57922 10.3901 4.79465 10.4113 4.99043 10.4924C5.18621 10.5735 5.35355 10.7108 5.47128 10.887C5.58901 11.0632 5.65185 11.2704 5.65185 11.4823C5.65153 11.7663 5.53854 12.0387 5.33768 12.2395C5.13681 12.4404 4.86447 12.5534 4.58041 12.5537ZM12.6162 12.5537C12.4043 12.5537 12.1972 12.4909 12.021 12.3731C11.8448 12.2554 11.7074 12.0881 11.6263 11.8923C11.5453 11.6965 11.524 11.4811 11.5654 11.2732C11.6067 11.0654 11.7088 10.8745 11.8586 10.7246C12.0085 10.5748 12.1994 10.4728 12.4072 10.4314C12.615 10.3901 12.8305 10.4113 13.0263 10.4924C13.222 10.5735 13.3894 10.7108 13.5071 10.887C13.6248 11.0632 13.6877 11.2704 13.6877 11.4823C13.6874 11.7663 13.5744 12.0387 13.3735 12.2395C13.1726 12.4404 12.9003 12.5534 12.6162 12.5537ZM15.5627 10.9465H14.6913C14.5618 10.4414 14.2522 10.0011 13.8207 9.70827C13.3892 9.41547 12.8656 9.29045 12.3484 9.35671V7.19649H15.5627L15.5627 10.9465Z" fill="#060C28"/>
</g>
<path d="M4.38558 5.13281H3.32124C3.1801 5.13281 3.04473 5.18788 2.94493 5.28591C2.84513 5.38394 2.78906 5.51689 2.78906 5.65552C2.78906 5.79415 2.84513 5.92711 2.94493 6.02513C3.04473 6.12316 3.1801 6.17823 3.32124 6.17823H4.38558C4.52673 6.17823 4.66209 6.12316 4.76189 6.02513C4.86169 5.92711 4.91776 5.79415 4.91776 5.65552C4.91776 5.51689 4.86169 5.38394 4.76189 5.28591C4.66209 5.18788 4.52673 5.13281 4.38558 5.13281Z" fill="#EA262A"/>
<path d="M8.69212 5.13281H6.56342C6.42228 5.13281 6.28692 5.18788 6.18712 5.28591C6.08732 5.38394 6.03125 5.51689 6.03125 5.65552C6.03125 5.79415 6.08732 5.92711 6.18712 6.02513C6.28692 6.12316 6.42228 6.17823 6.56342 6.17823H8.69212C8.83326 6.17823 8.96862 6.12316 9.06843 6.02513C9.16823 5.92711 9.2243 5.79415 9.2243 5.65552C9.2243 5.51689 9.16823 5.38394 9.06843 5.28591C8.96862 5.18788 8.83326 5.13281 8.69212 5.13281Z" fill="#EA262A"/>
</g>
</g>
<defs>
<filter id="filter0_d_139_34184" x="-22.1366" y="-18.0542" width="61.4685" height="56.6484" filterUnits="userSpaceOnUse" color-interpolation-filters="sRGB">
<feFlood flood-opacity="0" result="BackgroundImageFix"/>
<feColorMatrix in="SourceAlpha" type="matrix" values="0 0 0 0 0 0 0 0 0 0 0 0 0 0 0 0 0 0 127 0" result="hardAlpha"/>
<feOffset dy="2.26991"/>
<feGaussianBlur stdDeviation="11.3496"/>
<feComposite in2="hardAlpha" operator="out"/>
<feColorMatrix type="matrix" values="0 0 0 0 0.0745098 0 0 0 0 0.376471 0 0 0 0 0.823529 0 0 0 0.16 0"/>
<feBlend mode="normal" in2="BackgroundImageFix" result="effect1_dropShadow_139_34184"/>
<feBlend mode="normal" in="SourceGraphic" in2="effect1_dropShadow_139_34184" result="shape"/>
</filter>
<clipPath id="clip0_139_34184">
<rect width="18" height="18" fill="white"/>
</clipPath>
<clipPath id="clip1_139_34184">
<rect width="18" height="18" fill="white" transform="translate(0 -1)"/>
</clipPath>
</defs>
</svg>
