<svg width="25" height="25" viewBox="0 0 25 25" fill="none" xmlns="http://www.w3.org/2000/svg">
<path fill-rule="evenodd" clip-rule="evenodd" d="M11.5694 23.1113L11.5701 23.1104C11.5678 23.1092 11.5657 23.108 11.5634 23.1066C11.5566 23.1022 11.5491 23.0984 11.5421 23.0945C10.9203 22.7516 9.8878 21.743 9.82209 21.693C9.82139 21.692 9.82069 21.6913 9.81998 21.6906L9.81928 21.6911C9.77088 21.6546 9.71896 21.6221 9.65933 21.5992C9.31533 21.4668 8.92503 21.6319 8.78939 21.9678C8.71456 22.1527 8.73491 22.3506 8.82424 22.5136L8.83266 22.5456C9.664 23.641 10.9836 24.1856 10.9836 24.1856C11.3061 24.3096 11.6716 24.1548 11.7988 23.8402C11.9081 23.5701 11.8049 23.2694 11.5694 23.1113Z" fill="#E82227"/>
<path fill-rule="evenodd" clip-rule="evenodd" d="M6.3783 2.78209C10.3503 0.686061 14.3246 0.853266 18.2966 2.78279C18.7381 2.99723 19.1909 3.14596 19.4518 2.59103C19.6806 2.10485 19.3394 1.83966 18.9238 1.62942C16.8168 0.563522 14.5854 -0.00544257 12.2064 0.000637611C9.91415 -0.0180706 7.77533 0.541072 5.77472 1.62194C5.35168 1.85018 4.95296 2.12566 5.27053 2.65791C5.55139 3.12866 5.97022 2.99723 6.3783 2.78209Z" fill="black"/>
<path fill-rule="evenodd" clip-rule="evenodd" d="M5.09063 20.2592C4.72091 20.2592 4.41994 20.5526 4.41994 20.9135C4.41994 21.2741 4.72091 21.5676 5.09063 21.5676C5.46058 21.5676 5.76132 21.2741 5.76132 20.9135C5.76132 20.5526 5.46058 20.2592 5.09063 20.2592Z" fill="black"/>
<path fill-rule="evenodd" clip-rule="evenodd" d="M13.8202 9.26145C13.8202 8.90085 13.5194 8.60736 13.1495 8.60736C12.7797 8.60736 12.479 8.90085 12.479 9.26145C12.479 9.62205 12.7797 9.91553 13.1495 9.91553C13.5194 9.91553 13.8202 9.62205 13.8202 9.26145Z" fill="black"/>
<path fill-rule="evenodd" clip-rule="evenodd" d="M21.0268 18.7668C20.6568 18.7668 20.3561 19.0603 20.3561 19.4209C20.3561 19.7815 20.6568 20.075 21.0268 20.075C21.3965 20.075 21.6972 19.7815 21.6972 19.4209C21.6972 19.0603 21.3965 18.7668 21.0268 18.7668Z" fill="black"/>
<path fill-rule="evenodd" clip-rule="evenodd" d="M15.9809 16.1118C15.6109 16.1118 15.3104 16.4053 15.3104 16.7659C15.3104 17.1265 15.6109 17.42 15.9809 17.42C16.3506 17.42 16.6516 17.1265 16.6516 16.7659C16.6516 16.4053 16.3506 16.1118 15.9809 16.1118Z" fill="black"/>
<path fill-rule="evenodd" clip-rule="evenodd" d="M15.9809 16.1118C15.6109 16.1118 15.3104 16.4053 15.3104 16.7659C15.3104 17.1265 15.6109 17.42 15.9809 17.42C16.3506 17.42 16.6516 17.1265 16.6516 16.7659C16.6516 16.4053 16.3506 16.1118 15.9809 16.1118Z" fill="black"/>
<path fill-rule="evenodd" clip-rule="evenodd" d="M24.0617 11.8096C23.6918 11.8096 23.391 12.1031 23.391 12.4637C23.391 12.8245 23.6918 13.1177 24.0617 13.1177C24.4314 13.1177 24.7324 12.8245 24.7324 12.4637C24.7324 12.1031 24.4314 11.8096 24.0617 11.8096Z" fill="black"/>
<path fill-rule="evenodd" clip-rule="evenodd" d="M23.7379 10.321C23.7379 9.96036 23.4372 9.66687 23.0672 9.66687C22.6975 9.66687 22.3968 9.96036 22.3968 10.321C22.3968 10.6818 22.6975 10.975 23.0672 10.975C23.4372 10.975 23.7379 10.6818 23.7379 10.321Z" fill="black"/>
<path fill-rule="evenodd" clip-rule="evenodd" d="M3.73684 4.65906C4.10656 4.65906 4.40753 4.36581 4.40753 4.00498C4.40753 3.64438 4.10656 3.35089 3.73684 3.35089C3.36712 3.35089 3.06615 3.64438 3.06615 4.00498C3.06615 4.36581 3.36712 4.65906 3.73684 4.65906Z" fill="black"/>
<path fill-rule="evenodd" clip-rule="evenodd" d="M1.25467 10.4081C1.00421 10.4081 0.787897 10.5444 0.672841 10.7432L0.670502 10.742C0.66793 10.7486 0.665358 10.7549 0.662785 10.7614C0.639166 10.8052 0.620224 10.8512 0.607362 10.9001C0.0358253 12.3804 4.57764e-05 13.9168 4.57764e-05 13.9168C4.57764e-05 14.2776 0.300781 14.5709 0.670502 14.5709C0.987373 14.5709 1.25209 14.3548 1.32178 14.0662L1.32295 14.066C1.32295 14.0646 1.32295 14.0634 1.32319 14.0623C1.33394 14.0155 1.34119 13.9671 1.34119 13.9168C1.34119 13.8941 1.33652 13.8724 1.33418 13.8502C1.42351 12.3809 1.87087 11.3199 1.87087 11.3199V11.3196C1.90571 11.2406 1.92536 11.1536 1.92536 11.0622C1.92536 10.7016 1.62439 10.4081 1.25467 10.4081Z" fill="black"/>
<path fill-rule="evenodd" clip-rule="evenodd" d="M8.98208 6.34765C3.47157 8.49325 2.04974 13.6268 3.5471 18.6467C3.55529 18.6906 3.56791 18.733 3.58452 18.7734C3.68437 19.0124 3.92454 19.1817 4.2054 19.1817C4.24562 19.1817 4.28467 19.1768 4.32303 19.1703C4.40417 19.1562 4.47971 19.1268 4.54799 19.087C4.74349 18.9727 4.87585 18.7659 4.87585 18.5277C4.87585 18.4851 4.87094 18.4435 4.86299 18.4028C4.86065 18.3918 4.85691 18.3817 4.85411 18.3707C4.72175 17.8969 4.59476 17.4213 4.49818 16.9405C3.4269 11.6124 7.01678 7.0422 12.2846 7.0422C17.123 7.0422 20.3766 9.99015 20.3766 14.4252C20.3766 16.1898 19.6558 17.0691 18.3771 17.0429C18.375 17.0429 18.3731 17.0422 18.371 17.0422C18.3694 17.0422 18.3678 17.0427 18.3659 17.0427C18.3411 17.0422 18.3161 17.0436 18.2915 17.0422C18.2885 17.045 18.2866 17.0481 18.2836 17.0509C17.9555 17.0932 17.7006 17.3652 17.7006 17.6963C17.7006 17.9975 17.9108 18.2484 18.195 18.3244C18.2034 18.3279 18.2125 18.3312 18.2284 18.3354C18.2291 18.3354 18.2314 18.3357 18.2324 18.3361C18.2377 18.3371 18.2436 18.3375 18.249 18.3385C18.263 18.3403 18.2798 18.342 18.3007 18.3436C18.324 18.3457 18.347 18.3504 18.371 18.3504C18.3797 18.3504 18.3876 18.3483 18.3963 18.3481C18.5317 18.352 18.6931 18.3504 18.6931 18.3504C20.7931 18.1881 21.5477 16.4814 21.5477 14.0162C21.5477 7.87004 14.8361 4.06829 8.98208 6.34765Z" fill="black"/>
<path fill-rule="evenodd" clip-rule="evenodd" d="M9.29441 4.59375C9.32232 4.58917 9.34732 4.57875 9.37441 4.57208C9.34649 4.57917 9.31941 4.58667 9.29149 4.59417C9.29232 4.59375 9.29316 4.59375 9.29441 4.59375Z" fill="#00AEEF"/>
<path fill-rule="evenodd" clip-rule="evenodd" d="M9.82465 3.82902C9.82255 3.81826 9.81881 3.80821 9.81623 3.79768C9.74467 3.51729 9.48673 3.30823 9.17758 3.30823C9.13712 3.30823 9.09784 3.31314 9.05948 3.31992C9.00897 3.33419 8.96033 3.34962 8.91075 3.36435C7.83433 3.68543 6.94218 4.12321 6.02688 4.65896C4.76548 5.39747 3.76131 6.23092 2.70172 7.56084C2.55042 7.75073 2.28032 8.00025 2.10189 8.26825C2.01209 8.36647 1.95363 8.49088 1.93773 8.62838C1.90078 8.80752 1.9431 8.98665 2.11943 9.15479C2.12574 9.16133 2.13276 9.16718 2.13931 9.17349C2.16293 9.19478 2.18842 9.21582 2.21671 9.23687C2.21975 9.23921 2.22279 9.24084 2.22583 9.24318C2.22583 9.24318 2.22607 9.24318 2.22607 9.24342C2.93908 9.75766 3.39182 8.78577 3.70963 8.38471C5.38098 6.27652 6.99597 5.17765 9.29147 4.58436C9.30714 4.58039 9.32234 4.57594 9.33824 4.57197C9.40068 4.5563 9.46054 4.53385 9.5148 4.50228C9.70726 4.3898 9.83751 4.18658 9.83751 3.95202C9.83751 3.90993 9.8326 3.86901 9.82465 3.82902Z" fill="black"/>
<path fill-rule="evenodd" clip-rule="evenodd" d="M22.1988 7.80511C22.167 7.74805 22.1289 7.69496 22.0816 7.64983C19.6407 4.53607 16.3791 3.02983 12.4705 2.95032C12.2972 2.95266 11.8592 2.95032 11.8082 2.95032C11.4385 2.95032 11.1375 3.2438 11.1375 3.6044C11.1375 3.96524 11.4385 4.25849 11.8082 4.25849C15.248 4.07983 18.713 5.46938 21.0555 8.47089L21.0559 8.47135C21.0634 8.48281 21.0728 8.49287 21.081 8.50362C21.203 8.66241 21.3955 8.76671 21.6141 8.76671C21.9829 8.76671 22.2825 8.47416 22.2825 8.11473C22.2825 8.00224 22.2505 7.89748 22.1988 7.80511Z" fill="black"/>
<path fill-rule="evenodd" clip-rule="evenodd" d="M18.7903 14.4269C18.78 14.2209 18.751 14.0146 18.7132 13.8114C18.3972 12.1183 17.4197 10.5868 16.1115 9.63757C16.2233 9.72737 16.3061 9.85085 16.3421 9.99233C16.3447 10.0036 16.3489 10.0138 16.3512 10.0251C16.3592 10.0662 16.3641 10.1088 16.3641 10.1523C16.3641 10.395 16.2294 10.6055 16.0304 10.7217C15.9607 10.7624 15.8838 10.7923 15.801 10.8066C15.7622 10.8134 15.7224 10.8183 15.6815 10.8183C15.5454 10.8183 15.4196 10.7785 15.3132 10.7114C16.3863 11.5977 17.2932 13.0663 17.4534 14.5454C17.5048 15.0199 17.5537 15.5047 18.1573 15.4853C18.8425 15.4636 18.8144 14.9128 18.7903 14.4269Z" fill="black"/>
<path fill-rule="evenodd" clip-rule="evenodd" d="M15.8011 10.8066C15.8838 10.7921 15.9605 10.7624 16.0302 10.7217C16.2295 10.6055 16.3642 10.395 16.3642 10.1523C16.3642 10.1088 16.3593 10.0662 16.3511 10.0248C16.3487 10.0138 16.3448 10.0035 16.3422 9.99233C16.3059 9.85084 16.2234 9.72737 16.1114 9.63757C16.1027 9.63126 16.0941 9.62471 16.0854 9.61863C15.9725 9.53608 15.8333 9.48627 15.6813 9.48627C15.3048 9.48627 14.9985 9.7849 14.9985 10.1523C14.9985 10.1939 15.0034 10.2341 15.0111 10.2734C15.0195 10.3181 15.0321 10.3611 15.0492 10.4023C15.0829 10.4827 15.1332 10.5545 15.1942 10.6158C15.2342 10.6466 15.2737 10.6787 15.313 10.7114C15.4194 10.7785 15.5455 10.8183 15.6813 10.8183C15.7225 10.8183 15.762 10.8134 15.8011 10.8066Z" fill="black"/>
<path fill-rule="evenodd" clip-rule="evenodd" d="M16.0855 9.61847C16.1009 9.62972 16.1163 9.64097 16.1317 9.65222C16.1167 9.64014 16.1009 9.62972 16.0855 9.61847Z" fill="#00AEEF"/>
<path fill-rule="evenodd" clip-rule="evenodd" d="M15.406 10.7863C15.3356 10.7279 15.2652 10.6708 15.1943 10.6158C15.2585 10.68 15.3285 10.7375 15.406 10.7863Z" fill="#00AEEF"/>
<path fill-rule="evenodd" clip-rule="evenodd" d="M13.0032 11.4665C13.0012 11.466 12.9999 11.4656 12.9978 11.4652C12.9999 11.466 13.002 11.4665 13.0041 11.4673L13.0032 11.4665Z" fill="black"/>
<path fill-rule="evenodd" clip-rule="evenodd" d="M15.7027 22.1783C15.3325 22.0478 14.9474 21.9456 14.5961 21.777C11.763 20.4164 10.2388 18.1904 10.0926 15.1143C10.0274 13.739 10.9392 12.7739 12.2137 12.7248L12.2321 12.7184C12.3095 12.706 12.3825 12.6806 12.4489 12.6448C12.654 12.5346 12.7948 12.3244 12.7948 12.0805C12.7948 11.8382 12.6559 11.6292 12.4531 11.5183C12.3636 11.4697 12.2628 11.4397 12.1543 11.436C12.1465 11.4358 12.1393 11.4337 12.1316 11.4337C12.1166 11.4337 12.1023 11.4372 12.0876 11.4381C10.3819 11.5452 9.00823 12.7673 8.7842 14.427C8.28001 18.1653 11.5294 22.6434 15.2876 23.3936C15.7158 23.4792 16.1031 23.4563 16.2348 22.9752C16.3505 22.5529 16.0877 22.3139 15.7027 22.1783Z" fill="black"/>
<path fill-rule="evenodd" clip-rule="evenodd" d="M15.7225 14.2237C15.7162 14.1725 15.7031 14.1239 15.6855 14.0768C15.5614 13.5991 15.3687 13.0397 15.0923 12.6606C15.0717 12.6281 15.0481 12.5977 15.0221 12.5692C15.0177 12.5638 15.0137 12.5575 15.0092 12.5524C15.0083 12.5512 15.0067 12.5507 15.0055 12.5496C14.8834 12.4251 14.7125 12.3468 14.5224 12.3468C14.1524 12.3468 13.8517 12.6403 13.8517 13.0009C13.8517 13.0696 13.8655 13.1344 13.8858 13.1966L13.8832 13.1992C13.8832 13.1992 13.8872 13.2076 13.894 13.2228C13.9024 13.2455 13.9122 13.2672 13.923 13.2885C13.9927 13.4499 14.1466 13.8297 14.3276 14.4169C14.3374 14.4772 14.3545 14.535 14.3795 14.5888C14.4903 14.8282 14.7359 14.9957 15.0221 14.9957C15.1453 14.9957 15.2592 14.9622 15.36 14.908C15.5784 14.7908 15.7283 14.5668 15.7283 14.3067C15.7283 14.2787 15.726 14.2511 15.7225 14.2237Z" fill="black"/>
<path fill-rule="evenodd" clip-rule="evenodd" d="M8.51735 19.8872C8.54152 19.9276 8.56402 19.9685 8.58818 20.0089C8.56693 19.9668 8.5436 19.9264 8.51735 19.8872Z" fill="#E82227"/>
<path fill-rule="evenodd" clip-rule="evenodd" d="M7.34135 20.5085C7.3726 20.5773 7.41052 20.6423 7.45469 20.7031C7.42969 20.6602 7.4051 20.6169 7.3826 20.5773C7.37927 20.5715 7.36302 20.5448 7.34135 20.5085Z" fill="#E82227"/>
<path fill-rule="evenodd" clip-rule="evenodd" d="M10.7137 8.78857C10.6064 8.78857 10.4132 8.85943 10.4116 8.85943C7.64556 9.6695 5.77848 12.1621 5.80724 15.1852C5.86313 17.0761 6.69378 19.3756 7.24404 20.3372C7.26953 20.3884 7.31396 20.4632 7.34132 20.5086C7.35348 20.5289 7.3626 20.5437 7.3647 20.5469C7.3771 20.5694 7.3909 20.5935 7.40493 20.6178C7.52653 20.7864 7.72718 20.8977 7.95425 20.8977C8.07141 20.8977 8.18015 20.8657 8.27626 20.814C8.48439 20.7024 8.62704 20.4892 8.62704 20.2413C8.62704 20.1382 8.60108 20.042 8.55712 19.9553C8.54356 19.9326 8.53093 19.9097 8.51737 19.887C7.58265 18.3281 7.1084 16.6077 7.16874 14.7018C7.23889 12.4832 8.81974 10.6877 10.8421 10.0841C10.8823 10.0766 10.9209 10.0647 10.9583 10.0502C11.0182 10.0338 11.1955 9.92229 11.2125 9.87552C11.3182 9.76 11.3842 9.6094 11.3842 9.44266C11.3842 9.08206 11.0834 8.78857 10.7137 8.78857Z" fill="#00AC75"/>
<path fill-rule="evenodd" clip-rule="evenodd" d="M18.8805 19.8173C18.7893 19.7675 18.6869 19.7371 18.5763 19.7336H18.5761C18.5382 19.7374 18.5005 19.7397 18.4629 19.743C15.5891 19.9869 13.2543 18.1046 13.0052 15.3023C12.9622 14.8162 12.9779 14.2481 12.2943 14.2977C11.6641 14.3438 11.6587 14.9623 11.6912 15.452C11.901 18.6167 14.6282 21.0631 17.9344 21.0977C18.1493 21.0977 18.367 21.0769 18.5847 21.0469C18.6275 21.0411 18.6703 21.0352 18.7133 21.0285C18.7706 21.014 18.8254 20.9927 18.8763 20.9651C19.0854 20.8531 19.2288 20.6386 19.2288 20.3898C19.2288 20.1431 19.0873 19.9301 18.8805 19.8173Z" fill="black"/>
</svg>
