<svg width="24" height="24" viewBox="0 0 24 24" fill="none" xmlns="http://www.w3.org/2000/svg">
<path d="M17.3822 6.32063C17.2267 5.84125 16.7911 5.5 16.2778 5.5H7.72222C7.20889 5.5 6.78111 5.84125 6.61778 6.32063L5 11.1875V17.6875C5 18.1344 5.35 18.5 5.77778 18.5H6.55556C6.98333 18.5 7.33333 18.1344 7.33333 17.6875V16.875H16.6667V17.6875C16.6667 18.1344 17.0167 18.5 17.4444 18.5H18.2222C18.65 18.5 19 18.1344 19 17.6875V11.1875L17.3822 6.32063ZM7.99444 7.125H15.9978L16.8067 9.5625H7.18556L7.99444 7.125ZM17.4444 15.25H6.55556V11.4637L6.64889 11.1875H17.3589L17.4444 11.4637V15.25Z" fill="black"/>
<path d="M8.5 14.4375C9.14433 14.4375 9.66667 13.8918 9.66667 13.2188C9.66667 12.5457 9.14433 12 8.5 12C7.85567 12 7.33333 12.5457 7.33333 13.2188C7.33333 13.8918 7.85567 14.4375 8.5 14.4375Z" fill="black"/>
<path d="M15.5 14.4375C16.1443 14.4375 16.6667 13.8918 16.6667 13.2188C16.6667 12.5457 16.1443 12 15.5 12C14.8557 12 14.3333 12.5457 14.3333 13.2188C14.3333 13.8918 14.8557 14.4375 15.5 14.4375Z" fill="black"/>
</svg>
